<?xml version="1.0" encoding="UTF-8" standalone="no"?>
<svg
   xmlns:dc="http://purl.org/dc/elements/1.1/"
   xmlns:cc="http://creativecommons.org/ns#"
   xmlns:rdf="http://www.w3.org/1999/02/22-rdf-syntax-ns#"
   xmlns:svg="http://www.w3.org/2000/svg"
   xmlns="http://www.w3.org/2000/svg"
   xmlns:sodipodi="http://sodipodi.sourceforge.net/DTD/sodipodi-0.dtd"
   xmlns:inkscape="http://www.inkscape.org/namespaces/inkscape"
   width="37.38229mm"
   height="25.127983mm"
   viewBox="0 0 37.38229 25.127983"
   version="1.1"
   id="svg8"
   inkscape:version="0.92.0 r15299"
   sodipodi:docname="25-10-crowdsourcing.svg">
  <metadata
     id="metadata23">
    <rdf:RDF>
      <cc:Work
         rdf:about="">
        <dc:format>image/svg+xml</dc:format>
        <dc:type
           rdf:resource="http://purl.org/dc/dcmitype/StillImage" />
        <dc:title />
      </cc:Work>
    </rdf:RDF>
  </metadata>
  <defs
     id="defs21" />
  <sodipodi:namedview
     pagecolor="#ffffff"
     bordercolor="#666666"
     borderopacity="1"
     objecttolerance="10"
     gridtolerance="10"
     guidetolerance="10"
     inkscape:pageopacity="0"
     inkscape:pageshadow="2"
     inkscape:window-width="756"
     inkscape:window-height="480"
     id="namedview19"
     showgrid="false"
     fit-margin-top="0"
     fit-margin-left="0"
     fit-margin-right="0"
     fit-margin-bottom="0"
     inkscape:zoom="0.23655914"
     inkscape:cx="-246.7471"
     inkscape:cy="193.58171"
     inkscape:window-x="2083"
     inkscape:window-y="149"
     inkscape:window-maximized="0"
     inkscape:current-layer="layer17" />
  <g
     inkscape:groupmode="layer"
     id="layer17"
     inkscape:label="25to10crowdsourcing"
     style="display:inline"
     sodipodi:insensitive="true"
     transform="translate(-135.18928,-144.49154)">
    <g
       id="g5054">
      <rect
         y="144.94154"
         x="135.63928"
         height="24.227982"
         width="36.482288"
         id="rect5012"
         style="opacity:1;fill:#ffffff;fill-opacity:1;stroke:#000000;stroke-width:0.89999998;stroke-linecap:round;stroke-miterlimit:4;stroke-dasharray:none;stroke-opacity:1" />
      <path
         sodipodi:nodetypes="ccccssaaccaaaasc"
         inkscape:connector-curvature="0"
         id="path5028"
         d="m 141.98203,161.21392 h 2.28203 v 1.76941 h -5.44049 l 3.63802,-5.77123 c 0.18196,-0.28866 0.40407,-0.6851 0.34726,-1.33945 -0.0353,-0.40652 -0.56117,-0.70517 -0.95911,-0.71106 -0.37612,-0.006 -0.73126,0.3231 -0.92604,0.64491 -0.20427,0.33749 -0.14883,1.17409 -0.14883,1.17409 h -1.63711 c 0,0 -0.0466,-0.63186 0,-0.94258 0.0753,-0.50177 0.12395,-1.06352 0.44648,-1.4552 0.52043,-0.63202 1.34778,-1.13881 2.16628,-1.15756 0.92187,-0.0211 2.01193,0.40641 2.49701,1.19062 0.48432,0.783 0.37381,2.02849 -0.0496,2.7616 z"
         style="fill:#000000;fill-opacity:1;stroke:none;stroke-width:0.26458332px;stroke-linecap:butt;stroke-linejoin:miter;stroke-opacity:1" />
      <path
         sodipodi:nodetypes="ccsaasccccccssaac"
         inkscape:connector-curvature="0"
         id="path5030"
         d="m 146.09961,161.11471 v 1.62057 c 0,0 1.28032,0.34051 1.96784,0.33073 0.78899,-0.0112 1.58346,-0.34824 2.10013,-0.90951 0.55958,-0.60789 0.80624,-1.52204 0.79375,-2.34818 -0.0115,-0.75861 -0.26611,-1.59585 -0.79375,-2.1332 -0.79089,-0.80544 -2.05052,-0.76067 -2.05052,-0.76067 v -1.73633 h 2.64583 v -1.43867 h -4.11758 v 4.51445 h 1.30638 c 0.75095,0 1.38907,0.4584 1.4056,1.43868 0.0115,0.68263 -0.0834,1.13386 -0.42995,1.53788 -0.25216,0.29398 -0.67152,0.46003 -1.05833,0.47956 -0.6215,0.0314 -1.7694,-0.59531 -1.7694,-0.59531 z"
         style="fill:#000000;fill-opacity:1;stroke:none;stroke-width:0.26458332px;stroke-linecap:butt;stroke-linejoin:miter;stroke-opacity:1" />
      <path
         inkscape:connector-curvature="0"
         id="path5032"
         d="m 155.37656,152.92916 h 1.12448 l -2.87734,12.79922 h -1.19063 z"
         style="fill:#000000;fill-opacity:1;stroke:none;stroke-width:0.26458332px;stroke-linecap:butt;stroke-linejoin:miter;stroke-opacity:1" />
      <path
         sodipodi:nodetypes="ccccccc"
         inkscape:connector-curvature="0"
         id="path5034"
         d="m 158.37,153.64023 h 2.89354 v 9.24388 h -1.83555 v -7.60703 H 158.37 Z"
         style="fill:#000000;fill-opacity:1;stroke:none;stroke-width:0.26458332px;stroke-linecap:butt;stroke-linejoin:miter;stroke-opacity:1" />
      <path
         sodipodi:nodetypes="aasaaasaa"
         inkscape:connector-curvature="0"
         id="path5036"
         d="m 165.90087,153.54762 c 0.78222,0.003 1.58663,0.52805 2.03459,1.1693 0.61464,0.87984 0.56011,2.0326 0.54591,3.17318 -0.014,1.12128 0.2094,2.55176 -0.40559,3.5854 -0.45226,0.76012 -1.29047,1.51036 -2.17491,1.52009 -0.87125,0.01 -1.7249,-0.70384 -2.1749,-1.44994 -0.63068,-1.04569 -0.37535,-2.56468 -0.37535,-3.64421 0,-0.98237 -0.0679,-2.33802 0.56244,-3.23129 0.43875,-0.62173 1.22686,-1.1254 1.98781,-1.12253 z"
         style="fill:#000000;fill-opacity:1;stroke:none;stroke-width:0.26458332px;stroke-linecap:butt;stroke-linejoin:miter;stroke-opacity:1" />
      <path
         sodipodi:nodetypes="czzaszac"
         inkscape:connector-curvature="0"
         id="path5038"
         d="m 165.90088,155.16126 c 0.46627,-0.004 0.85455,0.24876 0.86528,1.09914 0.0107,0.85038 0.04,2.7557 0.0468,3.81194 0.007,1.05624 -0.32313,1.29557 -0.8419,1.30962 -0.51907,0.0141 -0.92133,-0.32264 -0.91206,-1.26285 0.009,-0.94021 0.002,-2.9976 0.0234,-3.88209 0.0211,-0.88449 0.36795,-1.07205 0.81852,-1.07576 z"
         style="fill:#ffffff;fill-opacity:1;stroke:none;stroke-width:0.26458332px;stroke-linecap:butt;stroke-linejoin:miter;stroke-opacity:1" />
      <path
         inkscape:connector-curvature="0"
         id="path5018"
         d="m 135.63928,156.72813 h 36.57584"
         style="fill:none;stroke:#000000;stroke-width:0.36500001;stroke-linecap:butt;stroke-linejoin:miter;stroke-miterlimit:4;stroke-dasharray:none;stroke-opacity:1" />
      <path
         inkscape:connector-curvature="0"
         id="path5020"
         d="m 135.59251,159.01996 h 36.57583"
         style="fill:none;stroke:#000000;stroke-width:0.36500001;stroke-linecap:butt;stroke-linejoin:miter;stroke-miterlimit:4;stroke-dasharray:none;stroke-opacity:1" />
      <path
         inkscape:connector-curvature="0"
         id="path5022"
         d="m 135.59251,161.49889 h 36.52906"
         style="fill:none;stroke:#000000;stroke-width:0.36500001;stroke-linecap:butt;stroke-linejoin:miter;stroke-miterlimit:4;stroke-dasharray:none;stroke-opacity:1" />
      <path
         inkscape:connector-curvature="0"
         id="path5024"
         d="m 135.54574,163.96979 h 36.6226"
         style="fill:none;stroke:#000000;stroke-width:0.36500001;stroke-linecap:butt;stroke-linejoin:miter;stroke-miterlimit:4;stroke-dasharray:none;stroke-opacity:1" />
      <path
         inkscape:connector-curvature="0"
         id="path5026"
         d="m 135.59251,166.40997 h 36.57583"
         style="fill:none;stroke:#000000;stroke-width:0.36500001;stroke-linecap:butt;stroke-linejoin:miter;stroke-miterlimit:4;stroke-dasharray:none;stroke-opacity:1" />
      <path
         inkscape:connector-curvature="0"
         id="path5016"
         d="m 135.63928,154.29597 h 36.52906"
         style="fill:none;stroke:#000000;stroke-width:0.36500001;stroke-linecap:butt;stroke-linejoin:miter;stroke-miterlimit:4;stroke-dasharray:none;stroke-opacity:1" />
      <path
         inkscape:connector-curvature="0"
         id="path5014"
         d="m 135.59251,151.86382 h 36.57583"
         style="fill:none;stroke:#000000;stroke-width:0.36500001;stroke-linecap:butt;stroke-linejoin:miter;stroke-miterlimit:4;stroke-dasharray:none;stroke-opacity:1" />
    </g>
  </g>
</svg>
