<?xml version="1.0" encoding="UTF-8" standalone="no"?>
<svg
   xmlns:dc="http://purl.org/dc/elements/1.1/"
   xmlns:cc="http://creativecommons.org/ns#"
   xmlns:rdf="http://www.w3.org/1999/02/22-rdf-syntax-ns#"
   xmlns:svg="http://www.w3.org/2000/svg"
   xmlns="http://www.w3.org/2000/svg"
   xmlns:sodipodi="http://sodipodi.sourceforge.net/DTD/sodipodi-0.dtd"
   xmlns:inkscape="http://www.inkscape.org/namespaces/inkscape"
   width="22.343269mm"
   height="24.714693mm"
   viewBox="0 0 22.343269 24.714693"
   version="1.1"
   id="svg8"
   inkscape:version="0.92.0 r15299"
   sodipodi:docname="agree-certainty-matrix.svg">
  <metadata
     id="metadata16">
    <rdf:RDF>
      <cc:Work
         rdf:about="">
        <dc:format>image/svg+xml</dc:format>
        <dc:type
           rdf:resource="http://purl.org/dc/dcmitype/StillImage" />
        <dc:title />
      </cc:Work>
    </rdf:RDF>
  </metadata>
  <defs
     id="defs14" />
  <sodipodi:namedview
     pagecolor="#ffffff"
     bordercolor="#666666"
     borderopacity="1"
     objecttolerance="10"
     gridtolerance="10"
     guidetolerance="10"
     inkscape:pageopacity="0"
     inkscape:pageshadow="2"
     inkscape:window-width="756"
     inkscape:window-height="480"
     id="namedview12"
     showgrid="false"
     fit-margin-top="0"
     fit-margin-left="0"
     fit-margin-right="0"
     fit-margin-bottom="0"
     inkscape:zoom="1.3310245"
     inkscape:cx="0.62148165"
     inkscape:cy="79.198158"
     inkscape:window-x="1931"
     inkscape:window-y="109"
     inkscape:window-maximized="0"
     inkscape:current-layer="layer32" />
  <g
     inkscape:groupmode="layer"
     id="layer32"
     inkscape:label="agreecertaintymatrix"
     sodipodi:insensitive="true"
     transform="translate(-306.08191,-138.6055)">
    <g
       id="g4856">
      <path
         sodipodi:nodetypes="csccscscc"
         inkscape:connector-curvature="0"
         id="path4821"
         d="m 308.70488,163.31632 c 0,0 -1.41158,0.0836 -2.06262,-0.52576 -0.76189,-0.71314 -0.52578,-2.06262 -0.52578,-2.06262 l 9.46378,-9.8682 c 3.63193,2.11624 6.44109,1.56187 8.85467,-0.13766 1.7126,-1.20593 4.23423,-3.97797 3.19747,-8.15325 1.68207,2.47963 0.45239,6.53814 -1.4964,8.77623 -1.44771,1.66263 -4.80569,2.85151 -7.52248,2.02217 z"
         style="fill:#000000;fill-opacity:1;stroke:none;stroke-width:0.26458332px;stroke-linecap:butt;stroke-linejoin:miter;stroke-opacity:1" />
      <path
         sodipodi:nodetypes="asaaa"
         inkscape:connector-curvature="0"
         id="path4823"
         d="m 313.86141,148.12981 c -1.24071,-3.20194 1.29988,-7.90024 4.75211,-9.14022 3.20247,-1.15027 7.35222,0.39003 8.43246,3.19503 1.22208,3.17331 -1.48396,7.84133 -4.65101,9.07955 -2.82229,1.10343 -7.43867,-0.30874 -8.53356,-3.13436 z"
         style="fill:#000000;fill-opacity:1;stroke:none;stroke-width:0.26458332px;stroke-linecap:butt;stroke-linejoin:miter;stroke-opacity:1" />
      <path
         sodipodi:nodetypes="asaaa"
         inkscape:connector-curvature="0"
         id="path4823-3"
         d="m 314.56735,147.77912 c -1.10379,-2.87832 1.39542,-7.21036 4.32317,-8.17546 2.85488,-0.94109 6.58057,0.31516 7.55228,2.82059 1.10752,2.8556 -1.33662,7.06274 -4.1892,8.17801 -2.54206,0.99387 -6.70895,-0.27467 -7.68625,-2.82314 z"
         style="fill:#ffffff;fill-opacity:1;stroke:none;stroke-width:0.23831218px;stroke-linecap:butt;stroke-linejoin:miter;stroke-opacity:1" />
      <path
         sodipodi:nodetypes="cscsc"
         inkscape:connector-curvature="0"
         id="path4840"
         d="m 315.74202,148.83757 c -0.65099,-3.27221 0.94349,-5.46415 1.37509,-5.98564 0.46843,-0.56599 2.27751,-2.87435 5.86429,-2.77037 -2.26483,-0.95042 -5.41036,0.62948 -6.59229,2.16372 -0.98154,1.27412 -2.16372,3.84214 -0.64709,6.59229 z"
         style="fill:#000000;fill-opacity:1;stroke:none;stroke-width:0.26458332px;stroke-linecap:butt;stroke-linejoin:miter;stroke-opacity:1" />
      <path
         sodipodi:nodetypes="cccacccccacccccacccccaccc"
         inkscape:connector-curvature="0"
         id="path4843"
         d="m 317.07855,144.60264 1.95894,-0.95802 0.28598,0.57196 c 0.24308,0.51476 0.61092,0.377 0.88652,0.24308 0.26514,-0.12883 0.54338,-0.37177 0.34319,-0.81503 l -0.25737,-0.54337 1.45847,-0.71494 0.81505,1.60148 0.77214,-0.35747 c 0.61485,-0.27168 0.92365,-0.0725 1.11531,0.25737 0.22497,0.38725 0.28599,0.90084 -0.38606,1.28691 l -0.77214,0.40036 0.74354,1.50139 -1.85887,0.95803 -0.30027,-0.58625 c -0.27168,-0.51477 -0.78077,-0.52397 -1.14392,-0.35748 -0.34931,0.16015 -0.68636,0.54336 -0.45758,1.05812 l 0.28599,0.62916 -1.3012,0.61485 -0.94374,-2.00185 0.42899,-0.22879 c 0.40037,-0.20018 0.40287,-0.57068 0.28597,-0.84363 -0.11586,-0.27052 -0.42898,-0.60055 -0.80075,-0.37177 l -0.45754,0.22878 z"
         style="fill:#000000;fill-opacity:1;stroke:none;stroke-width:0.26458332px;stroke-linecap:butt;stroke-linejoin:miter;stroke-opacity:1" />
      <path
         sodipodi:nodetypes="ccsccsc"
         inkscape:connector-curvature="0"
         id="path4845"
         d="m 313.26074,153.89694 0.48614,-0.52906 c 0,0 0.83563,0.23593 1.4728,0.82934 0.53935,0.50231 0.72925,1.45849 0.72925,1.45849 l -0.47186,0.47186 c 0,0 -0.2142,-0.89324 -0.80073,-1.48709 -0.60063,-0.60812 -1.4156,-0.74354 -1.4156,-0.74354 z"
         style="fill:#ffffff;fill-opacity:1;stroke:none;stroke-width:0.26458332px;stroke-linecap:butt;stroke-linejoin:miter;stroke-opacity:1" />
      <path
         sodipodi:nodetypes="ccsccsc"
         inkscape:connector-curvature="0"
         id="path4847"
         d="m 314.21877,152.86742 0.45757,-0.51476 c 0,0 0.88444,0.20532 1.41557,0.68634 0.56379,0.5106 0.91514,1.52999 0.91514,1.52999 l -0.48617,0.48616 c 0,0 -0.29649,-1.032 -0.88654,-1.55858 -0.503,-0.44889 -1.41557,-0.62915 -1.41557,-0.62915 z"
         style="fill:#ffffff;fill-opacity:1;stroke:none;stroke-width:0.26458332px;stroke-linecap:butt;stroke-linejoin:miter;stroke-opacity:1" />
    </g>
  </g>
</svg>
