<?xml version="1.0" encoding="UTF-8" standalone="no"?>
<svg
   xmlns:dc="http://purl.org/dc/elements/1.1/"
   xmlns:cc="http://creativecommons.org/ns#"
   xmlns:rdf="http://www.w3.org/1999/02/22-rdf-syntax-ns#"
   xmlns:svg="http://www.w3.org/2000/svg"
   xmlns="http://www.w3.org/2000/svg"
   xmlns:sodipodi="http://sodipodi.sourceforge.net/DTD/sodipodi-0.dtd"
   xmlns:inkscape="http://www.inkscape.org/namespaces/inkscape"
   width="43.812794mm"
   height="36.875557mm"
   viewBox="0 0 43.812793 36.875557"
   version="1.1"
   id="svg8"
   inkscape:version="0.92.0 r15299"
   sodipodi:docname="celebrity-interview.svg">
  <metadata
     id="metadata11">
    <rdf:RDF>
      <cc:Work
         rdf:about="">
        <dc:format>image/svg+xml</dc:format>
        <dc:type
           rdf:resource="http://purl.org/dc/dcmitype/StillImage" />
        <dc:title />
      </cc:Work>
    </rdf:RDF>
  </metadata>
  <defs
     id="defs9" />
  <sodipodi:namedview
     pagecolor="#ffffff"
     bordercolor="#666666"
     borderopacity="1"
     objecttolerance="10"
     gridtolerance="10"
     guidetolerance="10"
     inkscape:pageopacity="0"
     inkscape:pageshadow="2"
     inkscape:window-width="756"
     inkscape:window-height="480"
     id="namedview7"
     showgrid="false"
     fit-margin-top="0"
     fit-margin-left="0"
     fit-margin-right="0"
     fit-margin-bottom="0"
     inkscape:zoom="0.22517394"
     inkscape:cx="-3.1253437"
     inkscape:cy="108.20156"
     inkscape:window-x="2430"
     inkscape:window-y="141"
     inkscape:window-maximized="0"
     inkscape:current-layer="layer30" />
  <g
     inkscape:groupmode="layer"
     id="layer30"
     inkscape:label="celebrityinterview"
     sodipodi:insensitive="true"
     transform="translate(-249.34312,-143.05431)">
    <g
       id="g4809">
      <path
         sodipodi:nodetypes="cscsccsccscccccccsccsccsccssscc"
         inkscape:connector-curvature="0"
         id="path4803"
         d="m 261.59673,145.64312 c 0,0 2.43002,-1.25458 5.75298,-1.96443 3.65718,-0.78124 6.361,-0.60804 6.361,-0.60804 0,0 0.77965,4.53801 0.98222,6.82874 0.20474,2.31529 0.23386,6.96905 0.23386,6.96905 l 3.97563,2.94665 c 0,0 0.50012,7.41725 0.51451,11.13177 0.005,1.21697 -0.14031,3.64823 -0.14031,3.64823 l -0.70159,-0.3274 c 0,0 -0.41625,-1.64075 -0.51449,-2.47893 -0.37946,-3.23764 -0.49111,-9.77538 -0.49111,-9.77538 l -2.08138,0.14032 0.0468,3.88209 -0.42095,1.7197 -0.67937,-1.08046 -0.069,-4.38102 -6.82874,1.3564 c 0,0 -0.39058,7.91429 -0.93543,11.83335 -0.0985,0.70866 -0.42095,2.10475 -0.42095,2.10475 l -0.56126,-0.18709 c 0,0 -0.36695,-3.83127 -0.3742,-5.75297 -0.0102,-2.71724 0.46773,-8.13836 0.46773,-8.13836 l -1.73057,-3.695 c 0,0 -0.19135,3.78173 -0.42095,5.65943 -0.15741,1.28735 -0.65481,3.83532 -0.65481,3.83532 h -0.60804 c 0,0 -0.15147,-2.96154 -0.14031,-4.44336 0.0176,-2.34109 0.28989,-4.67497 0.3274,-7.01582 0.0342,-2.13588 0.0675,-4.27771 -0.0935,-6.40779 -0.14704,-1.94579 -0.79521,-5.79975 -0.79521,-5.79975 z"
         style="fill:#000000;fill-opacity:1;stroke:none;stroke-width:0.26458332px;stroke-linecap:butt;stroke-linejoin:miter;stroke-opacity:1" />
      <path
         sodipodi:nodetypes="ccsasaaaassassassaasssassccssssasaaasassssassacc"
         inkscape:connector-curvature="0"
         id="path4805"
         d="m 262.87328,163.52448 -0.90237,9.7e-4 c -3.15656,0.4577 -5.36168,0.90541 -8.16175,2.25309 -2.01897,0.97173 -4.3857,2.72816 -4.4639,4.94817 -0.0815,2.31401 2.17877,4.55363 4.27847,5.47234 3.24505,1.41984 6.29233,2.22267 9.5609,2.82002 3.78415,0.69158 7.66604,1.04872 11.5083,0.86128 3.9989,-0.19508 8.08329,-0.65572 11.83335,-2.05798 1.6379,-0.61246 3.32144,-1.41202 4.49014,-2.71278 1.12112,-1.2478 2.26627,-2.57324 2.12813,-4.56029 -0.15789,-2.27098 -3.22955,-3.50054 -5.30865,-4.18611 -3.16047,-1.04215 -6.20096,-1.37807 -9.35443,-1.68379 -2.553,-0.24751 -5.13599,-0.30544 -7.69402,-0.11694 -2.8365,0.20902 -5.93662,1.01906 -9.23749,2.50232 -1.64925,0.7411 -3.9024,1.80158 -3.81194,3.5313 0.10121,1.93528 2.84865,2.91334 4.65383,3.48452 3.45847,1.0943 6.6961,1.65351 10.14957,1.70718 3.75212,0.0583 7.78698,0.018 11.06161,-1.77734 1.24429,-0.6822 3.03349,-1.77618 2.82971,-3.18051 -0.22925,-1.57988 -2.46172,-2.13596 -4.06916,-2.52569 -2.76893,-0.67133 -5.79473,-0.67865 -8.69962,-0.58465 -1.55527,0.0503 -3.71325,0.49963 -5.03438,0.93828 -0.89675,0.29774 -2.08675,0.81356 -2.14585,1.73057 -0.0475,0.73717 0.76295,1.36419 1.53215,1.60111 1.23789,0.38128 3.65612,0.46987 5.58426,0.3685 1.72925,-0.0909 3.51403,-0.45315 4.89035,-1.32147 l -0.0662,-0.47955 c -2.1774,0.51454 -3.11809,0.71633 -4.7129,0.82682 -1.79022,0.12403 -5.24349,-0.34136 -5.27513,-1.07487 -0.0442,-1.02419 3.62004,-1.51502 5.29167,-1.52136 2.25556,-0.009 4.35726,0.1443 6.49883,0.51263 1.47743,0.2541 3.77427,0.75832 3.81992,2.23242 0.0463,1.49425 -2.0383,1.98954 -3.72472,2.49818 -2.24304,0.67652 -4.64909,0.7961 -6.9909,0.72643 -2.98731,-0.0889 -6.05662,-0.38486 -8.84701,-1.4552 -1.69888,-0.65166 -4.53426,-1.125 -4.59713,-2.94349 -0.0626,-1.81133 2.67603,-2.58528 4.36562,-3.24115 3.33032,-1.29277 5.84618,-1.39762 8.83047,-1.52135 2.97119,-0.12319 5.94775,0.33476 8.88693,0.78171 2.8506,0.43347 5.19244,1.14478 7.40999,2.62646 1.66848,1.11481 1.97114,2.26414 0.67917,4.38735 -1.41497,2.32535 -3.53611,3.22096 -5.76437,3.91229 -3.34297,1.03717 -9.3874,1.51867 -14.08906,1.19062 -4.81024,-0.33563 -10.41223,-1.42875 -14.1056,-3.20807 -1.89984,-0.91527 -4.36673,-2.39555 -4.41523,-4.53099 -0.0435,-1.91475 1.44745,-2.98295 2.74504,-3.9026 2.39035,-1.69412 6.82156,-2.03323 8.4584,-2.38952 z"
         style="fill:#000000;fill-opacity:1;stroke:none;stroke-width:0.26458332px;stroke-linecap:butt;stroke-linejoin:miter;stroke-opacity:1" />
    </g>
  </g>
</svg>
