<?xml version="1.0" encoding="UTF-8" standalone="no"?>
<svg
   xmlns:dc="http://purl.org/dc/elements/1.1/"
   xmlns:cc="http://creativecommons.org/ns#"
   xmlns:rdf="http://www.w3.org/1999/02/22-rdf-syntax-ns#"
   xmlns:svg="http://www.w3.org/2000/svg"
   xmlns="http://www.w3.org/2000/svg"
   xmlns:sodipodi="http://sodipodi.sourceforge.net/DTD/sodipodi-0.dtd"
   xmlns:inkscape="http://www.inkscape.org/namespaces/inkscape"
   width="26.153633mm"
   height="22.699816mm"
   viewBox="0 0 26.153633 22.699816"
   version="1.1"
   id="svg8"
   inkscape:version="0.92.0 r15299"
   sodipodi:docname="design-storyboards.svg">
  <metadata
     id="metadata20">
    <rdf:RDF>
      <cc:Work
         rdf:about="">
        <dc:format>image/svg+xml</dc:format>
        <dc:type
           rdf:resource="http://purl.org/dc/dcmitype/StillImage" />
        <dc:title />
      </cc:Work>
    </rdf:RDF>
  </metadata>
  <defs
     id="defs18" />
  <sodipodi:namedview
     pagecolor="#ffffff"
     bordercolor="#666666"
     borderopacity="1"
     objecttolerance="10"
     gridtolerance="10"
     guidetolerance="10"
     inkscape:pageopacity="0"
     inkscape:pageshadow="2"
     inkscape:window-width="756"
     inkscape:window-height="480"
     id="namedview16"
     showgrid="false"
     fit-margin-top="0"
     fit-margin-left="0"
     fit-margin-right="0"
     fit-margin-bottom="0"
     inkscape:zoom="0.22770399"
     inkscape:cx="-70.68363"
     inkscape:cy="-53.452564"
     inkscape:window-x="0"
     inkscape:window-y="0"
     inkscape:window-maximized="0"
     inkscape:current-layer="layer33" />
  <g
     inkscape:groupmode="layer"
     id="layer33"
     inkscape:label="designstoryboards"
     sodipodi:insensitive="true"
     transform="translate(-274.91428,-109.44565)">
    <g
       id="g4911">
      <rect
         y="109.44565"
         x="276.95676"
         height="21.475473"
         width="21.475473"
         id="rect4897"
         style="opacity:1;fill:#000000;fill-opacity:1;stroke:none;stroke-width:0.56499994;stroke-linecap:round;stroke-miterlimit:4;stroke-dasharray:none;stroke-opacity:1" />
      <path
         sodipodi:nodetypes="cccsccssccc"
         inkscape:connector-curvature="0"
         id="path4861"
         d="m 275.74036,123.21146 4.43267,2.20203 -0.58237,6.61855 c 0,0 1.06882,-1.9125 1.53938,-2.85895 0.35388,-0.71176 1.01625,-2.10092 1.01625,-2.10092 l 3.23154,3.03137 c 0,0 -1.38299,-3.71267 -1.57287,-5.66237 -0.0361,-0.37112 -0.0355,-0.76274 0.0858,-1.11532 0.44304,-1.2875 2.25923,-3.40314 2.25923,-3.40314 l -5.20479,1.65867 z"
         style="fill:#ffffff;fill-opacity:1;stroke:#000000;stroke-width:0.465;stroke-linecap:butt;stroke-linejoin:miter;stroke-miterlimit:4;stroke-dasharray:none;stroke-opacity:1" />
      <path
         sodipodi:nodetypes="aaaaaaaaa"
         inkscape:connector-curvature="0"
         id="path4859"
         d="m 279.48667,121.58138 c -0.14842,-0.2291 -0.22507,-0.53306 -0.17158,-0.80074 0.0591,-0.29561 0.26399,-0.57629 0.51478,-0.74354 0.34065,-0.22718 0.79603,-0.31717 1.2011,-0.25738 0.31234,0.0461 0.63146,0.21153 0.82933,0.45756 0.16824,0.20918 0.24542,0.50421 0.22879,0.77214 -0.019,0.30594 -0.1413,0.63663 -0.3683,0.84262 -0.33502,0.30401 -0.84365,0.49202 -1.29037,0.42059 -0.38505,-0.0616 -0.73173,-0.36398 -0.94375,-0.69125 z"
         style="fill:#ffffff;fill-opacity:1;stroke:#000000;stroke-width:0.465;stroke-linecap:butt;stroke-linejoin:miter;stroke-miterlimit:4;stroke-dasharray:none;stroke-opacity:1" />
      <path
         sodipodi:nodetypes="cccssccscsscc"
         inkscape:connector-curvature="0"
         id="path4865"
         d="m 287.81582,119.4554 4.28701,1.51663 4.40833,1.35486 c 0,0 -2.03759,0.61797 -2.93214,1.17285 -0.29208,0.18117 -0.70516,0.60748 -0.72799,0.95042 -0.13124,1.97175 -0.12134,4.77233 -0.12134,4.77233 l -1.65817,-4.0039 c 0,0 -1.21382,1.41847 -1.79973,2.02217 -0.59389,0.61192 -1.71885,1.59752 -1.71885,1.59752 0,0 1.72906,-3.43539 2.04239,-5.29809 0.0571,-0.33927 0.0342,-0.7613 -0.0607,-1.09198 -0.32573,-1.13469 -1.71879,-2.99281 -1.71879,-2.99281 z"
         style="fill:#ffffff;fill-opacity:1;stroke:#000000;stroke-width:0.465;stroke-linecap:butt;stroke-linejoin:miter;stroke-miterlimit:4;stroke-dasharray:none;stroke-opacity:1" />
      <path
         sodipodi:nodetypes="aaaaaaaaa"
         inkscape:connector-curvature="0"
         id="path4863"
         d="m 290.9502,120.04183 c -0.006,-0.25792 0.0788,-0.54727 0.26289,-0.72798 0.25407,-0.24933 0.65522,-0.35267 1.01108,-0.34377 0.45672,0.0114 0.94371,0.18985 1.27396,0.50554 0.21373,0.2043 0.36881,0.51324 0.36399,0.80887 -0.006,0.36773 -0.19809,0.76117 -0.48532,0.99086 -0.22728,0.18175 -0.55904,0.22312 -0.84931,0.20222 -0.41948,-0.0302 -0.87291,-0.17029 -1.17285,-0.4651 -0.24998,-0.2457 -0.39599,-0.62023 -0.40444,-0.97064 z"
         style="fill:#ffffff;fill-opacity:1;stroke:#000000;stroke-width:0.465;stroke-linecap:butt;stroke-linejoin:miter;stroke-miterlimit:4;stroke-dasharray:none;stroke-opacity:1" />
      <path
         sodipodi:nodetypes="aaaaaaacccaa"
         inkscape:connector-curvature="0"
         id="path4867"
         d="m 275.76369,116.64457 c -0.46866,-0.65372 -0.73126,-1.55846 -0.56623,-2.34571 0.16679,-0.79564 0.81478,-1.46866 1.4762,-1.94128 1.11516,-0.79684 2.53234,-1.31458 3.90278,-1.2942 0.98294,0.0146 2.07286,0.31839 2.7704,1.01108 0.60233,0.59816 0.98079,1.54218 0.88974,2.38617 -0.0868,0.80493 -0.72372,1.48875 -1.31442,2.0424 -0.40507,0.37966 -1.45595,0.80887 -1.45595,0.80887 l -0.28312,1.79973 -1.09198,-1.33463 c 0,0 -1.47164,0.39003 -2.18392,0.22243 -0.8228,-0.19359 -1.651,-0.6679 -2.1435,-1.35486 z"
         style="fill:#ffffff;fill-opacity:1;stroke:#000000;stroke-width:0.465;stroke-linecap:butt;stroke-linejoin:miter;stroke-miterlimit:4;stroke-dasharray:none;stroke-opacity:1" />
      <path
         inkscape:connector-curvature="0"
         id="path4869"
         d="m 299.84776,111.22516 -2.02218,2.70971 2.58839,0.64709 -2.42662,1.25375 0.70776,2.00195 -2.12328,-0.68754 -0.12132,2.91193 -2.06264,-2.38616 -1.69862,0.76842 v -1.47618 l -3.17479,-0.182 2.10304,-1.57729 -1.94127,-1.27397 2.64903,-0.70776 0.0405,-1.96151 1.69862,1.41552 2.06261,-2.24461 0.32356,2.30528 z"
         style="fill:#ffffff;fill-opacity:1;stroke:#000000;stroke-width:0.465;stroke-linecap:butt;stroke-linejoin:miter;stroke-miterlimit:4;stroke-dasharray:none;stroke-opacity:1" />
      <path
         sodipodi:nodetypes="cssac"
         inkscape:connector-curvature="0"
         id="path4871"
         d="m 278.9587,113.22711 c 0,0 0.41198,-0.41513 0.88977,-0.34377 0.35281,0.0527 0.73123,0.31843 0.6673,0.76842 -0.0728,0.51227 -0.58724,0.6008 -0.6673,0.99087 -0.0487,0.23721 0.13563,0.71368 0.13563,0.71368"
         style="fill:none;stroke:#000000;stroke-width:0.565;stroke-linecap:round;stroke-linejoin:miter;stroke-miterlimit:4;stroke-dasharray:none;stroke-opacity:1" />
      <path
         inkscape:connector-curvature="0"
         id="path4878"
         d="m 295.23721,113.5911 -0.76842,1.71885"
         style="fill:none;stroke:#000000;stroke-width:0.565;stroke-linecap:round;stroke-linejoin:miter;stroke-miterlimit:4;stroke-dasharray:none;stroke-opacity:1" />
      <circle
         r="0.33365846"
         cy="116.14915"
         cx="294.07446"
         id="path4880"
         style="opacity:1;fill:#000000;fill-opacity:1;stroke:none;stroke-width:0.39346153;stroke-linecap:round;stroke-miterlimit:4;stroke-dasharray:none;stroke-opacity:1" />
      <circle
         r="0.33365846"
         cy="116.32103"
         cx="280.31357"
         id="path4880-5"
         style="opacity:1;fill:#000000;fill-opacity:1;stroke:none;stroke-width:0.39346153;stroke-linecap:round;stroke-miterlimit:4;stroke-dasharray:none;stroke-opacity:1" />
    </g>
  </g>
</svg>
