<?xml version="1.0" encoding="UTF-8" standalone="no"?>
<svg
   xmlns:dc="http://purl.org/dc/elements/1.1/"
   xmlns:cc="http://creativecommons.org/ns#"
   xmlns:rdf="http://www.w3.org/1999/02/22-rdf-syntax-ns#"
   xmlns:svg="http://www.w3.org/2000/svg"
   xmlns="http://www.w3.org/2000/svg"
   xmlns:sodipodi="http://sodipodi.sourceforge.net/DTD/sodipodi-0.dtd"
   xmlns:inkscape="http://www.inkscape.org/namespaces/inkscape"
   width="27.14352mm"
   height="41.356667mm"
   viewBox="0 0 27.14352 41.356667"
   version="1.1"
   id="svg8"
   inkscape:version="0.92.0 r15299"
   sodipodi:docname="discovery-and-action-dialog.svg">
  <metadata
     id="metadata12">
    <rdf:RDF>
      <cc:Work
         rdf:about="">
        <dc:format>image/svg+xml</dc:format>
        <dc:type
           rdf:resource="http://purl.org/dc/dcmitype/StillImage" />
        <dc:title />
      </cc:Work>
    </rdf:RDF>
  </metadata>
  <defs
     id="defs10" />
  <sodipodi:namedview
     pagecolor="#ffffff"
     bordercolor="#666666"
     borderopacity="1"
     objecttolerance="10"
     gridtolerance="10"
     guidetolerance="10"
     inkscape:pageopacity="0"
     inkscape:pageshadow="2"
     inkscape:window-width="756"
     inkscape:window-height="480"
     id="namedview8"
     showgrid="false"
     fit-margin-top="0"
     fit-margin-left="0"
     fit-margin-right="0"
     fit-margin-bottom="0"
     inkscape:zoom="0.22137888"
     inkscape:cx="110.0357"
     inkscape:cy="23.401266"
     inkscape:window-x="252"
     inkscape:window-y="23"
     inkscape:window-maximized="0"
     inkscape:current-layer="layer13" />
  <g
     inkscape:groupmode="layer"
     id="layer13"
     inkscape:label="dad"
     sodipodi:insensitive="true"
     transform="translate(-135.22098,-35.429529)">
    <g
       id="g4728">
      <path
         sodipodi:nodetypes="caaaaaaaaaaaaaaaaaaaaaaaaaac"
         inkscape:connector-curvature="0"
         id="path4719"
         d="m 139.37872,58.066587 c 0,0 3.82746,-3.722216 6.18936,-4.866444 2.66765,-1.292347 5.68297,-2.15463 8.6462,-2.078868 1.72365,0.04407 3.62416,0.37566 4.96094,1.464657 1.01058,0.823256 1.62339,2.16414 1.84264,3.449031 0.20906,1.225167 -0.005,2.576613 -0.56697,3.68527 -0.54365,1.072831 -1.59116,1.82707 -2.55134,2.551338 -1.16504,0.878792 -2.43872,1.676407 -3.82701,2.126117 -1.509,0.488811 -3.19143,0.973301 -4.7247,0.566962 -1.02304,-0.27112 -2.48545,-0.83358 -2.55134,-1.889879 -0.0596,-0.956117 1.21468,-1.570988 2.07887,-1.984375 1.2036,-0.575741 2.64758,-0.705843 3.96875,-0.519718 1.17336,0.165302 2.41076,0.591076 3.26004,1.41741 0.77261,0.751735 1.30609,1.853248 1.37017,2.929316 0.0927,1.556078 -0.42745,3.277541 -1.46466,4.441222 -0.77361,0.867931 -2.00292,1.457279 -3.16555,1.464656 -1.31121,0.0083 -3.55514,-0.295643 -3.59077,-1.606399 -0.0337,-1.23922 2.07759,-1.543898 3.30729,-1.700892 1.42505,-0.181934 2.95779,0.23193 4.20498,0.94494 0.89958,0.514283 1.61992,1.363707 2.12612,2.267858 0.49461,0.883445 1.02101,1.940543 0.8032,2.929316 -0.19955,0.90587 -0.95727,1.728643 -1.79539,2.126115 -0.88237,0.418458 -2.01865,0.399924 -2.92931,0.04725 -0.6857,-0.265555 -1.54814,-0.778886 -1.6064,-1.511903 -0.0551,-0.693982 0.684,-1.286792 1.27567,-1.653646 0.91215,-0.565565 2.0876,-0.707356 3.15793,-0.628049 1.02619,0.07604 2.13919,0.355511 2.9059,1.041809 0.55179,0.49392 0.97597,1.995838 0.97597,1.995838"
         style="fill:none;fill-opacity:1;stroke:#000000;stroke-width:1.36500001;stroke-linecap:round;stroke-linejoin:miter;stroke-miterlimit:4;stroke-dasharray:none;stroke-opacity:1" />
      <path
         sodipodi:nodetypes="cacacaaaacacaacacaaaacc"
         inkscape:connector-curvature="0"
         id="path4721"
         d="m 151.33222,63.263758 c 0,0 0.25777,-3.453864 0.11357,-5.172361 -0.12754,-1.519996 -0.86142,-4.494198 -0.86142,-4.494198 0,0 2.01867,2.456104 3.16268,3.554499 1.09991,1.056048 3.53829,2.899264 3.53829,2.899264 0,0 -0.93367,-3.421247 -1.59829,-5.060672 -0.39246,-0.968072 -0.86671,-1.905824 -1.40357,-2.801905 -0.67976,-1.134574 -1.69692,-2.058189 -2.28981,-3.240474 -0.61619,-1.228743 -1.03551,-2.568055 -1.27567,-3.921504 -0.55929,-3.151881 -0.35267,-9.596878 -0.35267,-9.596878 0,0 -1.79219,2.223401 -2.31511,3.52969 -0.47252,1.180408 -0.68675,3.752084 -0.68675,3.752084 0,0 -1.03737,-0.196773 -1.5391,-0.0859 -0.59493,0.131472 -1.16789,0.444437 -1.61213,0.861419 -0.39949,0.374977 -0.86477,1.397843 -0.86477,1.397843 0,0 -2.54275,-1.533187 -3.89145,-2.145688 -1.36764,-0.621104 -4.23504,-1.53958 -4.23504,-1.53958 0,0 2.42158,2.377963 3.69673,3.496278 1.20161,1.053818 2.57346,1.911404 3.72105,3.023809 1.0021,0.971381 2.00528,1.979175 2.74033,3.165552 1.3552,2.187301 1.84449,4.811657 2.97656,7.122345 0.88588,1.808201 2.97657,5.256374 2.97657,5.256374 z"
         style="fill:#000000;fill-opacity:1;stroke:none;stroke-width:0.26458332px;stroke-linecap:butt;stroke-linejoin:miter;stroke-opacity:1" />
      <path
         sodipodi:nodetypes="aaaaaaaaa"
         inkscape:connector-curvature="0"
         id="path4723"
         d="m 144.45919,44.267792 c 0.26624,-0.478909 0.77469,-0.856645 1.30293,-1.002261 0.50269,-0.138574 1.09882,-0.07154 1.5535,0.183748 0.40113,0.225229 0.73083,0.64197 0.85193,1.085783 0.13308,0.487735 0.0482,1.063227 -0.20046,1.50339 -0.26308,0.465616 -0.74155,0.845402 -1.25283,1.002261 -0.46992,0.144171 -1.03495,0.111883 -1.46998,-0.116932 -0.43793,-0.230335 -0.79346,-0.678599 -0.93544,-1.1526 -0.14452,-0.482449 -0.0944,-1.063208 0.15035,-1.503389 z"
         style="fill:#fffffa;fill-opacity:1;stroke:none;stroke-width:0.26458332px;stroke-linecap:butt;stroke-linejoin:miter;stroke-opacity:1" />
    </g>
  </g>
</svg>
