<?xml version="1.0" encoding="UTF-8" standalone="no"?>
<svg
   xmlns:dc="http://purl.org/dc/elements/1.1/"
   xmlns:cc="http://creativecommons.org/ns#"
   xmlns:rdf="http://www.w3.org/1999/02/22-rdf-syntax-ns#"
   xmlns:svg="http://www.w3.org/2000/svg"
   xmlns="http://www.w3.org/2000/svg"
   xmlns:sodipodi="http://sodipodi.sourceforge.net/DTD/sodipodi-0.dtd"
   xmlns:inkscape="http://www.inkscape.org/namespaces/inkscape"
   width="50.491833mm"
   height="38.152229mm"
   viewBox="0 0 50.491832 38.15223"
   version="1.1"
   id="svg8"
   inkscape:version="0.92.0 r15299"
   sodipodi:docname="drawing-together.svg">
  <metadata
     id="metadata16">
    <rdf:RDF>
      <cc:Work
         rdf:about="">
        <dc:format>image/svg+xml</dc:format>
        <dc:type
           rdf:resource="http://purl.org/dc/dcmitype/StillImage" />
        <dc:title></dc:title>
      </cc:Work>
    </rdf:RDF>
  </metadata>
  <defs
     id="defs14" />
  <sodipodi:namedview
     pagecolor="#ffffff"
     bordercolor="#666666"
     borderopacity="1"
     objecttolerance="10"
     gridtolerance="10"
     guidetolerance="10"
     inkscape:pageopacity="0"
     inkscape:pageshadow="2"
     inkscape:window-width="1159"
     inkscape:window-height="476"
     id="namedview12"
     showgrid="false"
     fit-margin-top="0"
     fit-margin-left="0"
     fit-margin-right="0"
     fit-margin-bottom="0"
     inkscape:zoom="0.22201139"
     inkscape:cx="-399.68519"
     inkscape:cy="35.991628"
     inkscape:window-x="0"
     inkscape:window-y="0"
     inkscape:window-maximized="0"
     inkscape:current-layer="layer21" />
  <g
     inkscape:groupmode="layer"
     id="layer21"
     inkscape:label="drawingtogether"
     sodipodi:insensitive="true"
     transform="translate(-242.80194,-62.361213)">
    <g
       id="g1064">
      <path
         sodipodi:nodetypes="caasssaaaaassscc"
         inkscape:connector-curvature="0"
         id="path1043"
         d="m 281.54601,74.394682 c 2.12826,-0.914622 5.03236,1.73027 7.14748,0.614687 1.2488,-0.658658 2.28088,-2.289629 2.08359,-3.68763 -0.41014,-2.906282 -3.61573,-4.945065 -6.28385,-6.168099 -5.34805,-2.451481 -14.79285,-3.836972 -23.21553,-1.830359 -6.34178,1.510858 -11.79076,4.162128 -16.33968,10.429317 -1.56558,2.156953 -2.26481,5.225622 -2.11667,7.970573 0.18525,3.432485 1.53144,6.960477 3.70417,9.624218 3.17775,3.895879 7.86967,6.741713 12.7,8.135938 5.46559,1.577583 11.53283,1.190473 17.06562,-0.132292 4.67042,-1.116595 9.46543,-3.058461 12.89844,-6.416146 2.10111,-2.055011 4.01517,-4.867457 4.10104,-7.805208 0.0394,-1.349734 -0.27477,-3.96768 -1.84405,-5.220819 -1.57243,-1.255647 -3.45519,-1.385572 -5.5629,-1.218713 -1.69741,0.134377 -4.37948,0.715227 -5.49757,-0.432986 -0.79638,-1.272936 0.0269,-3.340672 1.15991,-3.862481 z"
         style="fill:#000000;fill-opacity:1;stroke:none;stroke-width:0.26458332px;stroke-linecap:butt;stroke-linejoin:miter;stroke-opacity:1" />
      <circle
         r="4.1627226"
         cy="74.034935"
         cx="255.89053"
         id="path1045"
         style="fill:#ffffff;fill-opacity:1;stroke:none;stroke-width:0.60000002;stroke-linecap:round;stroke-miterlimit:4;stroke-dasharray:none;stroke-opacity:1" />
      <rect
         y="87.552094"
         x="266.69489"
         height="7.2964578"
         width="7.2964578"
         id="rect1047"
         style="fill:#ffffff;fill-opacity:1;stroke:none;stroke-width:0.60000002;stroke-linecap:round;stroke-miterlimit:4;stroke-dasharray:none;stroke-opacity:1" />
      <path
         sodipodi:nodetypes="cccc"
         inkscape:connector-curvature="0"
         id="path1049"
         d="m 278.23386,90.240812 4,-7 4,7 z"
         style="fill:#ffffff;fill-opacity:1;stroke:none;stroke-width:0.26458332px;stroke-linecap:butt;stroke-linejoin:miter;stroke-opacity:1" />
      <path
         sodipodi:nodetypes="saaaaaaaaaaaacaaaaaaaaaaaass"
         inkscape:connector-curvature="0"
         id="path1051"
         d="m 260.59113,84.465127 c -1.00617,-0.900277 -2.71695,-1.599013 -4.18611,-1.449935 -1.68654,0.171136 -3.56152,1.107605 -4.3732,2.595854 -0.81796,1.499769 -0.79822,3.726014 0.18709,5.121552 0.91423,1.294866 2.83501,1.774048 4.41997,1.753958 1.15246,-0.01461 2.45038,-0.4646 3.18051,-1.356395 0.82709,-1.010232 1.2884,-2.626463 0.79512,-3.835318 -0.46478,-1.13903 -1.83587,-1.979374 -3.06357,-2.057974 -1.28726,-0.08241 -2.89926,0.569488 -3.46114,1.730571 -0.39891,0.824331 -0.10136,2.057268 0.56126,2.689399 0.71402,0.681163 2.00308,0.824184 2.92326,0.46772 0.6414,-0.24847 1.32747,-0.927024 1.28624,-1.613638 -0.0439,-0.731819 -0.84143,-1.437532 -1.56687,-1.543481 -0.42788,-0.06249 -1.14592,0.608036 -1.14592,0.608036 0,0 1.20908,0.392157 1.28624,0.912059 0.0579,0.39022 -0.33082,0.918859 -0.72497,0.935442 -0.65594,0.0276 -1.19009,-0.809155 -1.33301,-1.449935 -0.12452,-0.558273 0.0759,-1.2699 0.51449,-1.637028 0.47008,-0.39346 1.2576,-0.468048 1.82412,-0.233859 0.72915,0.301415 1.23203,1.112585 1.44994,1.870887 0.21637,0.752952 0.12901,1.644288 -0.23386,2.338607 -0.29451,0.563518 -0.82907,1.102307 -1.44994,1.239462 -1.07486,0.237446 -2.33629,-0.182271 -3.18051,-0.88867 -0.77009,-0.644372 -1.22752,-1.712028 -1.30962,-2.712786 -0.0791,-0.963702 0.18449,-2.052885 0.81851,-2.782945 0.61762,-0.711167 1.63129,-1.132097 2.57247,-1.169303 1.1433,-0.0452 2.35095,0.693376 3.22728,1.169305 0.35357,0.192022 1.28207,-0.433297 0.98222,-0.701585 z"
         style="fill:#ffffff;fill-opacity:1;stroke:none;stroke-width:0.26458332px;stroke-linecap:butt;stroke-linejoin:miter;stroke-opacity:1" />
      <path
         sodipodi:nodetypes="caaaaaaaac"
         inkscape:connector-curvature="0"
         id="path1053"
         d="m 269.08027,67.229584 c -0.1364,-0.348518 -0.14695,-0.789238 0.0233,-1.122531 0.2,-0.39154 0.62823,-0.679383 1.05238,-0.795126 0.46175,-0.126003 0.98807,-0.02821 1.42655,0.163707 0.33927,0.148498 0.67097,0.396433 0.84192,0.724968 0.21696,0.416985 0.26548,0.950096 0.14027,1.403165 -0.0905,0.3276 -0.30887,0.657211 -0.60804,0.81851 -0.4811,0.259386 -1.12813,0.292947 -1.63703,0.09355 -0.55435,-0.21721 -1.02236,-0.7318 -1.23935,-1.286242 z"
         style="fill:#ffffff;fill-opacity:1;stroke:none;stroke-width:0.26458332px;stroke-linecap:butt;stroke-linejoin:miter;stroke-opacity:1" />
      <path
         sodipodi:nodetypes="cccccccccaac"
         inkscape:connector-curvature="0"
         id="path1055"
         d="m 268.6827,68.2118 -4.58366,0.514495 4.13932,2.432151 -2.05795,7.062599 4.49011,-4.560287 2.31524,5.028007 0.67818,-7.881109 4.3966,-2.432153 -4.95786,-0.35079 c 0,0 -0.74192,0.723603 -1.21606,0.888669 -0.56731,0.1975 -1.21612,0.208246 -1.80074,0.07016 -0.5195,-0.122707 -1.40318,-0.771742 -1.40318,-0.771742 z"
         style="fill:#ffffff;fill-opacity:1;stroke:none;stroke-width:0.26458332px;stroke-linecap:butt;stroke-linejoin:miter;stroke-opacity:1" />
    </g>
  </g>
</svg>
