<?xml version="1.0" encoding="UTF-8" standalone="no"?>
<svg
   xmlns:dc="http://purl.org/dc/elements/1.1/"
   xmlns:cc="http://creativecommons.org/ns#"
   xmlns:rdf="http://www.w3.org/1999/02/22-rdf-syntax-ns#"
   xmlns:svg="http://www.w3.org/2000/svg"
   xmlns="http://www.w3.org/2000/svg"
   xmlns:sodipodi="http://sodipodi.sourceforge.net/DTD/sodipodi-0.dtd"
   xmlns:inkscape="http://www.inkscape.org/namespaces/inkscape"
   width="38.286175mm"
   height="19.829929mm"
   viewBox="0 0 38.286174 19.829929"
   version="1.1"
   id="svg8"
   inkscape:version="0.92.0 r15299"
   sodipodi:docname="ecocycle.svg">
  <metadata
     id="metadata14">
    <rdf:RDF>
      <cc:Work
         rdf:about="">
        <dc:format>image/svg+xml</dc:format>
        <dc:type
           rdf:resource="http://purl.org/dc/dcmitype/StillImage" />
        <dc:title></dc:title>
      </cc:Work>
    </rdf:RDF>
  </metadata>
  <defs
     id="defs12" />
  <sodipodi:namedview
     pagecolor="#ffffff"
     bordercolor="#666666"
     borderopacity="1"
     objecttolerance="10"
     gridtolerance="10"
     guidetolerance="10"
     inkscape:pageopacity="0"
     inkscape:pageshadow="2"
     inkscape:window-width="756"
     inkscape:window-height="480"
     id="namedview10"
     showgrid="false"
     fit-margin-top="0"
     fit-margin-left="0"
     fit-margin-right="0"
     fit-margin-bottom="0"
     inkscape:zoom="0.31307701"
     inkscape:cx="-130.90857"
     inkscape:cy="196.76321"
     inkscape:window-x="0"
     inkscape:window-y="0"
     inkscape:window-maximized="0"
     inkscape:current-layer="layer35" />
  <g
     inkscape:groupmode="layer"
     id="layer35"
     inkscape:label="ecocycle"
     sodipodi:insensitive="true"
     transform="translate(-375.61774,-110.819)">
    <g
       id="g4844">
      <path
         sodipodi:nodetypes="sacssscss"
         inkscape:connector-curvature="0"
         id="path4829"
         d="m 375.61855,120.79003 c 0.063,-3.65926 3.74923,-6.12078 6.89563,-6.6125 3.21673,-0.50271 7.4416,1.69862 8.77623,4.287 2.30528,-2.66927 6.42277,-7.75265 12.21391,-7.64381 5.54285,0.10417 10.33306,3.90199 10.39887,9.96871 0.062,5.70971 -3.84697,9.62815 -9.43517,9.83877 -5.45672,0.20567 -7.65517,-1.10089 -10.3419,-4.73862 -3.59497,2.67866 -6.41523,5.09319 -11.97593,3.81823 -3.64517,-0.83577 -6.58844,-5.61781 -6.53164,-8.91778 z"
         style="fill:#000000;fill-opacity:1;stroke:none;stroke-width:0.26458332px;stroke-linecap:butt;stroke-linejoin:miter;stroke-opacity:1" />
      <path
         sodipodi:nodetypes="cssscssac"
         inkscape:connector-curvature="0"
         id="path4831"
         d="m 376.60942,123.54019 c 1.57729,4.0039 4.76574,6.14368 8.66067,5.9199 5.0353,-0.2893 10.42262,-5.8675 12.92623,-8.07889 2.56217,-2.26312 5.44293,-4.79417 8.83672,-5.20481 2.48339,-0.30048 4.71341,0.45578 5.80538,1.48709 -1.43574,-4.14545 -5.78124,-6.37116 -9.60887,-6.29153 -4.70549,0.0979 -8.29106,3.64609 -11.1783,7.09574 -2.30807,2.75763 -4.50475,6.42647 -8.01087,7.23178 -2.51398,0.57742 -5.06502,0.63132 -7.43096,-2.15928 z"
         style="fill:#ffffff;fill-opacity:1;stroke:none;stroke-width:0.26458332px;stroke-linecap:butt;stroke-linejoin:miter;stroke-opacity:1" />
      <path
         sodipodi:nodetypes="cacaac"
         inkscape:connector-curvature="0"
         id="path4833"
         d="m 379.64268,124.95571 c 2.00195,0.76843 3.88394,0.32133 5.60142,-0.42466 1.78958,-0.7773 3.0737,-2.30528 4.30723,-3.96346 -0.99086,-0.78865 -3.10743,-1.44534 -4.7521,-1.35485 -1.74477,0.096 -3.82121,0.57163 -4.85322,1.98173 -0.74287,1.01501 -0.76843,2.36594 -0.30333,3.76124 z"
         style="fill:#ffffff;fill-opacity:1;stroke:none;stroke-width:0.26458332px;stroke-linecap:butt;stroke-linejoin:miter;stroke-opacity:1" />
      <path
         sodipodi:nodetypes="cscscsc"
         inkscape:connector-curvature="0"
         id="path4835"
         d="m 396.07211,124.27878 c 0,0 2.25237,1.42275 3.38786,1.97112 1.1288,0.54515 2.25474,0.89987 3.58937,1.16275 1.57729,-0.52576 3.15251,-1.8294 3.42758,-4.11512 0.26606,-2.21087 -0.0506,-4.01995 -1.0313,-5.88453 -1.84018,0.60665 -3.17996,1.57491 -5.01499,2.99282 -1.52806,1.18071 -4.35852,3.87296 -4.35852,3.87296 z"
         style="fill:#ffffff;fill-opacity:1;stroke:none;stroke-width:0.26458332px;stroke-linecap:butt;stroke-linejoin:miter;stroke-opacity:1" />
      <path
         sodipodi:nodetypes="ccscsc"
         inkscape:connector-curvature="0"
         id="path4837"
         d="m 394.70664,125.44696 0.891,-0.78151 c 1.85886,1.11532 4.29747,2.79506 7.4563,3.24263 2.8174,0.3992 5.20248,0.44488 8.43796,-1.29419 -2.72993,2.99282 -5.78181,3.65221 -9.80752,3.31636 -2.7465,-0.22913 -4.77357,-1.3287 -6.97774,-4.48329 z"
         style="fill:#ffffff;fill-opacity:1;stroke:none;stroke-width:0.26458332px;stroke-linecap:butt;stroke-linejoin:miter;stroke-opacity:1" />
    </g>
  </g>
</svg>
