<?xml version="1.0" encoding="UTF-8" standalone="no"?>
<svg
   xmlns:dc="http://purl.org/dc/elements/1.1/"
   xmlns:cc="http://creativecommons.org/ns#"
   xmlns:rdf="http://www.w3.org/1999/02/22-rdf-syntax-ns#"
   xmlns:svg="http://www.w3.org/2000/svg"
   xmlns="http://www.w3.org/2000/svg"
   xmlns:sodipodi="http://sodipodi.sourceforge.net/DTD/sodipodi-0.dtd"
   xmlns:inkscape="http://www.inkscape.org/namespaces/inkscape"
   width="27.733418mm"
   height="31.647289mm"
   viewBox="0 0 27.733417 31.64729"
   version="1.1"
   id="svg8"
   inkscape:version="0.92.0 r15299"
   sodipodi:docname="generative-relationships.svg">
  <metadata
     id="metadata11746">
    <rdf:RDF>
      <cc:Work
         rdf:about="">
        <dc:format>image/svg+xml</dc:format>
        <dc:type
           rdf:resource="http://purl.org/dc/dcmitype/StillImage" />
      </cc:Work>
    </rdf:RDF>
  </metadata>
  <defs
     id="defs11744" />
  <sodipodi:namedview
     pagecolor="#ffffff"
     bordercolor="#666666"
     borderopacity="1"
     objecttolerance="10"
     gridtolerance="10"
     guidetolerance="10"
     inkscape:pageopacity="0"
     inkscape:pageshadow="2"
     inkscape:window-width="640"
     inkscape:window-height="480"
     id="namedview11742"
     showgrid="false"
     inkscape:zoom="0.23908919"
     inkscape:cx="-432.55082"
     inkscape:cy="35.878889"
     inkscape:window-x="0"
     inkscape:window-y="0"
     inkscape:window-maximized="0"
     inkscape:current-layer="layer34" />
  <g
     inkscape:groupmode="layer"
     id="layer34"
     inkscape:label="generativerelationship"
     sodipodi:insensitive="true"
     transform="translate(-323.59885,-96.246704)">
    <g
       id="g4966">
      <path
         inkscape:connector-curvature="0"
         id="path4914"
         d="m 326.7022,112.1958 6.91584,-1.81996 -2.66927,-4.40833 4.32744,2.70971 1.81997,-7.0776 1.81996,7.0776 4.16565,-2.50749 -2.46703,4.20611 7.03715,1.81996 -7.11806,1.77951 2.54794,4.16568 -4.20611,-2.34572 -1.69862,6.71361 -1.86039,-6.7945 -4.24657,2.50749 2.54794,-4.287 z"
         style="fill:#000000;fill-opacity:1;stroke:none;stroke-width:0.26458332px;stroke-linecap:butt;stroke-linejoin:miter;stroke-opacity:1" />
      <path
         sodipodi:nodetypes="ccacc"
         inkscape:connector-curvature="0"
         id="path4916"
         d="m 329.53325,112.15536 4.12522,-1.05153 c 0,0 -0.17713,0.61429 -0.18198,0.93019 -0.006,0.41662 0.20222,1.23353 0.20222,1.23353 z"
         style="fill:#ffffff;fill-opacity:1;stroke:none;stroke-width:0.26458332px;stroke-linecap:butt;stroke-linejoin:miter;stroke-opacity:1" />
      <path
         sodipodi:nodetypes="caccc"
         inkscape:connector-curvature="0"
         id="path4918"
         d="m 336.02443,115.53239 c 0,0 0.73652,0.18414 1.11217,0.18199 0.39008,-0.002 1.15266,-0.20222 1.15266,-0.20222 l -1.1122,4.34767 z"
         style="fill:#ffffff;fill-opacity:1;stroke:none;stroke-width:0.26458332px;stroke-linecap:butt;stroke-linejoin:miter;stroke-opacity:1" />
      <path
         sodipodi:nodetypes="cccac"
         inkscape:connector-curvature="0"
         id="path4920"
         d="m 340.49343,111.18471 4.30723,0.99087 -4.26681,1.03131 c 0,0 0.19318,-0.70956 0.18201,-1.07175 -0.01,-0.32522 -0.22243,-0.95043 -0.22243,-0.95043 z"
         style="fill:#ffffff;fill-opacity:1;stroke:none;stroke-width:0.26458332px;stroke-linecap:butt;stroke-linejoin:miter;stroke-opacity:1" />
      <path
         sodipodi:nodetypes="cccac"
         inkscape:connector-curvature="0"
         id="path4922"
         d="m 336.04464,108.67722 1.05154,-3.96346 0.99086,3.98368 c 0,0 -0.6946,-0.20073 -1.05153,-0.20222 -0.33581,-0.001 -0.99087,0.182 -0.99087,0.182 z"
         style="fill:#ffffff;fill-opacity:1;stroke:none;stroke-width:0.26458332px;stroke-linecap:butt;stroke-linejoin:miter;stroke-opacity:1" />
      <circle
         r="2.8725784"
         cy="112.11491"
         cx="337.07593"
         id="path4924"
         style="opacity:1;fill:#ffffff;fill-opacity:1;stroke:none;stroke-width:0.06281302;stroke-linecap:round;stroke-miterlimit:4;stroke-dasharray:none;stroke-opacity:1" />
      <circle
         r="2.0424526"
         cy="112.12502"
         cx="337.06586"
         id="path4924-1"
         style="opacity:1;fill:#000000;fill-opacity:1;stroke:none;stroke-width:0.045;stroke-linecap:round;stroke-miterlimit:4;stroke-dasharray:none;stroke-opacity:1" />
      <path
         id="path4941"
         transform="scale(0.26458333)"
         d="m 1273.2578,465.46484 -6.7558,17.40235 3.4589,-0.0547 1.1875,-3.1875 h 6 l 1.0801,3.13281 h 3.3516 l -6.8106,-17.29297 z m 0.2442,6.26758 1,0.0391 1.6738,4.98633 -4.2793,-0.0293 z"
         style="fill:#000000;fill-opacity:1;stroke:#000000;stroke-width:0.99999994px;stroke-linecap:butt;stroke-linejoin:miter;stroke-opacity:1"
         inkscape:connector-curvature="0" />
      <path
         sodipodi:nodetypes="ccccccccc"
         inkscape:connector-curvature="0"
         id="path4946"
         d="m 347.45,109.26365 h 3.88227 v 0.7482 h -1.47619 v 3.96346 h -0.95041 v -3.94323 H 347.45 Z"
         style="fill:#000000;fill-opacity:1;stroke:none;stroke-width:0.26458332px;stroke-linecap:butt;stroke-linejoin:miter;stroke-opacity:1" />
      <path
         id="path4948"
         transform="scale(0.26458333)"
         d="m 1223.0508,412.88086 v 17.83398 h 3.0801 v -6.91796 h 2.2695 l 4.4316,7.08007 h 3.5137 l -5.0098,-7.66797 c 2.5586,-1.10483 3.2529,-2.88258 3.2793,-5.08593 0.03,-2.38349 -2.006,-5.24219 -4.8632,-5.24219 z m 2.9726,3.18945 h 2.961 c 1.0343,0 2.1295,1.18149 2.1738,2.21485 0.045,1.05044 -0.9564,2.43359 -2.0078,2.43359 h -3.127 z"
         style="fill:#000000;fill-opacity:1;stroke:none;stroke-width:0.99999994px;stroke-linecap:butt;stroke-linejoin:miter;stroke-opacity:1"
         inkscape:connector-curvature="0" />
      <path
         sodipodi:nodetypes="csasssc"
         inkscape:connector-curvature="0"
         id="path4953"
         d="m 335.92452,100.61916 c 0,0 0.80415,0.34653 1.2297,0.34318 0.55296,-0.004 0.98921,-0.58668 0.98664,-1.07242 -0.003,-0.542873 -0.53364,-0.915654 -1.11533,-1.18681 -0.45276,-0.211051 -1.00786,-0.430449 -1.00092,-1.115316 0.007,-0.672407 0.45234,-0.935328 1.04381,-0.958028 0.31334,-0.01203 0.88654,0.314577 0.88654,0.314577"
         style="fill:none;stroke:#000000;stroke-width:0.76499999;stroke-linecap:butt;stroke-linejoin:miter;stroke-miterlimit:4;stroke-dasharray:none;stroke-opacity:1" />
    </g>
  </g>
</svg>
