<?xml version="1.0" encoding="UTF-8" standalone="no"?>
<svg
   xmlns:dc="http://purl.org/dc/elements/1.1/"
   xmlns:cc="http://creativecommons.org/ns#"
   xmlns:rdf="http://www.w3.org/1999/02/22-rdf-syntax-ns#"
   xmlns:svg="http://www.w3.org/2000/svg"
   xmlns="http://www.w3.org/2000/svg"
   xmlns:sodipodi="http://sodipodi.sourceforge.net/DTD/sodipodi-0.dtd"
   xmlns:inkscape="http://www.inkscape.org/namespaces/inkscape"
   width="36.318859mm"
   height="39.513897mm"
   viewBox="0 0 36.318859 39.513897"
   version="1.1"
   id="svg8"
   inkscape:version="0.92.0 r15299"
   sodipodi:docname="heard-seen-respected.svg">
  <metadata
     id="metadata12305">
    <rdf:RDF>
      <cc:Work
         rdf:about="">
        <dc:format>image/svg+xml</dc:format>
        <dc:type
           rdf:resource="http://purl.org/dc/dcmitype/StillImage" />
      </cc:Work>
    </rdf:RDF>
  </metadata>
  <defs
     id="defs12303" />
  <sodipodi:namedview
     pagecolor="#ffffff"
     bordercolor="#666666"
     borderopacity="1"
     objecttolerance="10"
     gridtolerance="10"
     guidetolerance="10"
     inkscape:pageopacity="0"
     inkscape:pageshadow="2"
     inkscape:window-width="640"
     inkscape:window-height="480"
     id="namedview12301"
     showgrid="false"
     inkscape:zoom="0.2340291"
     inkscape:cx="-123.81263"
     inkscape:cy="-258.85071"
     inkscape:window-x="0"
     inkscape:window-y="0"
     inkscape:window-maximized="0"
     inkscape:current-layer="layer18" />
  <g
     inkscape:groupmode="layer"
     id="layer18"
     inkscape:label="heardseenrespected"
     sodipodi:insensitive="true"
     transform="translate(-241.91187,-10.399559)">
    <g
       id="g5078">
      <path
         sodipodi:nodetypes="saasascsaasss"
         inkscape:connector-curvature="0"
         id="path5057"
         d="m 259.82083,49.675515 c 0,0 10.05467,-10.989987 14.22135,-17.131771 1.3959,-2.057598 2.91499,-4.150363 3.57188,-6.548436 0.65864,-2.404476 0.53788,-5.165946 0.26458,-7.474479 -0.31383,-2.650942 -1.99989,-5.056665 -4.16719,-6.383073 -2.44441,-1.496001 -5.73531,-1.729515 -8.54935,-0.909505 -2.79679,0.814982 -5.07669,4.249869 -5.07669,4.249869 0,0 -2.47576,-3.666864 -5.82816,-4.505253 -3.54263,-0.885961 -5.16712,-0.372666 -7.26871,0.867233 -2.37422,1.400745 -4.29322,4.009671 -4.82865,6.713801 -0.50171,2.533885 0.73686,5.0758 1.78594,7.540626 0.98858,2.322672 1.79691,3.763768 3.36942,6.102438 4.39585,6.537616 10.95437,14.01507 12.50558,17.47855 z"
         style="fill:#000005;fill-opacity:1;stroke:#000000;stroke-width:0.26458332px;stroke-linecap:butt;stroke-linejoin:miter;stroke-opacity:1" />
      <path
         sodipodi:nodetypes="saaasascaaaaas"
         inkscape:connector-curvature="0"
         id="path5059"
         d="m 259.91293,46.018408 c 0,0 6.62169,-7.482002 9.72293,-11.395386 1.73497,-2.18932 3.78055,-4.221646 4.96354,-6.752214 0.74783,-1.599717 1.28893,-3.379247 1.26283,-5.144939 -0.0354,-2.394069 -0.35033,-5.112214 -1.91765,-6.922281 -2.034,-2.349032 -3.84124,-2.592271 -6.03361,-2.619241 -1.95119,-0.024 -3.24298,0.09236 -5.42557,2.198292 -0.9919,0.957065 -2.40877,3.274051 -2.40877,3.274051 0,0 -2.11539,-2.668831 -3.5313,-3.554684 -1.63428,-1.022471 -3.54963,-2.010505 -5.47234,-1.870887 -1.9403,0.140896 -3.89069,1.219654 -5.19171,2.666013 -0.98364,1.093521 -1.57175,2.645242 -1.59025,4.115951 -0.0384,3.054754 1.66475,5.925708 3.08696,8.629466 3.32476,6.320677 9.30957,11.737637 12.53494,17.375859 z"
         style="fill:#ffffff;fill-opacity:1;stroke:#000000;stroke-width:0.26458332px;stroke-linecap:butt;stroke-linejoin:miter;stroke-opacity:1" />
      <path
         sodipodi:nodetypes="cacaaaaaaaaacacc"
         inkscape:connector-curvature="0"
         id="path5061"
         d="m 260.14679,38.020368 c 0,0 -0.063,-1.739799 -0.009,-2.607205 0.0399,-0.643605 0.24591,-1.918834 0.24591,-1.918834 0,0 -2.59666,7.8e-4 -3.73292,-0.53705 -1.26223,-0.597455 -2.44956,-1.587983 -3.09014,-2.828884 -0.65026,-1.259657 -0.85818,-2.84267 -0.52418,-4.220357 0.28941,-1.193802 1.08981,-2.314077 2.07853,-3.043028 1.14007,-0.840543 2.6494,-1.131011 4.06066,-1.251986 1.52055,-0.130345 3.11921,0.0298 4.54091,0.584652 1.28025,0.499642 2.54185,1.281856 3.36475,2.382543 0.7439,0.995014 1.18919,2.284552 1.20523,3.526799 0.0135,1.044675 -0.27018,2.186462 -0.93662,2.991069 -0.68578,0.827963 -2.84459,1.520095 -2.84459,1.520095 0,0 -1.09887,1.824803 -1.75964,2.656327 -0.78402,0.986623 -2.59869,2.745859 -2.59869,2.745859 z"
         style="fill:#000000;fill-opacity:1;stroke:#000000;stroke-width:0.26458332px;stroke-linecap:butt;stroke-linejoin:miter;stroke-opacity:1" />
      <path
         sodipodi:nodetypes="ccaaaaaaaaacac"
         inkscape:connector-curvature="0"
         id="path5063"
         d="m 261.08908,35.839098 0.32056,-3.220916 c 0,0 -3.1724,0.0443 -4.56029,-0.608039 -1.01845,-0.478694 -1.98552,-1.280426 -2.47892,-2.291836 -0.57619,-1.181112 -0.70324,-2.669587 -0.32741,-3.928861 0.27159,-0.909998 0.97269,-1.705189 1.75396,-2.245064 1.01421,-0.700839 2.30088,-1.022488 3.5313,-1.099146 1.36743,-0.08519 2.78428,0.190454 4.04579,0.724968 1.04382,0.442278 2.08169,1.079152 2.75956,1.987817 0.65157,0.873417 1.04161,1.997819 1.07577,3.086964 0.0236,0.752397 -0.14821,1.578907 -0.60804,2.174904 -0.65091,0.843661 -2.75957,1.613641 -2.75957,1.613641 0,0 -1.01399,1.618329 -1.58174,2.384893 -0.36525,0.493155 -1.17097,1.420675 -1.17097,1.420675 z"
         style="fill:#ffffff;fill-opacity:1;stroke:#000000;stroke-width:0.26458332px;stroke-linecap:butt;stroke-linejoin:miter;stroke-opacity:1" />
      <path
         inkscape:connector-curvature="0"
         id="path5065"
         d="m 256.61549,29.741693 c 0,0 1.73222,0.03047 2.59586,-0.02339 0.87724,-0.05471 1.74208,-0.248101 2.61924,-0.304017 0.66131,-0.04216 1.98782,-0.02339 1.98782,-0.02339"
         style="fill:none;stroke:#000000;stroke-width:0.96499997;stroke-linecap:round;stroke-linejoin:miter;stroke-miterlimit:4;stroke-dasharray:none;stroke-opacity:1"
         sodipodi:nodetypes="caac" />
      <path
         inkscape:connector-curvature="0"
         id="path5067"
         d="m 256.61549,27.683719 c 0,0 1.29535,0.0413 1.94105,0 0.85493,-0.05468 1.69382,-0.278209 2.54908,-0.327406 0.60708,-0.03492 1.82411,0.02339 1.82411,0.02339"
         style="fill:none;stroke:#000000;stroke-width:0.96499997;stroke-linecap:round;stroke-linejoin:miter;stroke-miterlimit:4;stroke-dasharray:none;stroke-opacity:1"
         sodipodi:nodetypes="caac" />
      <path
         inkscape:connector-curvature="0"
         id="path5069"
         d="m 256.63888,25.719287 c 0,0 1.49728,0.136392 2.24506,0.09354 0.85087,-0.04876 1.67637,-0.326936 2.5257,-0.397564 0.79243,-0.0659 2.38538,-0.02339 2.38538,-0.02339"
         style="fill:none;stroke:#000000;stroke-width:0.96499997;stroke-linecap:round;stroke-linejoin:miter;stroke-miterlimit:4;stroke-dasharray:none;stroke-opacity:1"
         sodipodi:nodetypes="caac" />
    </g>
  </g>
</svg>
