<?xml version="1.0" encoding="UTF-8" standalone="no"?>
<svg
   xmlns:dc="http://purl.org/dc/elements/1.1/"
   xmlns:cc="http://creativecommons.org/ns#"
   xmlns:rdf="http://www.w3.org/1999/02/22-rdf-syntax-ns#"
   xmlns:svg="http://www.w3.org/2000/svg"
   xmlns="http://www.w3.org/2000/svg"
   xmlns:sodipodi="http://sodipodi.sourceforge.net/DTD/sodipodi-0.dtd"
   xmlns:inkscape="http://www.inkscape.org/namespaces/inkscape"
   width="46.224834mm"
   height="34.55883mm"
   viewBox="0 0 46.224834 34.558831"
   version="1.1"
   id="svg8"
   inkscape:version="0.92.0 r15299"
   sodipodi:docname="improv-prototyping.svg">
  <metadata
     id="metadata13991">
    <rdf:RDF>
      <cc:Work
         rdf:about="">
        <dc:format>image/svg+xml</dc:format>
        <dc:type
           rdf:resource="http://purl.org/dc/dcmitype/StillImage" />
      </cc:Work>
    </rdf:RDF>
  </metadata>
  <defs
     id="defs13989" />
  <sodipodi:namedview
     pagecolor="#ffffff"
     bordercolor="#666666"
     borderopacity="1"
     objecttolerance="10"
     gridtolerance="10"
     guidetolerance="10"
     inkscape:pageopacity="0"
     inkscape:pageshadow="2"
     inkscape:window-width="640"
     inkscape:window-height="480"
     id="namedview13987"
     showgrid="false"
     inkscape:zoom="0.22707148"
     inkscape:cx="105.92233"
     inkscape:cy="-72.778082"
     inkscape:window-x="0"
     inkscape:window-y="0"
     inkscape:window-maximized="0"
     inkscape:current-layer="layer16" />
  <g
     inkscape:groupmode="layer"
     id="layer16"
     inkscape:label="improvprototyping"
     sodipodi:insensitive="true"
     transform="translate(-181.12784,-64.58634)">
    <g
       id="g5009">
      <path
         sodipodi:nodetypes="caaacaacaac"
         inkscape:connector-curvature="0"
         id="path4934-2"
         d="m 181.27112,75.565257 c 0,0 4.65867,-2.831534 7.2124,-3.726861 1.61951,-0.567791 3.33608,-0.895505 5.04841,-1.010067 1.94066,-0.129835 3.90684,0.0393 5.82311,0.372379 2.40629,0.41824 7.04108,2.027173 7.04108,2.027173 0,0 0.12977,5.766262 -0.39936,8.580055 -0.40121,2.133587 -0.99536,4.291552 -2.08118,6.171488 -2.44162,4.227298 -9.68218,10.988159 -9.68218,10.988159 0,0 -5.85468,-5.032477 -8.07086,-8.147182 -1.31596,-1.849489 -2.26382,-3.966078 -2.99958,-6.113402 -1.00826,-2.943943 -1.89184,-9.141742 -1.89184,-9.141742 z"
         style="fill:#000000;fill-opacity:1;stroke:#000000;stroke-width:0.26458332px;stroke-linecap:butt;stroke-linejoin:miter;stroke-opacity:1" />
      <path
         sodipodi:nodetypes="ccacssc"
         inkscape:connector-curvature="0"
         id="path4936-4"
         d="m 194.31831,97.939785 -0.24796,-26.272206 c 0,0 4.10203,0.138193 6.11561,0.4967 1.80634,0.321608 5.30282,1.475349 5.30282,1.475349 0,0 0.005,6.453146 -0.27848,7.914053 -0.71105,3.665162 -1.35671,5.170922 -2.94111,7.5799 -2.14881,3.267082 -7.95058,8.806201 -7.95058,8.806201 z"
         style="fill:#ffffff;fill-opacity:1;stroke:none;stroke-width:0.26458332px;stroke-linecap:butt;stroke-linejoin:miter;stroke-opacity:1" />
      <path
         sodipodi:nodetypes="caaacaacaac"
         inkscape:connector-curvature="0"
         id="path4934"
         d="m 202.83147,65.767851 c 0,0 5.32592,-1.164192 8.032,-1.181174 1.71612,-0.01077 3.44604,0.237052 5.10268,0.685081 1.87755,0.507773 3.68209,1.306593 5.38616,2.244233 2.13983,1.177405 6.00036,4.204984 6.00036,4.204984 0,0 -1.75085,5.495556 -3.16554,7.984748 -1.0727,1.887454 -2.33577,3.735281 -3.97351,5.160405 -3.68269,3.20459 -12.72713,7.245993 -12.72713,7.245993 0,0 -3.90185,-6.661742 -4.98575,-10.32753 -0.64361,-2.17672 -0.85231,-4.486445 -0.85044,-6.756323 0.003,-3.111813 1.18117,-9.260417 1.18117,-9.260417 z"
         style="fill:#000000;fill-opacity:1;stroke:none;stroke-width:0.26458332px;stroke-linecap:butt;stroke-linejoin:miter;stroke-opacity:1" />
      <path
         sodipodi:nodetypes="ccacssc"
         inkscape:connector-curvature="0"
         id="path4936"
         d="m 207.90074,91.16767 8.30164,-24.92735 c 0,0 3.83455,1.463533 5.62239,2.456847 1.60383,0.891078 4.53572,3.118303 4.53572,3.118303 0,0 -2.0921,6.104608 -2.83482,7.394159 -1.86336,3.235259 -2.96325,4.449524 -5.24442,6.212983 -3.09375,2.391623 -10.38051,5.745058 -10.38051,5.745058 z"
         style="fill:#ffffff;fill-opacity:1;stroke:none;stroke-width:0.26458332px;stroke-linecap:butt;stroke-linejoin:miter;stroke-opacity:1" />
      <path
         sodipodi:nodetypes="cccc"
         inkscape:connector-curvature="0"
         id="path4995"
         d="m 194.23263,89.070912 c 1.7828,0.02982 4.78294,-2.340674 4.78294,-2.340674 0,0 -0.67675,4.569551 -4.75962,4.678251 z"
         style="fill:#000000;fill-opacity:1;stroke:none;stroke-width:0.26458332px;stroke-linecap:butt;stroke-linejoin:miter;stroke-opacity:1" />
      <path
         sodipodi:nodetypes="cccc"
         inkscape:connector-curvature="0"
         id="path4956"
         d="m 194.25599,91.408489 c -3.95401,0.10527 -4.79526,-4.845295 -4.79526,-4.845295 0,0 2.98383,2.477806 4.77194,2.507718 z"
         style="fill:#ffffff;fill-opacity:1;stroke:none;stroke-width:0.26458332px;stroke-linecap:butt;stroke-linejoin:miter;stroke-opacity:1" />
      <path
         sodipodi:nodetypes="cccc"
         inkscape:connector-curvature="0"
         id="path4999"
         d="m 210.74755,82.611755 c -1.67449,-0.590263 -5.28974,0.696552 -5.28974,0.696552 0,0 2.11902,-4.096227 6.02329,-2.896924 z"
         style="fill:#ffffff;fill-opacity:1;stroke:none;stroke-width:0.26458332px;stroke-linecap:butt;stroke-linejoin:miter;stroke-opacity:1" />
      <path
         sodipodi:nodetypes="cccc"
         inkscape:connector-curvature="0"
         id="path4956-9"
         d="m 211.4811,80.411383 c 3.78104,1.161451 2.97919,6.102992 2.97919,6.102992 0,0 -2.01686,-3.304822 -3.71274,-3.90262 z"
         style="fill:#000007;fill-opacity:1;stroke:none;stroke-width:0.26458332px;stroke-linecap:butt;stroke-linejoin:miter;stroke-opacity:1" />
    </g>
  </g>
</svg>
