<?xml version="1.0" encoding="UTF-8" standalone="no"?>
<svg
   xmlns:dc="http://purl.org/dc/elements/1.1/"
   xmlns:cc="http://creativecommons.org/ns#"
   xmlns:rdf="http://www.w3.org/1999/02/22-rdf-syntax-ns#"
   xmlns:svg="http://www.w3.org/2000/svg"
   xmlns="http://www.w3.org/2000/svg"
   xmlns:sodipodi="http://sodipodi.sourceforge.net/DTD/sodipodi-0.dtd"
   xmlns:inkscape="http://www.inkscape.org/namespaces/inkscape"
   width="31.79961mm"
   height="41.124855mm"
   viewBox="0 0 31.79961 41.124855"
   version="1.1"
   id="svg8"
   inkscape:version="0.92.0 r15299"
   sodipodi:docname="integrated-autonomy.svg">
  <metadata
     id="metadata14547">
    <rdf:RDF>
      <cc:Work
         rdf:about="">
        <dc:format>image/svg+xml</dc:format>
        <dc:type
           rdf:resource="http://purl.org/dc/dcmitype/StillImage" />
      </cc:Work>
    </rdf:RDF>
  </metadata>
  <defs
     id="defs14545" />
  <sodipodi:namedview
     pagecolor="#ffffff"
     bordercolor="#666666"
     borderopacity="1"
     objecttolerance="10"
     gridtolerance="10"
     guidetolerance="10"
     inkscape:pageopacity="0"
     inkscape:pageshadow="2"
     inkscape:window-width="640"
     inkscape:window-height="480"
     id="namedview14543"
     showgrid="false"
     inkscape:zoom="0.23339659"
     inkscape:cx="-603.56253"
     inkscape:cy="-254.94249"
     inkscape:window-x="0"
     inkscape:window-y="0"
     inkscape:window-maximized="0"
     inkscape:current-layer="layer26" />
  <g
     inkscape:groupmode="layer"
     id="layer26"
     inkscape:label="integratedautonomy"
     sodipodi:insensitive="true"
     transform="translate(-368.8457,-9.8226507)">
    <g
       id="g4914">
      <path
         sodipodi:nodetypes="ccssscssssc"
         inkscape:connector-curvature="0"
         id="path4874"
         d="m 368.8457,16.089969 4.82865,-6.2673183 c 6.11698,0.2080183 8.89441,2.1638553 10.26913,3.5884113 2.08181,2.157276 2.58382,4.798496 1.19366,8.936134 -1.07144,3.18904 -5.20032,7.474811 -6.81605,9.402799 -1.75729,2.096914 -4.13411,5.589322 -3.67109,8.069791 -4.79557,-2.182813 -4.55154,-3.936323 -4.69636,-5.688542 -0.23482,-2.841071 2.08617,-5.459934 4.0349,-7.540625 1.96969,-2.103063 4.09515,-5.09494 4.23333,-6.879166 0.20203,-2.608638 -1.53252,-3.833545 -3.37344,-4.266406 -1.93839,-0.455781 -6.00273,0.644922 -6.00273,0.644922 z"
         style="fill:#000000;fill-opacity:1;stroke:none;stroke-width:0.26458332px;stroke-linecap:butt;stroke-linejoin:miter;stroke-opacity:1" />
      <path
         sodipodi:nodetypes="ccsssscasac"
         inkscape:connector-curvature="0"
         id="path4876"
         d="m 395.91822,50.785322 4.72709,-6.169963 c 0,0 -3.62218,0.959093 -5.73815,0.677995 -2.36559,-0.31426 -3.36599,-2.004248 -3.4892,-3.621485 -0.15951,-2.093694 2.81378,-6.274309 4.72943,-8.400521 2.13266,-2.36707 3.44887,-4.199287 3.43958,-6.713802 -0.012,-3.263141 -0.99219,-4.497915 -4.53099,-5.655467 0.26459,2.94349 -1.86246,5.035112 -3.20807,7.342186 -1.86846,3.203499 -5.71837,6.586504 -6.68073,8.896614 -1.15362,2.769227 -1.82155,6.290776 -0.26458,8.764323 2.13938,3.398808 4.74404,4.181439 11.01562,4.88012 z"
         style="fill:#000000;fill-opacity:1;stroke:none;stroke-width:0.26458332px;stroke-linecap:butt;stroke-linejoin:miter;stroke-opacity:1" />
      <circle
         r="3.7193851"
         cy="13.662384"
         cx="395.07849"
         id="path4878-5"
         style="opacity:1;fill:#000000;fill-opacity:1;stroke:none;stroke-width:0.51521152;stroke-linecap:round;stroke-miterlimit:4;stroke-dasharray:none;stroke-dashoffset:0;stroke-opacity:1" />
      <circle
         r="3.7193851"
         cy="47.228119"
         cx="374.55078"
         id="path4878-5-1"
         style="opacity:1;fill:#000000;fill-opacity:1;stroke:none;stroke-width:0.51521152;stroke-linecap:round;stroke-miterlimit:4;stroke-dasharray:none;stroke-dashoffset:0;stroke-opacity:1" />
    </g>
  </g>
</svg>
