<?xml version="1.0" encoding="UTF-8" standalone="no"?>
<svg
   xmlns:dc="http://purl.org/dc/elements/1.1/"
   xmlns:cc="http://creativecommons.org/ns#"
   xmlns:rdf="http://www.w3.org/1999/02/22-rdf-syntax-ns#"
   xmlns:svg="http://www.w3.org/2000/svg"
   xmlns="http://www.w3.org/2000/svg"
   xmlns:sodipodi="http://sodipodi.sourceforge.net/DTD/sodipodi-0.dtd"
   xmlns:inkscape="http://www.inkscape.org/namespaces/inkscape"
   width="54.903503mm"
   height="59.810707mm"
   viewBox="0 0 54.903503 59.810708"
   version="1.1"
   id="svg8"
   inkscape:version="0.92.0 r15299"
   sodipodi:docname="ls-menu.svg">
  <metadata
     id="metadata15109">
    <rdf:RDF>
      <cc:Work
         rdf:about="">
        <dc:format>image/svg+xml</dc:format>
        <dc:type
           rdf:resource="http://purl.org/dc/dcmitype/StillImage" />
      </cc:Work>
    </rdf:RDF>
  </metadata>
  <defs
     id="defs15107" />
  <sodipodi:namedview
     pagecolor="#ffffff"
     bordercolor="#666666"
     borderopacity="1"
     objecttolerance="10"
     gridtolerance="10"
     guidetolerance="10"
     inkscape:pageopacity="0"
     inkscape:pageshadow="2"
     inkscape:window-width="640"
     inkscape:window-height="480"
     id="namedview15105"
     showgrid="false"
     inkscape:zoom="0.22137888"
     inkscape:cx="780.32142"
     inkscape:cy="-204.30094"
     inkscape:window-x="0"
     inkscape:window-y="0"
     inkscape:window-maximized="0"
     inkscape:current-layer="layer9" />
  <g
     inkscape:groupmode="layer"
     id="layer9"
     inkscape:label="menu"
     sodipodi:insensitive="true"
     transform="translate(-2.6930802,-4.5357089)">
    <g
       id="g4578">
      <path
         sodipodi:nodetypes="ccaaccaaccccc"
         inkscape:connector-curvature="0"
         id="path4548"
         d="m 15.434815,33.276333 15.033911,-9.354434 c 0,0 1.604126,-4.039742 2.739511,-5.879929 1.073974,-1.740654 2.39234,-3.335208 3.808593,-4.810852 1.60755,-1.674963 5.278572,-4.5435818 5.278572,-4.5435818 L 55.592061,20.380578 c 0,0 -4.608004,2.388837 -6.548104,4.07586 -1.598876,1.39031 -2.959568,3.076764 -4.075858,4.87767 -1.050848,1.695328 -2.405428,5.479023 -2.405428,5.479023 L 45.101732,55.25925 26.125596,64.346415 11.158503,53.78927 Z"
         style="fill:#000000;fill-opacity:1;stroke:none;stroke-width:0.26458332px;stroke-linecap:butt;stroke-linejoin:miter;stroke-opacity:1" />
      <path
         sodipodi:nodetypes="caaccaacc"
         inkscape:connector-curvature="0"
         id="path4550"
         d="m 32.205977,24.65689 c 0,0 1.400918,-3.669484 2.405425,-5.34539 1.012308,-1.688922 2.262823,-3.239389 3.608139,-4.677217 1.218224,-1.301996 4.009043,-3.541321 4.009043,-3.541321 l 10.089425,8.886712 c 0,0 -3.182871,1.90023 -4.543581,3.140417 -1.58916,1.448403 -2.994021,3.126825 -4.142679,4.944485 -0.942368,1.491222 -2.204974,4.810853 -2.204974,4.810853 z"
         style="fill:#ffffff;fill-opacity:1;stroke:none;stroke-width:0.26458332px;stroke-linecap:butt;stroke-linejoin:miter;stroke-opacity:1" />
      <path
         inkscape:connector-curvature="0"
         id="path4552"
         d="m 17.10525,36.416749 9.822155,8.218538 -1.469983,16.102989 -11.358955,-7.483547 z"
         style="fill:#ffffff;fill-opacity:1;stroke:none;stroke-width:0.26458332px;stroke-linecap:butt;stroke-linejoin:miter;stroke-opacity:1" />
      <path
         inkscape:connector-curvature="0"
         id="path4554"
         d="m 28.798292,44.434836 11.893494,-7.750818 2.539058,17.372521 -15.568448,7.015823 z"
         style="fill:#ffffff;fill-opacity:1;stroke:none;stroke-width:0.26458332px;stroke-linecap:butt;stroke-linejoin:miter;stroke-opacity:1" />
      <path
         sodipodi:nodetypes="caaaaaaaaaaaaaaaaaaaaaaaaaaaaaaaaaaaaaaaaasasc"
         inkscape:connector-curvature="0"
         id="path4556"
         d="m 18.308222,33.592629 c -0.09154,0.711031 0.816526,2.27033 1.606398,3.141927 0.773001,0.85298 1.867853,1.368264 2.905692,1.866257 1.070896,0.513854 2.216274,0.887191 3.378162,1.133928 1.222505,0.259609 2.488559,0.474721 3.732515,0.354354 1.160644,-0.112306 2.305671,-0.482693 3.354538,-0.992188 0.955137,-0.463965 1.883212,-1.057912 2.598587,-1.842635 0.625118,-0.685716 1.301007,-1.486358 1.393788,-2.409597 0.10632,-1.057962 -0.334182,-2.20774 -1.015812,-3.023809 -0.743309,-0.889914 -1.946644,-1.31297 -3.047434,-1.677271 -1.267641,-0.41952 -2.634558,-0.596653 -3.96875,-0.54334 -1.24857,0.04989 -2.57475,0.186691 -3.661643,0.803198 -0.949718,0.538699 -1.945641,1.335735 -2.244233,2.385975 -0.248329,0.873449 0.02542,1.923578 0.54334,2.669458 0.534633,0.769947 1.505061,1.167904 2.385975,1.488282 1.061212,0.38595 2.236906,0.63379 3.35454,0.472469 0.941719,-0.135929 1.99448,-0.446075 2.598584,-1.181174 0.544499,-0.662568 0.865263,-1.691672 0.590589,-2.504094 -0.254466,-0.752653 -1.080467,-1.28754 -1.842635,-1.511906 -0.859231,-0.252939 -1.937116,-0.208582 -2.669455,0.307108 -0.538445,0.379156 -1.079713,1.146148 -0.874072,1.771763 0.08028,0.244243 0.428942,0.332161 0.685082,0.354351 0.287822,0.02493 0.639528,-0.0399 0.826824,-0.259861 0.283736,-0.33322 -0.153808,-1.027204 0.188989,-1.299292 0.365202,-0.289872 0.984958,-0.10607 1.393785,0.118115 0.477813,0.262014 0.898305,0.762506 0.992188,1.299295 0.08109,0.463656 -0.108048,0.998755 -0.425223,1.346538 -0.39715,0.435476 -1.043349,0.628662 -1.630021,0.685083 -0.880863,0.08471 -1.799054,-0.164073 -2.598587,-0.54334 -0.66779,-0.316774 -1.339471,-0.762892 -1.724517,-1.393788 -0.322622,-0.528615 -0.518004,-1.215761 -0.377976,-1.819011 0.162408,-0.699663 0.717332,-1.314664 1.322917,-1.700892 0.919614,-0.586509 2.098497,-0.722009 3.189174,-0.73233 1.150516,-0.01089 2.316164,0.266027 3.378163,0.708705 0.818455,0.34116 1.632144,0.801358 2.220608,1.46466 0.560901,0.632234 1.137935,1.422686 1.13393,2.267857 -0.0035,0.74308 -0.515866,1.434617 -1.015812,1.984375 -0.659885,0.725631 -1.587536,1.176992 -2.480469,1.582775 -0.866586,0.39381 -1.793009,0.710205 -2.740326,0.803198 -1.140899,0.111995 -2.310699,-0.03949 -3.425409,-0.307105 -1.089144,-0.261474 -2.151285,-0.686821 -3.118304,-1.252045 -0.793111,-0.463575 -1.57014,-1.011783 -2.149739,-1.724518 -0.624355,-0.76777 -0.943949,-2.213123 -1.346541,-2.645833 -0.168023,-0.180592 -0.527057,-0.123463 -0.779576,-0.05906 -0.245505,0.06262 -0.605483,0.162123 -0.637834,0.413414 z"
         style="fill:#ffffff;fill-opacity:1;stroke:none;stroke-width:0.26458332px;stroke-linecap:butt;stroke-linejoin:miter;stroke-opacity:1" />
      <path
         sodipodi:nodetypes="ccaaacaaac"
         inkscape:connector-curvature="0"
         id="path4558"
         d="m 2.6930802,27.497762 v -7.9375 c 0,0 3.2661631,-0.715585 4.9136905,-0.614211 1.6698728,0.102749 3.3177573,0.59549 4.8664433,1.228423 1.705247,0.696919 3.313323,1.66242 4.771949,2.787574 1.869348,1.441977 5.008185,5.008186 5.008185,5.008186 0,0 -4.086917,-1.981475 -6.236607,-2.693082 -1.367191,-0.452578 -2.768984,-0.882922 -4.204985,-0.992187 -1.575379,-0.11987 -3.2281852,-0.128603 -4.7247026,0.377976 -1.6509988,0.558872 -4.3939732,2.834821 -4.3939732,2.834821 z"
         style="fill:#000000;fill-opacity:1;stroke:none;stroke-width:0.26458332px;stroke-linecap:butt;stroke-linejoin:miter;stroke-opacity:1" />
      <path
         sodipodi:nodetypes="ccaaacaaac"
         inkscape:connector-curvature="0"
         id="path4560"
         d="m 8.315476,10.961304 3.685268,-4.9609375 c 0,0 3.3499,1.4788297 4.677455,2.6930805 1.234793,1.1294062 2.104519,2.628705 2.882069,4.110491 0.905311,1.725262 1.54337,3.594461 2.031622,5.480655 0.57491,2.220968 1.039434,6.803571 1.039434,6.803571 0,0 -2.156306,-4.089584 -3.449033,-6.000372 C 18.17065,17.592479 17.127898,16.088158 15.827753,14.83556 14.943029,13.983191 13.932412,13.245488 12.85119,12.662197 11.430081,11.895546 8.315476,10.961304 8.315476,10.961304 Z"
         style="fill:#000000;fill-opacity:1;stroke:none;stroke-width:0.26458332px;stroke-linecap:butt;stroke-linejoin:miter;stroke-opacity:1" />
      <path
         sodipodi:nodetypes="ccaacaac"
         inkscape:connector-curvature="0"
         id="path4562"
         d="m 30.946801,4.5357089 4.771949,5.1971725 c 0,0 -3.321194,2.2095996 -4.630209,3.6852676 -1.313887,1.48116 -2.256686,3.272807 -3.118302,5.055432 -1.166396,2.413192 -2.740329,7.559523 -2.740329,7.559523 0,0 -0.216272,-5.535096 0.141741,-8.268229 0.3056,-2.333005 0.79633,-4.678706 1.700894,-6.850818 0.956333,-2.296423 3.874256,-6.3783481 3.874256,-6.3783481 z"
         style="fill:#000000;fill-opacity:1;stroke:none;stroke-width:0.26458332px;stroke-linecap:butt;stroke-linejoin:miter;stroke-opacity:1" />
      <path
         sodipodi:nodetypes="caccacc"
         inkscape:connector-curvature="0"
         id="path4564"
         d="m 55.992966,37.051514 c 0,0 -3.397774,-2.283136 -5.311982,-2.939965 -1.631314,-0.559759 -5.11153,-0.801807 -5.11153,-0.801807 l -0.200453,0.801807 c 0,0 3.245744,0.557344 4.744034,1.202713 1.489643,0.641644 4.10927,2.605879 4.10927,2.605879 z"
         style="fill:#000000;fill-opacity:1;stroke:none;stroke-width:0.26458332px;stroke-linecap:butt;stroke-linejoin:miter;stroke-opacity:1" />
      <path
         sodipodi:nodetypes="ccaccac"
         inkscape:connector-curvature="0"
         id="path4566"
         d="m 57.596582,27.262767 -0.835216,1.670436 c 0,0 -3.564752,0.06911 -5.278575,0.501129 -1.500164,0.378164 -4.276312,1.804069 -4.276312,1.804069 l -0.100224,-0.801806 c 0,0 2.760915,-1.799847 4.309721,-2.305201 1.977828,-0.645339 6.180606,-0.868627 6.180606,-0.868627 z"
         style="fill:#000000;fill-opacity:1;stroke:none;stroke-width:0.26458332px;stroke-linecap:butt;stroke-linejoin:miter;stroke-opacity:1" />
    </g>
  </g>
</svg>
