<?xml version="1.0" encoding="UTF-8" standalone="no"?>
<svg
   xmlns:dc="http://purl.org/dc/elements/1.1/"
   xmlns:cc="http://creativecommons.org/ns#"
   xmlns:rdf="http://www.w3.org/1999/02/22-rdf-syntax-ns#"
   xmlns:svg="http://www.w3.org/2000/svg"
   xmlns="http://www.w3.org/2000/svg"
   xmlns:sodipodi="http://sodipodi.sourceforge.net/DTD/sodipodi-0.dtd"
   xmlns:inkscape="http://www.inkscape.org/namespaces/inkscape"
   width="48.89069mm"
   height="49.46487mm"
   viewBox="0 0 48.890689 49.464871"
   version="1.1"
   id="svg8"
   inkscape:version="0.92.0 r15299"
   sodipodi:docname="min-specs.svg">
  <metadata
     id="metadata15667">
    <rdf:RDF>
      <cc:Work
         rdf:about="">
        <dc:format>image/svg+xml</dc:format>
        <dc:type
           rdf:resource="http://purl.org/dc/dcmitype/StillImage" />
      </cc:Work>
    </rdf:RDF>
  </metadata>
  <defs
     id="defs15665" />
  <sodipodi:namedview
     pagecolor="#ffffff"
     bordercolor="#666666"
     borderopacity="1"
     objecttolerance="10"
     gridtolerance="10"
     guidetolerance="10"
     inkscape:pageopacity="0"
     inkscape:pageshadow="2"
     inkscape:window-width="640"
     inkscape:window-height="480"
     id="namedview15663"
     showgrid="false"
     inkscape:zoom="0.22137888"
     inkscape:cx="144.4377"
     inkscape:cy="-237.79445"
     inkscape:window-x="0"
     inkscape:window-y="0"
     inkscape:window-maximized="0"
     inkscape:current-layer="layer15" />
  <g
     inkscape:groupmode="layer"
     id="layer15"
     inkscape:label="minspecs"
     style="display:inline"
     sodipodi:insensitive="true"
     transform="translate(-170.93731,-6.0197222)">
    <g
       id="g4931">
      <path
         sodipodi:nodetypes="caaaaacacacscacac"
         inkscape:connector-curvature="0"
         id="path4913"
         d="m 171.11931,20.380578 c 0,0 4.53662,-5.327516 7.34991,-7.349912 3.25125,-2.337227 6.90764,-4.2449275 10.7576,-5.3453905 4.25961,-1.2175549 8.85329,-1.9569432 13.22984,-1.2695301 3.66627,0.5758524 7.48299,1.9069159 10.22306,4.4099476 3.03163,2.769365 4.67295,6.899701 5.87993,10.824415 1.12504,3.65828 1.1359,11.425772 1.1359,11.425772 0,0 -6.88219,1.126325 -10.3567,1.336349 -2.93469,0.177394 -8.81989,-0.06682 -8.81989,-0.06682 0,0 -0.77788,6.068749 -0.80181,9.120571 -0.0267,3.40527 0.73499,10.189652 0.73499,10.189652 0,0 -3.21306,2.052263 -7.96273,1.642758 -4.77826,-0.41197 -7.20481,-3.045923 -7.20481,-3.045923 0,0 2.11785,-7.132278 2.93996,-10.757598 0.6908,-3.046284 1.67044,-9.220798 1.67044,-9.220798 0,0 -6.91194,-2.649047 -10.02261,-4.610402 -3.21067,-2.02441 -8.75308,-7.283091 -8.75308,-7.283091 z"
         style="fill:#000000;fill-opacity:1;stroke:#000000;stroke-width:0.26458332px;stroke-linecap:butt;stroke-linejoin:miter;stroke-opacity:1" />
      <path
         sodipodi:nodetypes="cacacaacsc"
         inkscape:connector-curvature="0"
         id="path4915"
         d="m 186.55413,51.383842 c 0,0 2.63131,-8.479543 3.4745,-12.828936 0.84575,-4.362584 1.57595,-13.237948 1.57595,-13.237948 0,0 2.43752,-0.384739 3.63581,-0.192346 1.69361,0.271921 4.79533,1.866833 4.79533,1.866833 0,0 -0.30531,5.484601 -0.51902,8.222591 -0.22455,2.876802 -0.76546,5.734119 -0.80181,8.619442 -0.0374,2.968777 0.60136,8.886714 0.60136,8.886714 0,0 -2.61488,1.336888 -6.48129,0.907766 -4.57971,-0.50829 -6.28083,-2.244116 -6.28083,-2.244116 z"
         style="fill:#ffffff;fill-opacity:1;stroke:#000000;stroke-width:0.26458332px;stroke-linecap:butt;stroke-linejoin:miter;stroke-opacity:1" />
      <path
         sodipodi:nodetypes="caacaaasac"
         inkscape:connector-curvature="0"
         id="path4917"
         d="m 173.34933,19.654756 c 0,0 9.81731,-1.278425 14.69382,-0.755952 4.96491,0.531945 9.83139,2.042247 14.45759,3.921503 5.5909,2.271135 15.82775,8.787947 15.82775,8.787947 0,0 -0.24414,-7.653672 -1.41741,-11.244792 -1.02897,-3.149456 -2.32877,-6.508125 -4.81919,-8.693453 -2.83792,-2.4902509 -6.7855,-3.7239095 -10.53609,-4.1577377 -4.85425,-0.5614876 -10.18423,0.4574982 -14.50484,2.126116 -2.80258,1.0823567 -5.65114,2.6198587 -8.12593,4.4734117 -2.0976,1.571045 -5.5757,5.542957 -5.5757,5.542957 z"
         style="fill:#ffffff;fill-opacity:1;stroke:#000000;stroke-width:0.26458332px;stroke-linecap:butt;stroke-linejoin:miter;stroke-opacity:1" />
      <circle
         r="1.5869129"
         cy="14.3169"
         cx="186.43719"
         id="path4919"
         style="opacity:1;fill:#000008;fill-opacity:1;stroke:none;stroke-width:0.10439561;stroke-linecap:round;stroke-miterlimit:4;stroke-dasharray:none;stroke-opacity:1" />
      <circle
         r="2.0212257"
         cy="11.711022"
         cx="203.10814"
         id="path4921"
         style="opacity:1;fill:#000008;fill-opacity:1;stroke:none;stroke-width:0.10707965;stroke-linecap:round;stroke-miterlimit:4;stroke-dasharray:none;stroke-opacity:1" />
      <circle
         r="1.6370258"
         cy="21.249203"
         cx="210.10727"
         id="path4923"
         style="opacity:1;fill:#000008;fill-opacity:1;stroke:none;stroke-width:0.10537635;stroke-linecap:round;stroke-miterlimit:4;stroke-dasharray:none;stroke-opacity:1" />
    </g>
  </g>
</svg>
