<?xml version="1.0" encoding="UTF-8" standalone="no"?>
<svg
   xmlns:dc="http://purl.org/dc/elements/1.1/"
   xmlns:cc="http://creativecommons.org/ns#"
   xmlns:rdf="http://www.w3.org/1999/02/22-rdf-syntax-ns#"
   xmlns:svg="http://www.w3.org/2000/svg"
   xmlns="http://www.w3.org/2000/svg"
   xmlns:sodipodi="http://sodipodi.sourceforge.net/DTD/sodipodi-0.dtd"
   xmlns:inkscape="http://www.inkscape.org/namespaces/inkscape"
   width="50.130341mm"
   height="38.408566mm"
   viewBox="0 0 50.13034 38.408566"
   version="1.1"
   id="svg8"
   inkscape:version="0.92.0 r15299"
   sodipodi:docname="open-space.svg">
  <metadata
     id="metadata16221">
    <rdf:RDF>
      <cc:Work
         rdf:about="">
        <dc:format>image/svg+xml</dc:format>
        <dc:type
           rdf:resource="http://purl.org/dc/dcmitype/StillImage" />
      </cc:Work>
    </rdf:RDF>
  </metadata>
  <defs
     id="defs16219" />
  <sodipodi:namedview
     pagecolor="#ffffff"
     bordercolor="#666666"
     borderopacity="1"
     objecttolerance="10"
     gridtolerance="10"
     guidetolerance="10"
     inkscape:pageopacity="0"
     inkscape:pageshadow="2"
     inkscape:window-width="640"
     inkscape:window-height="480"
     id="namedview16217"
     showgrid="false"
     inkscape:zoom="0.22137888"
     inkscape:cx="-348.20922"
     inkscape:cy="-156.39063"
     inkscape:window-x="0"
     inkscape:window-y="0"
     inkscape:window-maximized="0"
     inkscape:current-layer="layer36" />
  <g
     inkscape:groupmode="layer"
     id="layer36"
     inkscape:label="openspace"
     sodipodi:insensitive="true"
     transform="translate(-301.28347,-38.614119)">
    <g
       id="g4870">
      <path
         id="path4849"
         transform="scale(0.26458333)"
         d="m 1221.8535,145.94336 c -2.3868,-0.004 -5.5643,0.0428 -8.7265,0.23828 -7.041,0.43519 -13.3516,2.11133 -13.3516,2.11133 0,0 0.1555,17.26572 -0.6973,25.83984 -0.294,2.95632 -1.5195,8.78321 -1.5195,8.78321 l -15.8203,-2.3711 -4.9688,-26.5957 c 0,0 -4.1468,1.11108 -9.7597,3.94726 -5.6518,2.85579 -8.3536,5.37696 -8.3536,5.37696 0,0 4.399,8.63623 4.3575,15.20898 -0.05,7.74637 -0.076,23.69336 -0.076,23.69336 0,0 -2.1358,1.16996 -4.8965,1.69336 -2.8818,0.54637 -4.4277,0.2168 -4.4277,0.2168 l -5.9629,-24.91602 c 0,0 -2.5478,0.20915 -5.5332,2.57227 -2.9038,2.29854 -3.4082,4.76562 -3.4082,4.76562 l 6.7265,14.13867 c 0,0 4.7894,11.07526 5.043,12.6875 0.3096,1.96703 -0.8398,21.93555 -0.8398,21.93555 l 2.4453,1.14649 0.5215,-15.22266 1.3886,0.85352 -0.457,27.58984 1.5274,2.98047 1.7578,0.0762 0.4589,-28.50781 11.0821,-2.67383 -1.9492,45.50586 1.5136,0.43359 3.836,-27.61719 23.1308,9.56641 0.2168,30.37305 1.6739,0.0527 1.3515,-30.04687 16.4297,-13.02539 -0.3789,26.42773 1.4063,-0.0547 1.0253,-4.80859 0.9727,-27.83398 -21.1797,-6.67969 -0.076,-9.70703 -9.0195,-3.51563 -4.3555,-12.38086 13.2227,-9.0957 -0.3828,21.85937 2.0644,0.15235 v -3.82227 l 2.1387,-4.89062 0.8418,-20.02344 4.5859,5.42578 -0.1543,22.08789 2.9825,-4.35742 0.5019,-16.32813 11.8789,-3.16015 v 6.57226 l 1.1465,2.67579 2.1387,0.6875 0.2304,-10.92969 7.7188,-2.0625 -1.7578,26.06054 1.6055,0.23047 1.375,-3.66797 2.0644,-23.92382 -9.5547,-8.78907 L 1225.8379,146 c 0,0 -1.5976,-0.0529 -3.9844,-0.0566 z m -55.9805,47.8457 12.375,4.05469 -12.4296,3.67383 z"
         style="fill:#000000;fill-opacity:1;stroke:none;stroke-width:0.99999994px;stroke-linecap:butt;stroke-linejoin:miter;stroke-opacity:1"
         inkscape:connector-curvature="0" />
      <path
         sodipodi:nodetypes="cccccccccccccccccccccccccccccccccccccccccccccccccccccccsccccccccccccccccccccccccc"
         inkscape:connector-curvature="0"
         id="path4853"
         transform="scale(0.26458333)"
         d="m 1253.0469,148.06445 -3.5157,24.99219 c 0,0 -3.0154,2.96061 -4.6621,4.2793 -2.2286,1.78472 -7.0312,4.89062 -7.0312,4.89062 l -1.1465,26.98047 2.1387,0.22852 1.4531,-4.73828 0.8398,-19.1836 5.6739,1.14649 -1.0117,9.70703 1.5664,0.15234 1.3379,-2.36914 0.8066,-6.99414 11.7207,2.12109 -1.709,21.07618 1.4453,0.0976 1.543,-5.19726 1.668,-15.61914 6.6797,-4.23829 -2.5821,16.10938 -3.0898,15.88867 -17.3223,1.51758 -0.6113,8.25586 -20.1778,4.89062 c 0,0 -1.4705,10.18016 -2.0136,15.29297 -0.6558,6.17387 -1.502,18.56446 -1.502,18.56446 l 2.3692,0.0762 4.1757,-28.07227 11.6094,22.00781 c 0,0 -1.0022,7.42085 -1.4199,10.65821 -0.518,4.01505 -0.7039,7.20224 -0.9121,11.35742 -0.1429,2.84932 -0.3652,8.77148 -0.3652,8.77148 l 2.1132,0.39454 3.4473,-29.54883 10.8145,-2.17969 0.3437,5.3125 h 2.1406 l 0.8789,-6.07617 19.295,-3.54883 -1.1426,29.65039 1.834,0.15234 5.1211,-57.09179 16.9668,6.57226 -0.076,28.58399 2.2929,0.0762 1.2579,-28.24414 4.3125,-5.83008 0.6972,16.01367 1.6035,-2.57031 1.0704,-23.23828 c 0,0 4.7877,-8.13418 7.2617,-12.15235 3.1206,-5.06857 6.4956,-9.63056 8.9414,-11.46484 0,0 0.061,-2.7109 -0.459,-5.50195 -0.6086,-3.26577 -2.1387,-4.4336 -2.1387,-4.4336 l -16.3574,29.19532 c 0,0 3.7381,-16.00695 6.4199,-24.15039 3.4942,-10.61037 5.7324,-22.69922 5.7324,-22.69922 0,0 -2.3633,-3.12976 -6.6484,-6.03907 -4.1334,-2.80633 -8.2539,-4.35546 -8.2539,-4.35546 0,0 -3.6835,5.2787 -5.0449,8.17773 -1.863,3.96695 -2.5106,8.41443 -4.2031,12.45703 -1.1133,2.65889 -3.8985,7.7207 -3.8985,7.7207 l -20.3301,3.74414 c 0,0 3.7309,-15.44135 4.6621,-23.31054 0.5502,-4.63321 1.1466,-14.82704 1.1466,-14.82704 0,0 -7.5809,-2.33309 -13.3751,-3.05773 -4.3459,-0.47548 -8.0545,-0.50306 -12.381,-0.38087 z m 18.8769,48.45508 10.7012,8.78906 -10.3184,11.76953 -4.7382,0.0762 z m 37.4883,5.08203 -2.9414,12.4961 -8.9434,-4.05078 1.0704,-6.57227 z m -13.6426,2.33203 -0.7265,5.04297 -7.1446,-3.43945 z"
         style="fill:#000000;fill-opacity:1;stroke:none;stroke-width:0.99999994px;stroke-linecap:butt;stroke-linejoin:miter;stroke-opacity:1" />
    </g>
  </g>
</svg>
