<?xml version="1.0" encoding="UTF-8" standalone="no"?>
<svg
   xmlns:dc="http://purl.org/dc/elements/1.1/"
   xmlns:cc="http://creativecommons.org/ns#"
   xmlns:rdf="http://www.w3.org/1999/02/22-rdf-syntax-ns#"
   xmlns:svg="http://www.w3.org/2000/svg"
   xmlns="http://www.w3.org/2000/svg"
   xmlns:sodipodi="http://sodipodi.sourceforge.net/DTD/sodipodi-0.dtd"
   xmlns:inkscape="http://www.inkscape.org/namespaces/inkscape"
   width="42.936901mm"
   height="47.099445mm"
   viewBox="0 0 42.936901 47.099446"
   version="1.1"
   id="svg8"
   inkscape:version="0.92.0 r15299"
   sodipodi:docname="purpose-to-practice.svg">
  <metadata
     id="metadata17330">
    <rdf:RDF>
      <cc:Work
         rdf:about="">
        <dc:format>image/svg+xml</dc:format>
        <dc:type
           rdf:resource="http://purl.org/dc/dcmitype/StillImage" />
      </cc:Work>
    </rdf:RDF>
  </metadata>
  <defs
     id="defs17328" />
  <sodipodi:namedview
     pagecolor="#ffffff"
     bordercolor="#666666"
     borderopacity="1"
     objecttolerance="10"
     gridtolerance="10"
     guidetolerance="10"
     inkscape:pageopacity="0"
     inkscape:pageshadow="2"
     inkscape:window-width="640"
     inkscape:window-height="480"
     id="namedview17326"
     showgrid="false"
     inkscape:zoom="0.22643897"
     inkscape:cx="-622.47642"
     inkscape:cy="438.48437"
     inkscape:window-x="0"
     inkscape:window-y="0"
     inkscape:window-maximized="0"
     inkscape:current-layer="layer27" />
  <g
     inkscape:groupmode="layer"
     id="layer27"
     inkscape:label="purposetopractice"
     sodipodi:insensitive="true"
     transform="translate(-373.85,-187.31725)">
    <path
       style="fill:#000000;fill-opacity:1;stroke:none;stroke-width:0.99999994px;stroke-linecap:butt;stroke-linejoin:miter;stroke-opacity:1"
       d="m 1478.0293,707.9707 c -8.8838,4.3e-4 -16.0855,7.20211 -16.0859,16.08594 0.01,1.20009 0.1474,2.39568 0.4199,3.56445 L 1462,727.75 c 0,0 -20.2606,10.19621 -32,35 -9.9044,20.92661 -8.25,42.5 -8.25,42.5 l 0.031,0.0996 c -5.4014,2.74215 -8.8045,8.28612 -8.8046,14.34375 4e-4,8.88383 7.2021,16.08551 16.0859,16.08594 0.8019,-0.005 1.6023,-0.0693 2.3945,-0.19336 l 0.293,0.91406 c 0,0 8.082,16.13969 27.5,27.75 17.5874,10.51579 40.25,10 40.25,10 l 0.3223,-0.0801 c 1.9224,6.97869 8.2692,11.81392 15.5078,11.81446 8.8838,-4.3e-4 16.0855,-7.20211 16.0859,-16.08594 -0.01,-1.20816 -0.1496,-2.41171 -0.4258,-3.58789 0.723,-0.55087 16.9274,-8.56404 27.5098,-27.81055 9.2166,-16.76257 6.5952,-31.75689 6.7031,-33.60156 6.0741,-2.45684 10.0512,-8.35215 10.0547,-14.9043 -4e-4,-8.88462 -7.2033,-16.08661 -16.0879,-16.08594 -1.6057,0.006 -3.2016,0.25205 -4.7344,0.73047 -0.3353,-0.61491 -7.7499,-15.14742 -29.3105,-22.26367 -9.3806,-3.09614 -19.4896,-3.04525 -28.9473,-0.1934 -15.2393,4.59524 -18.2922,12.26601 -19.3105,13.23047 -1.5145,-0.46104 -3.0888,-0.696 -4.6719,-0.69727 -8.8846,4.3e-4 -16.0866,7.20329 -16.0859,16.08789 0.01,5.70853 3.0388,10.98577 7.9668,13.86719 0.3852,2.17535 -0.3582,17.6701 11.6738,28.83008 8.5958,7.97277 23.2967,12.18043 34.25,8 10.1289,-3.86578 18.8925,-12.24106 18.6893,-26.61872 -0.1317,-9.31486 -5.5307,-15.25481 -12.4267,-18.29289 -8.5128,-3.75035 -13.8384,-0.81066 -13.8384,-0.81066 0,0 15.7393,4.84821 18.7981,11.53293 2.7671,6.04739 0.9442,14.50588 -3.2223,19.68934 -5.0898,6.3321 -11.1988,10.61976 -22.6438,9.01517 -10.3684,-1.45364 -18.6948,-11.45213 -21.1768,-16.92158 -2.2209,-4.89386 -2.9622,-10.84191 -2.9372,-12.25179 0.3172,0.025 0.635,0.0407 0.9531,0.0469 8.8846,6.7e-4 16.0875,-7.20132 16.0879,-16.08594 -0.01,-4.50693 -1.9046,-8.80418 -5.2305,-11.8457 L 1483.25,768.5 c 0,0 5.0575,-8.51004 16.1875,-10.6875 14.8806,-2.91122 24.481,0.71805 34.9375,6.375 7.8079,4.22409 14.375,12.8125 14.375,12.8125 l 0.1953,0.58984 c -3.7074,3.0526 -5.857,7.60192 -5.8613,12.4043 0.01,8.52435 6.667,15.56131 15.1777,16.04297 0.051,0.83996 2.6726,17.58246 -5.6367,30.71289 -12.0771,19.08431 -23.1797,23.03734 -24.1914,23.84961 -3.0109,-4.25122 -7.894,-6.78123 -13.1035,-6.78906 -7.8349,0.009 -14.5239,5.66112 -15.8399,13.38476 l -0.2402,0.0547 c 0,0 -18.1813,2.35874 -38.25,-8.25 -14.0155,-7.4089 -22.7228,-24.16224 -23.6641,-25.5293 4.8419,-2.90306 7.8077,-8.13183 7.8145,-13.77734 -0.01,-8.70005 -6.9324,-15.81688 -15.6289,-16.06445 0.047,-1.09466 -3.234,-15.28712 6.7285,-37.87891 9.7855,-22.19021 28.5,-31.75 28.5,-31.75 l 0.5195,-0.16797 c 3.0405,3.9733 7.7566,6.30572 12.7598,6.31055 8.7148,-0.008 15.8385,-6.95416 16.0664,-15.66602 0.2824,-0.0737 9.3899,-1.87505 14.1543,-2.10156 5.5639,-0.26451 10,0.1875 16.6875,0.875 -2.625,-2.3125 -8.1511,-5.99614 -16.1875,-6.5625 -5.4183,-0.38185 -15.6981,0.15189 -16.293,0.27344 -2.7038,-5.5006 -8.2985,-8.98676 -14.4277,-8.99024 z"
       transform="scale(0.26458333)"
       id="path4757"
       inkscape:connector-curvature="0"
       sodipodi:nodetypes="ccccsccccccscccccsccccssccccsasscaasscccccssccccsccccscccsccccacsccc" />
  </g>
</svg>
