<?xml version="1.0" encoding="UTF-8" standalone="no"?>
<svg
   xmlns:dc="http://purl.org/dc/elements/1.1/"
   xmlns:cc="http://creativecommons.org/ns#"
   xmlns:rdf="http://www.w3.org/1999/02/22-rdf-syntax-ns#"
   xmlns:svg="http://www.w3.org/2000/svg"
   xmlns="http://www.w3.org/2000/svg"
   xmlns:sodipodi="http://sodipodi.sourceforge.net/DTD/sodipodi-0.dtd"
   xmlns:inkscape="http://www.inkscape.org/namespaces/inkscape"
   width="45.389893mm"
   height="41.598824mm"
   viewBox="0 0 45.389892 41.598824"
   version="1.1"
   id="svg8"
   inkscape:version="0.92.0 r15299"
   sodipodi:docname="shift-and-share.svg">
  <metadata
     id="metadata17909">
    <rdf:RDF>
      <cc:Work
         rdf:about="">
        <dc:format>image/svg+xml</dc:format>
        <dc:type
           rdf:resource="http://purl.org/dc/dcmitype/StillImage" />
      </cc:Work>
    </rdf:RDF>
  </metadata>
  <defs
     id="defs17907" />
  <sodipodi:namedview
     pagecolor="#ffffff"
     bordercolor="#666666"
     borderopacity="1"
     objecttolerance="10"
     gridtolerance="10"
     guidetolerance="10"
     inkscape:pageopacity="0"
     inkscape:pageshadow="2"
     inkscape:window-width="640"
     inkscape:window-height="480"
     id="namedview17905"
     showgrid="false"
     inkscape:zoom="0.22137888"
     inkscape:cx="314.29765"
     inkscape:cy="58.683034"
     inkscape:window-x="0"
     inkscape:window-y="0"
     inkscape:window-maximized="0"
     inkscape:current-layer="layer14" />
  <g
     inkscape:groupmode="layer"
     id="layer14"
     inkscape:label="shiftandshare"
     sodipodi:insensitive="true"
     transform="translate(-125.9952,-92.328768)">
    <g
       id="g4910">
      <path
         sodipodi:nodetypes="ccaaaaaac"
         inkscape:connector-curvature="0"
         id="path4731"
         d="m 127.54334,127.18898 h 3.96875 c 0,0 0.60262,1.65911 0.7087,2.52772 0.0945,0.77418 0.19416,1.60521 -0.0709,2.33872 -0.21734,0.60147 -0.60274,1.23913 -1.18118,1.51191 -0.54148,0.25535 -1.25719,0.21499 -1.79539,-0.0472 -0.63358,-0.30865 -1.05817,-0.98696 -1.34654,-1.63002 -0.38141,-0.85055 -0.38813,-1.83253 -0.42522,-2.76395 -0.0258,-0.64694 0.14178,-1.93718 0.14178,-1.93718 z"
         style="fill:#000000;fill-opacity:1;stroke:#000000;stroke-width:0.26458332px;stroke-linecap:butt;stroke-linejoin:miter;stroke-opacity:1" />
      <path
         sodipodi:nodetypes="ccasaassaaaacc"
         inkscape:connector-curvature="0"
         id="path4733"
         d="m 127.44885,126.29129 h 3.82701 c 0,0 0.0626,-1.26373 0.23623,-1.86627 0.2741,-0.95126 0.74949,-1.91088 1.25205,-2.69307 0.62263,-0.96907 0.83936,-1.3934 1.01581,-2.17337 0.22415,-0.9908 0.17298,-2.04263 0.0236,-3.04743 -0.13586,-0.91396 -0.40149,-1.63655 -0.82683,-2.64583 -0.29665,-0.70391 -0.93343,-1.62366 -1.39378,-1.819 -0.61045,-0.25904 -1.39748,-0.16704 -1.98437,0.14169 -0.92731,0.4878 -1.44794,1.54314 -1.96076,2.45685 -0.61936,1.10354 -1.06484,2.32359 -1.29929,3.56715 -0.24954,1.32359 -0.27342,2.70465 -0.0945,4.03962 0.18665,1.39271 1.20481,4.03966 1.20481,4.03966 z"
         style="fill:#000000;fill-opacity:1;stroke:#000000;stroke-width:0.26458332px;stroke-linecap:butt;stroke-linejoin:miter;stroke-opacity:1" />
      <path
         sodipodi:nodetypes="ccaaaaaac"
         inkscape:connector-curvature="0"
         id="path4731-5"
         d="m 142.23191,127.45182 -3.95747,-0.29906 c 0,0 -0.72592,1.609 -0.89715,2.46714 -0.15257,0.76486 -0.31456,1.58602 -0.10577,2.33741 0.1714,0.61614 0.50766,1.28102 1.0639,1.59661 0.5207,0.29542 1.23741,0.30911 1.79383,0.0882 0.65504,-0.26004 1.12954,-0.90443 1.46555,-1.52392 0.44441,-0.81939 0.52511,-1.79808 0.63228,-2.72405 0.0744,-0.64316 0.005,-1.94236 0.005,-1.94236 z"
         style="fill:#000000;fill-opacity:1;stroke:#000000;stroke-width:0.26458332px;stroke-linecap:butt;stroke-linejoin:miter;stroke-opacity:1" />
      <path
         sodipodi:nodetypes="ccasaassaaaacc"
         inkscape:connector-curvature="0"
         id="path4733-9"
         d="m 142.39377,126.5638 -3.81613,-0.28837 c 0,0 0.0328,-1.26485 -0.0949,-1.87876 -0.20165,-0.96921 -0.60337,-1.96193 -1.04557,-2.77976 -0.54783,-1.01322 -0.73197,-1.45269 -0.84915,-2.24373 -0.14885,-1.00488 -0.0186,-2.04987 0.20608,-3.04055 0.20434,-0.90112 0.52367,-1.60164 1.02384,-2.576 0.34884,-0.67957 1.05312,-1.54871 1.52688,-1.70881 0.62824,-0.21231 1.40609,-0.0612 1.96806,0.29081 0.88792,0.55628 1.32754,1.64786 1.77005,2.59761 0.53445,1.14708 0.88673,2.39722 1.02681,3.65491 0.1491,1.33864 0.0688,2.71757 -0.21014,4.03527 -0.29106,1.37468 -1.50578,3.93738 -1.50578,3.93738 z"
         style="fill:#000000;fill-opacity:1;stroke:#000000;stroke-width:0.26458332px;stroke-linecap:butt;stroke-linejoin:miter;stroke-opacity:1" />
      <path
         sodipodi:nodetypes="ccaaaaaac"
         inkscape:connector-curvature="0"
         id="path4731-0"
         d="m 150.89943,101.01452 2.62414,2.9774 c 0,0 -0.84624,1.5491 -1.42773,2.203 -0.51831,0.58278 -1.07586,1.20702 -1.80141,1.49317 -0.59493,0.23464 -1.32814,0.36713 -1.91524,0.11353 -0.5496,-0.23738 -0.99255,-0.801 -1.15171,-1.37812 -0.18736,-0.6794 0.0408,-1.44643 0.33253,-2.08796 0.3859,-0.84852 1.11815,-1.50284 1.79238,-2.14653 0.46829,-0.44711 1.54704,-1.1745 1.54704,-1.1745 z"
         style="fill:#000008;fill-opacity:1;stroke:#000000;stroke-width:0.26458332px;stroke-linecap:butt;stroke-linejoin:miter;stroke-opacity:1" />
      <path
         sodipodi:nodetypes="ccasaassaaaacc"
         inkscape:connector-curvature="0"
         id="path4733-7"
         d="m 151.51041,100.35008 2.53041,2.87106 c 0,0 0.98946,-0.78862 1.5563,-1.05675 0.89487,-0.42334 1.92912,-0.7012 2.84822,-0.84136 1.13869,-0.17365 1.60033,-0.29162 2.30213,-0.67496 0.89152,-0.48695 1.64678,-1.220819 2.30182,-1.997256 0.59583,-0.706233 0.96229,-1.383289 1.43823,-2.36972 0.33193,-0.687974 0.6009,-1.773831 0.44306,-2.24835 -0.20929,-0.629242 -0.7987,-1.158848 -1.41836,-1.395007 -0.97909,-0.373143 -2.11505,-0.06593 -3.13961,0.15349 -1.23741,0.26501 -2.44725,0.737504 -3.53519,1.383859 -1.15798,0.687951 -2.20985,1.583193 -3.09306,2.600103 -0.92141,1.060886 -2.23396,3.574881 -2.23396,3.574881 z"
         style="fill:#000008;fill-opacity:1;stroke:#000000;stroke-width:0.26458332px;stroke-linecap:butt;stroke-linejoin:miter;stroke-opacity:1" />
      <path
         sodipodi:nodetypes="ccaaaaaac"
         inkscape:connector-curvature="0"
         id="path4731-5-8"
         d="m 160.5161,112.23665 -2.40058,-3.16042 c 0,0 -1.6857,0.52368 -2.44156,0.9646 -0.67365,0.39302 -1.39571,0.81633 -1.81964,1.47089 -0.34751,0.53689 -0.62217,1.22949 -0.48951,1.85512 0.12422,0.58565 0.58924,1.13116 1.12358,1.40114 0.62902,0.31783 1.426,0.24566 2.11251,0.0863 0.90801,-0.21075 1.69406,-0.79937 2.4582,-1.33322 0.53073,-0.37083 1.45714,-1.28434 1.45714,-1.28434 z"
         style="fill:#000008;fill-opacity:1;stroke:#000000;stroke-width:0.26458332px;stroke-linecap:butt;stroke-linejoin:miter;stroke-opacity:1" />
      <path
         sodipodi:nodetypes="ccasaassaaaacc"
         inkscape:connector-curvature="0"
         id="path4733-9-6"
         d="m 161.28811,111.76891 -2.31485,-3.04754 c 0,0 0.96846,-0.81425 1.34328,-1.31695 0.59172,-0.79366 1.06834,-1.75267 1.38723,-2.626 0.39508,-1.08196 0.6019,-1.51123 1.11627,-2.12351 0.65342,-0.7778 1.52196,-1.37331 2.41247,-1.86212 0.80996,-0.44463 1.54607,-0.67017 2.60704,-0.941946 0.73998,-0.189564 1.85756,-0.238802 2.29157,0.0096 0.57554,0.329436 0.97827,1.011846 1.08746,1.665916 0.17247,1.03349 -0.35302,2.08642 -0.77044,3.04747 -0.50414,1.16071 -1.20623,2.25343 -2.0547,3.19232 -0.90308,0.99931 -1.98842,1.85366 -3.15967,2.51872 -1.22195,0.69377 -3.94563,1.48405 -3.94563,1.48405 z"
         style="fill:#000008;fill-opacity:1;stroke:#000000;stroke-width:0.26458332px;stroke-linecap:butt;stroke-linejoin:miter;stroke-opacity:1" />
      <path
         sodipodi:nodetypes="cacac"
         inkscape:connector-curvature="0"
         id="path4779"
         d="m 143.72419,130.24506 c 0,0 0.77258,-0.4632 1.20271,-0.46773 0.43859,-0.005 1.23612,0.45102 1.23612,0.45102 0,0 -0.79557,0.46707 -1.23612,0.46772 -0.42816,6.3e-4 -1.20271,-0.45101 -1.20271,-0.45101 z"
         style="fill:#000000;fill-opacity:1;stroke:none;stroke-width:0.26458332px;stroke-linecap:butt;stroke-linejoin:miter;stroke-opacity:1" />
      <path
         sodipodi:nodetypes="cacac"
         inkscape:connector-curvature="0"
         id="path4779-7"
         d="m 147.39165,130.22671 c 0,0 0.71412,-0.54905 1.14086,-0.60306 0.43511,-0.0555 1.27982,0.30573 1.27982,0.30573 0,0 -0.73651,0.55555 -1.17406,0.60691 -0.42524,0.0499 -1.24662,-0.30958 -1.24662,-0.30958 z"
         style="fill:#000000;fill-opacity:1;stroke:none;stroke-width:0.26458332px;stroke-linecap:butt;stroke-linejoin:miter;stroke-opacity:1" />
      <path
         sodipodi:nodetypes="cacac"
         inkscape:connector-curvature="0"
         id="path4779-4"
         d="m 151.19628,129.47422 c 0,0 0.49821,-0.75049 0.88457,-0.9396 0.39379,-0.19317 1.30993,-0.12456 1.30993,-0.12456 0,0 -0.51731,0.76387 -0.91473,0.95396 -0.38626,0.18474 -1.27977,0.1102 -1.27977,0.1102 z"
         style="fill:#000000;fill-opacity:1;stroke:none;stroke-width:0.26458332px;stroke-linecap:butt;stroke-linejoin:miter;stroke-opacity:1" />
      <path
         sodipodi:nodetypes="cacac"
         inkscape:connector-curvature="0"
         id="path4779-6"
         d="m 154.79933,127.44285 c 0,0 0.23104,-0.87066 0.53628,-1.17374 0.31098,-0.30932 1.20069,-0.53831 1.20069,-0.53831 0,0 -0.24483,0.88947 -0.56025,1.19703 -0.30655,0.29892 -1.17672,0.51502 -1.17672,0.51502 z"
         style="fill:#000000;fill-opacity:1;stroke:none;stroke-width:0.26458332px;stroke-linecap:butt;stroke-linejoin:miter;stroke-opacity:1" />
      <path
         sodipodi:nodetypes="cacac"
         inkscape:connector-curvature="0"
         id="path4779-5"
         d="m 157.76068,124.49201 c 0,0 0.0525,-0.89926 0.29111,-1.25719 0.24296,-0.36518 1.06902,-0.76721 1.06902,-0.76721 0,0 -0.0623,0.92044 -0.30994,1.28479 -0.24069,0.35411 -1.05019,0.73961 -1.05019,0.73961 z"
         style="fill:#000000;fill-opacity:1;stroke:none;stroke-width:0.26458332px;stroke-linecap:butt;stroke-linejoin:miter;stroke-opacity:1" />
      <path
         sodipodi:nodetypes="cacac"
         inkscape:connector-curvature="0"
         id="path4779-0"
         d="m 159.87295,121.32468 c 0,0 -0.0542,-0.89916 0.14042,-1.28279 0.19806,-0.39135 0.9708,-0.88823 0.9708,-0.88823 0,0 0.047,0.92134 -0.15586,1.31243 -0.19713,0.38008 -0.95536,0.85859 -0.95536,0.85859 z"
         style="fill:#000000;fill-opacity:1;stroke:none;stroke-width:0.26458332px;stroke-linecap:butt;stroke-linejoin:miter;stroke-opacity:1" />
      <path
         sodipodi:nodetypes="cacac"
         inkscape:connector-curvature="0"
         id="path4779-55"
         d="m 144.09078,97.499961 c 0,0 0.69213,-0.576538 1.11644,-0.647184 0.4326,-0.07241 1.29079,0.255489 1.29079,0.255489 0,0 -0.71424,0.583899 -1.14945,0.652314 -0.42297,0.06649 -1.25778,-0.260619 -1.25778,-0.260619 z"
         style="fill:#000000;fill-opacity:1;stroke:none;stroke-width:0.26458332px;stroke-linecap:butt;stroke-linejoin:miter;stroke-opacity:1" />
      <path
         sodipodi:nodetypes="cacac"
         inkscape:connector-curvature="0"
         id="path4779-2"
         d="m 140.42517,98.828088 c 0,0 0.56966,-0.697797 0.97275,-0.84796 0.41089,-0.153474 1.31583,0.005 1.31583,0.005 0,0 -0.58998,0.709236 -1.00419,0.859283 -0.40256,0.145824 -1.28439,-0.01631 -1.28439,-0.01631 z"
         style="fill:#000000;fill-opacity:1;stroke:none;stroke-width:0.26458332px;stroke-linecap:butt;stroke-linejoin:miter;stroke-opacity:1" />
      <path
         sodipodi:nodetypes="cacac"
         inkscape:connector-curvature="0"
         id="path4779-05"
         d="m 136.83436,100.66616 c 0,0 0.47001,-0.768451 0.84908,-0.971768 0.38635,-0.207655 1.30439,-0.173088 1.30439,-0.173088 0,0 -0.48858,0.782536 -0.87869,0.987246 -0.37913,0.19895 -1.27478,0.15761 -1.27478,0.15761 z"
         style="fill:#000000;fill-opacity:1;stroke:none;stroke-width:0.26458332px;stroke-linecap:butt;stroke-linejoin:miter;stroke-opacity:1" />
      <path
         sodipodi:nodetypes="cacac"
         inkscape:connector-curvature="0"
         id="path4779-21"
         d="m 133.97904,103.38194 c 0,0 0.22089,-0.87329 0.52257,-1.17991 0.30736,-0.31291 1.19434,-0.55224 1.19434,-0.55224 0,0 -0.23446,0.89224 -0.54626,1.20347 -0.30306,0.30246 -1.17065,0.52868 -1.17065,0.52868 z"
         style="fill:#000000;fill-opacity:1;stroke:none;stroke-width:0.26458332px;stroke-linecap:butt;stroke-linejoin:miter;stroke-opacity:1" />
      <path
         sodipodi:nodetypes="cacac"
         inkscape:connector-curvature="0"
         id="path4779-1"
         d="m 132.17927,106.99156 c 0,0 -0.11027,-0.89402 0.0599,-1.28907 0.17322,-0.40297 0.91337,-0.94719 0.91337,-0.94719 0,0 0.10449,0.91661 -0.0735,1.31961 -0.17298,0.39166 -0.89982,0.91665 -0.89982,0.91665 z"
         style="fill:#000000;fill-opacity:1;stroke:none;stroke-width:0.26458332px;stroke-linecap:butt;stroke-linejoin:miter;stroke-opacity:1" />
      <path
         sodipodi:nodetypes="cacac"
         inkscape:connector-curvature="0"
         id="path4779-77"
         d="m 131.13664,110.57475 c 0,0 -0.19588,-0.87923 -0.0645,-1.28884 0.13359,-0.41778 0.81789,-1.03077 0.81789,-1.03077 0,0 0.19229,0.90228 0.054,1.32055 -0.13444,0.4065 -0.80733,0.99906 -0.80733,0.99906 z"
         style="fill:#000000;fill-opacity:1;stroke:none;stroke-width:0.26458332px;stroke-linecap:butt;stroke-linejoin:miter;stroke-opacity:1" />
      <path
         sodipodi:nodetypes="ccccc"
         inkscape:connector-curvature="0"
         id="path4856"
         d="m 146.64751,99.115529 5.07559,-2.635706 -5.54901,-1.336197 1.71503,1.805135 z"
         style="fill:#000000;fill-opacity:1;stroke:none;stroke-width:0.26458332px;stroke-linecap:butt;stroke-linejoin:miter;stroke-opacity:1" />
      <path
         sodipodi:nodetypes="ccccc"
         inkscape:connector-curvature="0"
         id="path4856-3"
         d="m 162.76723,120.04388 0.12311,-5.71781 -3.83502,4.22722 2.4067,-0.63846 z"
         style="fill:#000000;fill-opacity:1;stroke:none;stroke-width:0.26458332px;stroke-linecap:butt;stroke-linejoin:miter;stroke-opacity:1" />
      <path
         inkscape:connector-curvature="0"
         id="path4873"
         d="m 129.98837,120.58621 h 0.70871 v -5.04362 l -1.85445,1.21661 v 0.79139 l 1.12212,-0.63784 z"
         style="fill:#fffff8;fill-opacity:1;stroke:none;stroke-width:0.26458332px;stroke-linecap:butt;stroke-linejoin:miter;stroke-opacity:1" />
      <path
         sodipodi:nodetypes="ccccsaaaaccaaaasc"
         inkscape:connector-curvature="0"
         id="path4875"
         d="m 140.09494,119.79136 1.75244,-0.008 v 0.82682 h -3.38998 l 2.19699,-3.17736 c 0.0923,-0.13342 0.20193,-0.40943 0.18309,-0.62603 -0.0135,-0.15525 -0.0937,-0.31201 -0.20672,-0.41931 -0.13365,-0.12691 -0.3249,-0.19672 -0.50791,-0.21852 -0.16261,-0.0194 -0.33517,0.015 -0.48428,0.0827 -0.22423,0.10184 -0.57286,0.46657 -0.57286,0.46657 l -0.49019,-0.50791 c 0,0 0.5008,-0.49671 0.81573,-0.63813 0.24987,-0.1122 0.53637,-0.17941 0.80839,-0.14735 0.35891,0.0423 0.73576,0.18238 0.99218,0.43704 0.23883,0.2372 0.37939,0.58643 0.41341,0.92131 0.0338,0.3331 -0.069,0.74569 -0.21852,0.98038 z"
         style="fill:#fffff8;fill-opacity:1;stroke:none;stroke-width:0.1;stroke-linecap:butt;stroke-linejoin:miter;stroke-miterlimit:4;stroke-dasharray:none;stroke-opacity:1" />
      <path
         sodipodi:nodetypes="ccsaaccaaaccaaacaascc"
         inkscape:connector-curvature="0"
         id="path4877"
         d="m 159.58863,94.706653 -0.0118,0.572869 c 0,0 0.58006,-0.04749 0.80321,0.419319 0.11239,0.235122 0.11214,0.532906 -0.0119,0.750047 -0.11787,0.206411 -0.37156,0.350975 -0.60831,0.372068 -0.31353,0.02793 -0.87998,-0.34254 -0.87998,-0.34254 l -0.36616,0.324824 c 0,0 0.24362,0.584307 0.17718,0.874069 -0.0603,0.262887 -0.23809,0.547873 -0.49019,0.64374 -0.25875,0.0984 -0.60514,0.02105 -0.81502,-0.159458 -0.23935,-0.205851 -0.31891,-0.891786 -0.31891,-0.891786 l -0.66146,-1.2e-5 c 0,0 0.13477,0.990234 0.45238,1.337594 0.30114,0.329353 0.77959,0.570034 1.22488,0.540473 0.44988,-0.02987 0.89821,-0.333848 1.15444,-0.704826 0.18963,-0.274536 0.18535,-0.983659 0.18535,-0.983659 0,0 0.73222,0.02868 1.03442,-0.144171 0.31074,-0.177737 0.58464,-0.493303 0.66706,-0.841674 0.0961,-0.406097 0.018,-0.895737 -0.25555,-1.225558 -0.4298,-0.51835 -1.27971,-0.541314 -1.27971,-0.541314 z"
         style="fill:#ffffff;fill-opacity:1;stroke:#000000;stroke-width:0.1;stroke-linecap:butt;stroke-linejoin:miter;stroke-miterlimit:4;stroke-dasharray:none;stroke-opacity:1" />
      <path
         sodipodi:nodetypes="cccccccccc"
         inkscape:connector-curvature="0"
         id="path4879"
         d="m 164.62652,107.15076 1.02787,-0.89507 0.37105,0.36473 0.48572,-0.44742 -0.36068,-0.38489 2.46866,-2.23875 -5.41061,0.0626 1.819,1.9734 -1.0213,0.89769 z"
         style="fill:#ffffff;fill-opacity:1;stroke:#000000;stroke-width:0.1;stroke-linecap:butt;stroke-linejoin:miter;stroke-miterlimit:4;stroke-dasharray:none;stroke-opacity:1" />
      <path
         sodipodi:nodetypes="cccc"
         inkscape:connector-curvature="0"
         id="path4881"
         d="m 164.72154,104.2698 1.82914,-0.0331 -1.01897,0.90204 z"
         style="fill:#000000;fill-opacity:1;stroke:#000000;stroke-width:0.1;stroke-linecap:butt;stroke-linejoin:miter;stroke-miterlimit:4;stroke-dasharray:none;stroke-opacity:1" />
    </g>
  </g>
</svg>
