<?xml version="1.0" encoding="UTF-8" standalone="no"?>
<svg
   xmlns:dc="http://purl.org/dc/elements/1.1/"
   xmlns:cc="http://creativecommons.org/ns#"
   xmlns:rdf="http://www.w3.org/1999/02/22-rdf-syntax-ns#"
   xmlns:svg="http://www.w3.org/2000/svg"
   xmlns="http://www.w3.org/2000/svg"
   xmlns:sodipodi="http://sodipodi.sourceforge.net/DTD/sodipodi-0.dtd"
   xmlns:inkscape="http://www.inkscape.org/namespaces/inkscape"
   width="43.39167mm"
   height="44.692566mm"
   viewBox="0 0 43.39167 44.692566"
   version="1.1"
   id="svg8"
   inkscape:version="0.92.0 r15299"
   sodipodi:docname="simple-ethnography.svg">
  <metadata
     id="metadata18479">
    <rdf:RDF>
      <cc:Work
         rdf:about="">
        <dc:format>image/svg+xml</dc:format>
        <dc:type
           rdf:resource="http://purl.org/dc/dcmitype/StillImage" />
      </cc:Work>
    </rdf:RDF>
  </metadata>
  <defs
     id="defs18477" />
  <sodipodi:namedview
     pagecolor="#ffffff"
     bordercolor="#666666"
     borderopacity="1"
     objecttolerance="10"
     gridtolerance="10"
     guidetolerance="10"
     inkscape:pageopacity="0"
     inkscape:pageshadow="2"
     inkscape:window-width="640"
     inkscape:window-height="480"
     id="namedview18475"
     showgrid="false"
     inkscape:zoom="0.22896901"
     inkscape:cx="-355"
     inkscape:cy="421.5"
     inkscape:window-x="0"
     inkscape:window-y="0"
     inkscape:window-maximized="0"
     inkscape:current-layer="layer29" />
  <g
     inkscape:groupmode="layer"
     id="layer29"
     inkscape:label="simpleethnography"
     sodipodi:insensitive="true"
     transform="translate(-303.0802,-185.23034)">
    <g
       id="g1150">
      <path
         sodipodi:nodetypes="cccsccccsacscscscccccaccac"
         inkscape:connector-curvature="0"
         id="path1096"
         d="m 308.50416,221.52239 4.16719,-7.67292 -9.59115,-12.23698 c 0,0 0.52003,-1.47762 1.90689,-2.34984 1.61152,-1.01352 3.45093,-0.56057 3.45093,-0.56057 l 6.61458,9.92187 9.19427,-21.10052 1.38906,0.46302 c 0,0 0.52746,-1.56597 1.83555,-2.29857 1.02935,-0.57649 2.19271,-0.53985 3.24115,-0.26458 0.63733,0.16733 1.6371,1.10795 1.6371,1.10795 0,0 1.02,-0.3281 2.39779,0.18189 0.8721,0.32281 1.60404,1.4056 1.60404,1.4056 0,0 1.14043,-0.17228 2.14974,0.26458 0.9465,0.40969 1.35599,1.19063 1.35599,1.19063 0,0 1.94956,0.004 2.92695,0.67799 2.38706,1.64604 1.50482,4.54753 1.50482,4.54753 l 0.92604,0.59531 -0.52917,1.32292 1.78594,0.79375 -0.66146,30.8901 c 0,0 -5.11409,-2.35281 -7.54062,-3.77031 -1.83756,-1.07344 -5.29167,-3.57187 -5.29167,-3.57187 l -4.49792,8.86354 c 0,0 -5.27958,-0.96543 -7.77213,-1.91823 -4.30258,-1.64471 -12.20391,-6.48229 -12.20391,-6.48229 z"
         style="fill:#00000f;fill-opacity:1;stroke:none;stroke-width:0.26458332px;stroke-linecap:butt;stroke-linejoin:miter;stroke-opacity:1" />
      <path
         sodipodi:nodetypes="caccacc"
         inkscape:connector-curvature="0"
         id="path1098"
         d="m 304.55312,201.34223 c 0,0 0.76913,-0.96338 1.28819,-1.27047 0.49197,-0.29107 1.64327,-0.49041 1.64327,-0.49041 l 1.31724,1.79963 c 0,0 -1.41438,0.23126 -2.02313,0.57995 -0.38089,0.21817 -0.95343,0.90833 -0.95343,0.90833 z"
         style="fill:#ffffff;fill-opacity:1;stroke:none;stroke-width:0.26458332px;stroke-linecap:butt;stroke-linejoin:miter;stroke-opacity:1" />
      <path
         inkscape:connector-curvature="0"
         id="path1100"
         d="m 318.84585,219.73024 1.21608,-0.49111 0.74837,-0.6782 0.91205,3.22728 z"
         style="fill:#ffffff;fill-opacity:1;stroke:none;stroke-width:0.26458332px;stroke-linecap:butt;stroke-linejoin:miter;stroke-opacity:1" />
      <path
         sodipodi:nodetypes="ccccccacacscaccaccaccaccaccaccaccaccc"
         inkscape:connector-curvature="0"
         id="path1102"
         d="m 316.03952,209.30004 5.37882,7.76418 2.29182,7.57709 -6.87551,-4.58367 -3.36759,-4.86431 -2.99342,5.65944 c 0,0 5.11627,3.41278 7.90451,4.67721 2.959,1.34187 9.26089,3.04019 9.26089,3.04019 0,0 5.62009,-10.65958 8.32543,-16.04285 2.73161,-5.43554 7.982,-16.41184 7.982,-16.41184 0,0 -1.58313,-0.95586 -2.40709,-1.37362 -1.16793,-0.59216 -3.58709,-1.6016 -3.58709,-1.6016 0,0 -0.0647,1.18962 0.21047,1.6838 0.27778,0.49886 1.33303,1.07576 1.33303,1.07576 l -0.39757,1.14591 c 0,0 -1.70619,-1.17107 -2.15153,-2.05797 -0.3419,-0.6809 -0.28062,-2.26845 -0.28062,-2.26845 l -2.47894,-0.86529 c 0,0 0.01,1.11056 0.28065,1.56687 0.28579,0.4816 1.30961,1.05237 1.30961,1.05237 l -0.42096,0.98222 c 0,0 -1.6908,-1.10953 -2.15151,-1.96443 -0.32953,-0.61148 -0.32739,-2.05798 -0.32739,-2.05798 l -2.43216,-0.88867 c 0,0 0.10352,1.08669 0.39756,1.5201 0.28798,0.42448 1.23944,0.91206 1.23944,0.91206 l -0.39756,1.00559 c 0,0 -1.55245,-0.97442 -2.0112,-1.73056 -0.33641,-0.55449 -0.44432,-1.89428 -0.44432,-1.89428 l -2.40876,-0.91205 c 0,0 -0.001,0.82238 0.18708,1.1693 0.26064,0.48023 1.21608,1.09914 1.21608,1.09914 l -0.51451,1.02899 c 0,0 -1.42619,-1.02389 -1.87087,-1.75395 -0.31193,-0.51212 -0.49112,-1.73057 -0.49112,-1.73057 l -0.65481,-0.30402 z"
         style="fill:#fffff9;fill-opacity:1;stroke:none;stroke-width:0.26458332px;stroke-linecap:butt;stroke-linejoin:miter;stroke-opacity:1" />
      <path
         sodipodi:nodetypes="ccacsc"
         inkscape:connector-curvature="0"
         id="path1104"
         d="m 326.79714,188.32272 2.59585,0.95883 c 0,0 0.28458,-0.8801 0.56127,-1.23946 0.33126,-0.43024 1.26283,-1.02899 1.26283,-1.02899 0,0 -1.15563,-0.8707 -2.63093,-0.53788 -1.15171,0.25982 -1.78902,1.8475 -1.78902,1.8475 z"
         style="fill:#fffffb;fill-opacity:1;stroke:none;stroke-width:0.26458332px;stroke-linecap:butt;stroke-linejoin:miter;stroke-opacity:1" />
      <path
         sodipodi:nodetypes="ccacac"
         inkscape:connector-curvature="0"
         id="path1106"
         d="m 330.49212,189.5388 1.52011,0.53788 c 0,0 0.23117,-0.72668 0.21048,-1.09915 -0.019,-0.3422 -0.30403,-0.98221 -0.30403,-0.98221 0,0 -0.76842,0.27931 -1.02898,0.57296 -0.23203,0.26149 -0.39758,0.97052 -0.39758,0.97052 z"
         style="fill:#fffffb;fill-opacity:1;stroke:none;stroke-width:0.26458332px;stroke-linecap:butt;stroke-linejoin:miter;stroke-opacity:1" />
      <path
         sodipodi:nodetypes="ccscacacc"
         inkscape:connector-curvature="0"
         id="path1108"
         d="m 333.10228,190.39116 0.24194,0.0768 c 0,0 0.32017,-0.70999 0.76933,-1.21361 0.49446,-0.55444 1.07919,-0.81474 1.07919,-0.81474 0,0 -0.42842,-0.5997 -0.74835,-0.74836 -0.41859,-0.1945 -1.37978,-0.11693 -1.37978,-0.11693 0,0 0.24627,0.86487 0.25723,1.30962 0.0125,0.50754 -0.21956,1.50717 -0.21956,1.50717 z"
         style="fill:#fffffb;fill-opacity:1;stroke:none;stroke-width:0.26458332px;stroke-linecap:butt;stroke-linejoin:miter;stroke-opacity:1" />
      <path
         sodipodi:nodetypes="cacacc"
         inkscape:connector-curvature="0"
         id="path1110"
         d="m 334.28751,190.77567 c 0,0 0.31458,-0.7254 0.60122,-0.97962 0.23747,-0.21061 0.86527,-0.39757 0.86527,-0.39757 0,0 0.30881,0.68727 0.30403,1.05238 -0.004,0.30598 -0.27781,0.87497 -0.27781,0.87497 z"
         style="fill:#fffffb;fill-opacity:1;stroke:none;stroke-width:0.26458332px;stroke-linecap:butt;stroke-linejoin:miter;stroke-opacity:1" />
      <path
         sodipodi:nodetypes="cscsccac"
         inkscape:connector-curvature="0"
         id="path1112"
         d="m 336.85316,189.11785 c 0,0 0.68442,-0.22371 1.33299,0.0702 0.41861,0.1897 0.79513,0.74835 0.79513,0.74835 0,0 -0.77904,0.40468 -1.13057,0.6645 -0.19184,0.14179 -0.73774,1.08586 -0.73774,1.08586 l -0.31769,-0.11901 c 0,0 0.21035,-0.82809 0.21874,-1.25149 0.008,-0.40297 -0.16086,-1.19841 -0.16086,-1.19841 z"
         style="fill:#fffffb;fill-opacity:1;stroke:none;stroke-width:0.26499999;stroke-linecap:butt;stroke-linejoin:miter;stroke-miterlimit:4;stroke-dasharray:none;stroke-opacity:1" />
      <path
         sodipodi:nodetypes="cacacc"
         inkscape:connector-curvature="0"
         id="path1114"
         d="m 338.16276,192.01772 c 0,0 0.26277,-0.56966 0.49112,-0.77173 0.23628,-0.20909 0.85442,-0.40725 0.85442,-0.40725 0,0 0.15562,0.63037 0.15685,0.95197 0.001,0.27483 -0.1278,0.81451 -0.1278,0.81451 z"
         style="fill:#fffffb;fill-opacity:1;stroke:none;stroke-width:0.26458332px;stroke-linecap:butt;stroke-linejoin:miter;stroke-opacity:1" />
      <path
         sodipodi:nodetypes="csccac"
         inkscape:connector-curvature="0"
         id="path1116"
         d="m 340.56185,190.61055 c 0,0 1.61069,-0.0702 2.4116,1.20473 0.78079,1.24296 0.19393,2.42412 0.19393,2.42412 l -2.57246,-1.21607 c 0,0 0.19923,-0.86882 0.18709,-1.30963 -0.0103,-0.37483 -0.22016,-1.10315 -0.22016,-1.10315 z"
         style="fill:#fffffb;fill-opacity:1;stroke:none;stroke-width:0.26458332px;stroke-linecap:butt;stroke-linejoin:miter;stroke-opacity:1" />
      <path
         sodipodi:nodetypes="caac"
         inkscape:connector-curvature="0"
         id="path1118"
         d="m 323.78033,197.23282 c 0,0 0.1101,1.48671 0.65482,1.8475 1.0808,0.71586 2.79256,-0.93638 3.88207,-0.23386 0.47696,0.30754 0.60804,1.59026 0.60804,1.59026"
         style="fill:none;stroke:#000000;stroke-width:0.96499997;stroke-linecap:round;stroke-linejoin:miter;stroke-miterlimit:4;stroke-dasharray:none;stroke-opacity:1" />
      <path
         sodipodi:nodetypes="caac"
         inkscape:connector-curvature="0"
         id="path1120"
         d="m 322.00299,201.37216 c 0,0 0.19565,1.45861 0.74835,1.80073 0.97,0.60043 2.449,-0.8417 3.41437,-0.23386 0.62473,0.39336 0.81851,2.05797 0.81851,2.05797"
         style="fill:none;stroke:#000000;stroke-width:0.96499997;stroke-linecap:round;stroke-linejoin:miter;stroke-miterlimit:4;stroke-dasharray:none;stroke-opacity:1" />
      <path
         sodipodi:nodetypes="caaaaaac"
         inkscape:connector-curvature="0"
         id="path1122"
         d="m 319.66437,205.72197 c 0,0 -0.1524,1.70718 0.44434,2.10475 1.01024,0.67307 2.51642,-1.26688 3.57806,-0.6782 0.65833,0.36504 0.15027,1.75818 0.81852,2.10475 0.86268,0.44741 1.95023,-1.11496 2.82972,-0.70158 0.86142,0.40489 0.39922,2.12528 1.23947,2.57246 1.10554,0.58836 2.56447,-1.0246 3.71837,-0.53787 0.68385,0.28846 1.30963,1.80072 1.30963,1.80072"
         style="fill:none;stroke:#000000;stroke-width:0.96499997;stroke-linecap:round;stroke-linejoin:miter;stroke-miterlimit:4;stroke-dasharray:none;stroke-opacity:1" />
      <path
         sodipodi:nodetypes="caaaaaac"
         inkscape:connector-curvature="0"
         id="path1124"
         d="m 317.65316,210.35242 c 0,0 -0.20967,1.56412 0.32743,1.94104 1.07011,0.75097 2.74585,-1.38763 3.8587,-0.70158 0.70551,0.43493 -0.0304,1.99667 0.70157,2.38538 0.81652,0.4336 1.80158,-1.22574 2.64264,-0.8419 0.77196,0.3523 0.27746,1.90289 1.0056,2.33861 1.08768,0.65088 2.62306,-0.82576 3.78854,-0.32741 0.6526,0.27905 1.333,1.66041 1.333,1.66041"
         style="fill:none;stroke:#000000;stroke-width:0.96499997;stroke-linecap:round;stroke-linejoin:miter;stroke-miterlimit:4;stroke-dasharray:none;stroke-opacity:1" />
      <path
         sodipodi:nodetypes="caaac"
         inkscape:connector-curvature="0"
         id="path1126"
         d="m 329.13574,220.92292 c 0,0 -0.57732,-1.43212 -1.21608,-1.73057 -1.26158,-0.58945 -2.98588,1.09516 -4.16272,0.3508 -0.73176,-0.46284 -0.1742,-1.97909 -0.91204,-2.43216 -1.02263,-0.62795 -3.5781,0.39757 -3.5781,0.39757"
         style="fill:none;stroke:#000000;stroke-width:0.96499997;stroke-linecap:round;stroke-linejoin:miter;stroke-miterlimit:4;stroke-dasharray:none;stroke-opacity:1" />
      <path
         sodipodi:nodetypes="aaaaaaaaa"
         inkscape:connector-curvature="0"
         id="path1128"
         d="m 333.83635,200.53026 c 0.0512,-0.27471 0.19637,-0.55869 0.42095,-0.72497 0.30241,-0.2239 0.72505,-0.29785 1.09913,-0.25725 0.39517,0.0429 0.82262,0.20804 1.07577,0.5145 0.21555,0.26093 0.28853,0.64521 0.25726,0.98221 -0.0287,0.30902 -0.14222,0.66551 -0.39757,0.8419 -0.28311,0.19556 -0.6922,0.15231 -1.029,0.0819 -0.48474,-0.1014 -1.0226,-0.298 -1.30962,-0.70158 -0.1441,-0.20261 -0.16249,-0.49225 -0.11692,-0.73666 z"
         style="fill:#ffffff;fill-opacity:1;stroke:#000000;stroke-width:0.565;stroke-linecap:butt;stroke-linejoin:miter;stroke-miterlimit:4;stroke-dasharray:none;stroke-opacity:1" />
      <path
         sodipodi:nodetypes="cssssccscscscscc"
         inkscape:connector-curvature="0"
         id="path1130"
         d="m 331.39567,200.77264 c 0,0 0.84539,0.081 1.254,0.18943 0.45026,0.11944 0.87464,0.32199 1.3036,0.50363 0.41112,0.17408 0.81139,0.37274 1.21608,0.56127 0.55227,0.25729 1.14854,0.43768 1.65406,0.77776 0.39829,0.26795 1.05874,0.97619 1.05874,0.97619 l -2.68941,-0.0935 c 0,0 -0.38376,2.21374 -0.81851,3.23897 -0.20227,0.47699 -0.81852,1.32132 -0.81852,1.32132 0,0 -0.34186,-0.9997 -0.40926,-1.52009 -0.0931,-0.71897 0.0117,-2.17491 0.0117,-2.17491 0,0 -1.35484,1.06411 -2.12812,1.42655 -0.37523,0.17587 -1.19269,0.35079 -1.19269,0.35079 0,0 0.25296,-0.94965 0.51448,-1.35639 0.58131,-0.90413 2.26846,-2.29184 2.26846,-2.29184 z"
         style="fill:#fffffb;fill-opacity:1;stroke:#000000;stroke-width:0.565;stroke-linecap:butt;stroke-linejoin:miter;stroke-miterlimit:4;stroke-dasharray:none;stroke-opacity:1" />
    </g>
  </g>
</svg>
