<?xml version="1.0" encoding="UTF-8" standalone="no"?>
<svg
   xmlns:dc="http://purl.org/dc/elements/1.1/"
   xmlns:cc="http://creativecommons.org/ns#"
   xmlns:rdf="http://www.w3.org/1999/02/22-rdf-syntax-ns#"
   xmlns:svg="http://www.w3.org/2000/svg"
   xmlns="http://www.w3.org/2000/svg"
   xmlns:sodipodi="http://sodipodi.sourceforge.net/DTD/sodipodi-0.dtd"
   xmlns:inkscape="http://www.inkscape.org/namespaces/inkscape"
   width="46.421371mm"
   height="45.182903mm"
   viewBox="0 0 46.421371 45.182904"
   version="1.1"
   id="svg8"
   inkscape:version="0.92.0 r15299"
   sodipodi:docname="social-network-webbing.svg">
  <metadata
     id="metadata19048">
    <rdf:RDF>
      <cc:Work
         rdf:about="">
        <dc:format>image/svg+xml</dc:format>
        <dc:type
           rdf:resource="http://purl.org/dc/dcmitype/StillImage" />
      </cc:Work>
    </rdf:RDF>
  </metadata>
  <defs
     id="defs19046" />
  <sodipodi:namedview
     pagecolor="#ffffff"
     bordercolor="#666666"
     borderopacity="1"
     objecttolerance="10"
     gridtolerance="10"
     guidetolerance="10"
     inkscape:pageopacity="0"
     inkscape:pageshadow="2"
     inkscape:window-width="640"
     inkscape:window-height="480"
     id="namedview19044"
     showgrid="false"
     inkscape:zoom="0.23782417"
     inkscape:cx="-121.88875"
     inkscape:cy="443.5244"
     inkscape:window-x="0"
     inkscape:window-y="0"
     inkscape:window-maximized="0"
     inkscape:current-layer="layer25" />
  <g
     inkscape:groupmode="layer"
     id="layer25"
     inkscape:label="socialnetworkwebbing"
     style="display:inline"
     sodipodi:insensitive="true"
     transform="translate(-241.40285,-190.5673)">
    <g
       id="g4871">
      <circle
         r="18.362152"
         cy="214.67628"
         cx="264.28568"
         id="path4776"
         style="opacity:1;fill:none;fill-opacity:1;stroke:#000000;stroke-width:0.95200002;stroke-linecap:round;stroke-miterlimit:4;stroke-dasharray:1.90400011, 3.80800021;stroke-dashoffset:0;stroke-opacity:1" />
      <path
         sodipodi:nodetypes="ccaaaacccsscccsccsscc"
         inkscape:connector-curvature="0"
         id="path4778"
         d="m 244.68859,222.84058 3.50791,-0.46772 c 0,0 0.13282,-0.66847 0.3274,-0.93544 0.21306,-0.29231 0.52159,-0.54211 0.8653,-0.65481 0.52597,-0.17247 1.13409,-0.14803 1.66041,0.0234 0.37223,0.12124 0.74419,0.35081 0.95883,0.67821 0.20956,0.31964 0.2339,1.12252 0.2339,1.12252 l 4.23288,1.12253 0.0935,0.46773 c 0,0 -1.5556,0.77129 -2.54908,1.3213 -0.39599,0.21923 -0.51564,0.70916 -0.5145,0.94714 0.004,0.73723 0.25725,6.5715 0.25725,6.5715 l -1.05237,0.0234 -2.78295,-4.30304 c 0,0 -1.42825,1.43388 -2.22167,2.05797 -0.7868,0.61888 -2.50231,1.66041 -2.50231,1.66041 l -0.6782,-0.21047 c 0,0 2.68032,-5.06235 2.80633,-5.5425 0.0843,-0.32105 0.075,-0.75162 -0.1637,-0.98222 -0.5395,-0.5211 -2.50232,-2.36199 -2.50232,-2.36199 z"
         style="fill:#000000;fill-opacity:1;stroke:none;stroke-width:0.26458332px;stroke-linecap:butt;stroke-linejoin:miter;stroke-opacity:1" />
      <path
         sodipodi:nodetypes="aaaaaaaaa"
         inkscape:connector-curvature="0"
         id="path4780"
         d="m 249.07213,222.53111 c -0.0861,-0.24435 -0.11634,-0.54573 0,-0.77721 0.1203,-0.23937 0.38673,-0.40814 0.64493,-0.47956 0.37374,-0.10338 0.80953,-0.0553 1.15755,0.11576 0.24496,0.12039 0.45663,0.34362 0.56224,0.59531 0.11311,0.26959 0.15136,0.60909 0.0331,0.87643 -0.11081,0.25042 -0.36737,0.44636 -0.62839,0.52917 -0.36913,0.1171 -0.81576,0.0829 -1.15755,-0.0992 -0.2872,-0.15299 -0.50372,-0.45378 -0.61183,-0.7607 z"
         style="fill:#ffffff;fill-opacity:1;stroke:none;stroke-width:0.26458332px;stroke-linecap:butt;stroke-linejoin:miter;stroke-opacity:1" />
      <path
         sodipodi:nodetypes="ccaaaacccsscccsccsscc"
         inkscape:connector-curvature="0"
         id="path4778-0"
         d="m 269.44276,225.53043 3.50791,-0.46772 c 0,0 0.13282,-0.66847 0.3274,-0.93544 0.21306,-0.29231 0.52159,-0.54211 0.8653,-0.65481 0.52597,-0.17247 1.13409,-0.14803 1.66041,0.0234 0.37223,0.12124 0.74419,0.35081 0.95883,0.67821 0.20956,0.31964 0.2339,1.12252 0.2339,1.12252 l 4.23288,1.12253 0.0935,0.46773 c 0,0 -1.5556,0.77129 -2.54908,1.3213 -0.39599,0.21923 -0.51564,0.70916 -0.5145,0.94714 0.004,0.73723 0.25725,6.57151 0.25725,6.57151 l -1.05237,0.0234 -2.78295,-4.30304 c 0,0 -1.42825,1.43388 -2.22167,2.05797 -0.7868,0.61887 -2.50231,1.6604 -2.50231,1.6604 l -0.6782,-0.21046 c 0,0 2.68032,-5.06236 2.80633,-5.54251 0.0843,-0.32105 0.075,-0.75162 -0.1637,-0.98222 -0.5395,-0.5211 -2.50232,-2.36199 -2.50232,-2.36199 z"
         style="fill:#000000;fill-opacity:1;stroke:none;stroke-width:0.26458332px;stroke-linecap:butt;stroke-linejoin:miter;stroke-opacity:1" />
      <path
         sodipodi:nodetypes="aaaaaaaaa"
         inkscape:connector-curvature="0"
         id="path4780-7"
         d="m 273.8263,225.22096 c -0.0861,-0.24435 -0.11634,-0.54573 0,-0.77721 0.1203,-0.23937 0.38673,-0.40814 0.64493,-0.47956 0.37374,-0.10338 0.80953,-0.0553 1.15755,0.11576 0.24496,0.12039 0.45663,0.34362 0.56224,0.59531 0.11311,0.26959 0.15136,0.60909 0.0331,0.87643 -0.11081,0.25042 -0.36737,0.44636 -0.62839,0.52917 -0.36913,0.1171 -0.81576,0.0829 -1.15755,-0.0992 -0.2872,-0.15299 -0.50372,-0.45378 -0.61183,-0.7607 z"
         style="fill:#ffffff;fill-opacity:1;stroke:none;stroke-width:0.26458332px;stroke-linecap:butt;stroke-linejoin:miter;stroke-opacity:1" />
      <path
         sodipodi:nodetypes="ccaaaacccsscccsccsscc"
         inkscape:connector-curvature="0"
         id="path4778-5"
         d="m 275.94409,206.07322 3.50791,-0.46772 c 0,0 0.13282,-0.66847 0.3274,-0.93544 0.21306,-0.29231 0.52159,-0.54211 0.8653,-0.65481 0.52597,-0.17247 1.13409,-0.14803 1.66041,0.0234 0.37223,0.12124 0.74419,0.35081 0.95883,0.67821 0.20956,0.31964 0.2339,1.12252 0.2339,1.12252 l 4.23288,1.12253 0.0935,0.46773 c 0,0 -1.5556,0.77129 -2.54908,1.3213 -0.39599,0.21923 -0.51564,0.70916 -0.5145,0.94714 0.004,0.73723 0.25725,6.5715 0.25725,6.5715 l -1.05237,0.0234 -2.78295,-4.30304 c 0,0 -1.42825,1.43388 -2.22167,2.05797 -0.7868,0.61887 -2.50231,1.6604 -2.50231,1.6604 l -0.6782,-0.21046 c 0,0 2.68032,-5.06235 2.80633,-5.5425 0.0843,-0.32105 0.075,-0.75162 -0.1637,-0.98222 -0.5395,-0.5211 -2.50232,-2.36199 -2.50232,-2.36199 z"
         style="fill:#000000;fill-opacity:1;stroke:none;stroke-width:0.26458332px;stroke-linecap:butt;stroke-linejoin:miter;stroke-opacity:1" />
      <path
         sodipodi:nodetypes="aaaaaaaaa"
         inkscape:connector-curvature="0"
         id="path4780-2"
         d="m 280.32763,205.76375 c -0.0861,-0.24435 -0.11634,-0.54573 0,-0.77721 0.1203,-0.23937 0.38673,-0.40814 0.64493,-0.47956 0.37374,-0.10338 0.80953,-0.0553 1.15755,0.11576 0.24496,0.12039 0.45663,0.34362 0.56224,0.59531 0.11311,0.26959 0.15136,0.60909 0.0331,0.87643 -0.11081,0.25042 -0.36737,0.44636 -0.62839,0.52917 -0.36913,0.1171 -0.81576,0.0829 -1.15755,-0.0992 -0.2872,-0.15299 -0.50372,-0.45378 -0.61183,-0.7607 z"
         style="fill:#ffffff;fill-opacity:1;stroke:none;stroke-width:0.26458332px;stroke-linecap:butt;stroke-linejoin:miter;stroke-opacity:1" />
      <path
         sodipodi:nodetypes="ccaaaacccsscccsccsscc"
         inkscape:connector-curvature="0"
         id="path4778-04"
         d="m 260.46251,192.74315 3.50791,-0.46772 c 0,0 0.13282,-0.66847 0.3274,-0.93544 0.21306,-0.29231 0.52159,-0.54211 0.8653,-0.65481 0.52597,-0.17247 1.13409,-0.14803 1.66041,0.0234 0.37223,0.12124 0.74419,0.35081 0.95883,0.67821 0.20956,0.31964 0.2339,1.12252 0.2339,1.12252 l 4.23288,1.12253 0.0935,0.46773 c 0,0 -1.5556,0.77129 -2.54908,1.3213 -0.39599,0.21923 -0.51564,0.70916 -0.5145,0.94714 0.004,0.73723 0.25725,6.5715 0.25725,6.5715 l -1.05237,0.0234 -2.78295,-4.30304 c 0,0 -1.42825,1.43388 -2.22167,2.05797 -0.7868,0.61888 -2.50231,1.66041 -2.50231,1.66041 l -0.6782,-0.21047 c 0,0 2.68032,-5.06235 2.80633,-5.5425 0.0843,-0.32105 0.075,-0.75162 -0.1637,-0.98222 -0.5395,-0.5211 -2.50232,-2.36199 -2.50232,-2.36199 z"
         style="fill:#000000;fill-opacity:1;stroke:none;stroke-width:0.26458332px;stroke-linecap:butt;stroke-linejoin:miter;stroke-opacity:1" />
      <path
         sodipodi:nodetypes="aaaaaaaaa"
         inkscape:connector-curvature="0"
         id="path4780-3"
         d="m 264.84605,192.43368 c -0.0861,-0.24435 -0.11634,-0.54573 0,-0.77721 0.1203,-0.23937 0.38673,-0.40814 0.64493,-0.47956 0.37374,-0.10338 0.80953,-0.0553 1.15755,0.11576 0.24496,0.12039 0.45663,0.34362 0.56224,0.59531 0.11311,0.26959 0.15136,0.60909 0.0331,0.87643 -0.11081,0.25042 -0.36737,0.44636 -0.62839,0.52917 -0.36913,0.1171 -0.81576,0.0829 -1.15755,-0.0992 -0.2872,-0.15299 -0.50372,-0.45378 -0.61183,-0.7607 z"
         style="fill:#ffffff;fill-opacity:1;stroke:none;stroke-width:0.26458332px;stroke-linecap:butt;stroke-linejoin:miter;stroke-opacity:1" />
      <path
         sodipodi:nodetypes="ccaaaacccsscccsccsscc"
         inkscape:connector-curvature="0"
         id="path4778-2"
         d="m 241.56655,202.89271 3.50791,-0.46772 c 0,0 0.13282,-0.66847 0.3274,-0.93544 0.21306,-0.29231 0.52159,-0.54211 0.8653,-0.65481 0.52597,-0.17247 1.13409,-0.14803 1.66041,0.0234 0.37223,0.12124 0.74419,0.35081 0.95883,0.67821 0.20956,0.31964 0.2339,1.12252 0.2339,1.12252 l 4.23288,1.12253 0.0935,0.46773 c 0,0 -1.5556,0.77129 -2.54908,1.3213 -0.39599,0.21923 -0.51564,0.70916 -0.5145,0.94714 0.004,0.73723 0.25725,6.5715 0.25725,6.5715 l -1.05237,0.0234 -2.78295,-4.30304 c 0,0 -1.42825,1.43388 -2.22167,2.05797 -0.7868,0.61888 -2.50231,1.66041 -2.50231,1.66041 l -0.6782,-0.21047 c 0,0 2.68032,-5.06235 2.80633,-5.5425 0.0843,-0.32105 0.075,-0.75162 -0.1637,-0.98222 -0.5395,-0.5211 -2.50232,-2.36199 -2.50232,-2.36199 z"
         style="fill:#000000;fill-opacity:1;stroke:none;stroke-width:0.26458332px;stroke-linecap:butt;stroke-linejoin:miter;stroke-opacity:1" />
      <path
         sodipodi:nodetypes="aaaaaaaaa"
         inkscape:connector-curvature="0"
         id="path4780-8"
         d="m 245.95009,202.58324 c -0.0861,-0.24435 -0.11634,-0.54573 0,-0.77721 0.1203,-0.23937 0.38673,-0.40814 0.64493,-0.47956 0.37374,-0.10338 0.80953,-0.0553 1.15755,0.11576 0.24496,0.12039 0.45663,0.34362 0.56224,0.59531 0.11311,0.26959 0.15136,0.60909 0.0331,0.87643 -0.11081,0.25042 -0.36737,0.44636 -0.62839,0.52917 -0.36913,0.1171 -0.81576,0.0829 -1.15755,-0.0992 -0.2872,-0.15299 -0.50372,-0.45378 -0.61183,-0.7607 z"
         style="fill:#ffffff;fill-opacity:1;stroke:none;stroke-width:0.26458332px;stroke-linecap:butt;stroke-linejoin:miter;stroke-opacity:1" />
      <path
         sodipodi:nodetypes="ccssccsscc"
         inkscape:connector-curvature="0"
         id="path4852"
         d="m 265.42669,207.51601 -3.95221,-0.52917 c 0,0 1.04113,1.03697 1.72806,1.69499 0.61193,0.58616 0.60984,1.13722 0.63665,1.69498 0.0617,1.2836 0.13229,3.853 0.13229,3.853 l 4.63021,0.23151 c 0,0 -0.005,-1.906 -0.0359,-3.00729 -0.0163,-0.57342 0.43268,-0.87323 0.72394,-0.96347 1.33231,-0.41279 2.86648,-0.76552 2.86648,-0.76552 l -4.001,-1.5145"
         style="fill:#ffffff;fill-opacity:1;stroke:#000000;stroke-width:0.465;stroke-linecap:butt;stroke-linejoin:miter;stroke-miterlimit:4;stroke-dasharray:none;stroke-opacity:1" />
      <path
         sodipodi:nodetypes="aaaaaaaaa"
         inkscape:connector-curvature="0"
         id="path4850"
         d="m 265.42669,207.51601 c -0.0241,-0.33592 0.12523,-0.70487 0.3638,-0.94258 0.22988,-0.22905 0.58525,-0.33439 0.90951,-0.34727 0.43049,-0.0171 0.89246,0.10951 1.24023,0.36381 0.23077,0.16875 0.43539,0.42861 0.47956,0.71106 0.0488,0.31195 -0.0715,0.6597 -0.26459,0.90951 -0.22373,0.28945 -0.58064,0.50886 -0.94257,0.56224 -0.42719,0.063 -0.91356,-0.0521 -1.25677,-0.31419 -0.28639,-0.21867 -0.50339,-0.58318 -0.52917,-0.94258 z"
         style="fill:#ffffff;fill-opacity:1;stroke:#000000;stroke-width:0.465;stroke-linecap:butt;stroke-linejoin:miter;stroke-miterlimit:4;stroke-dasharray:none;stroke-opacity:1" />
      <path
         sodipodi:nodetypes="ccsscsccsscc"
         inkscape:connector-curvature="0"
         id="path4848"
         d="m 258.34606,209.86131 -4.23288,0.25725 c 0,0 2.50862,1.93065 3.48453,3.15711 0.18905,0.23758 0.23894,0.63285 0.152,0.92375 -0.66705,2.23192 -2.09305,5.5659 -2.09305,5.5659 0,0 1.7236,-1.2837 2.24507,-1.80073 0.95445,-0.94632 1.53178,-1.95275 1.53178,-1.95275 l 2.8648,5.0514 c 0,0 -0.31332,-5.06944 0.0819,-7.46016 0.0906,-0.54822 0.39704,-1.2631 0.76004,-1.6838 0.76049,-0.88138 2.57247,-2.36199 2.57247,-2.36199 l -4.39657,0.23387"
         style="fill:#ffffff;fill-opacity:1;stroke:#000000;stroke-width:0.465;stroke-linecap:butt;stroke-linejoin:miter;stroke-miterlimit:4;stroke-dasharray:none;stroke-opacity:1" />
      <path
         sodipodi:nodetypes="aaaaaaaaa"
         inkscape:connector-curvature="0"
         id="path4846"
         d="m 258.34606,209.86131 c -0.15482,-0.32354 -0.14934,-0.73992 -0.0234,-1.07576 0.12594,-0.33584 0.39559,-0.65315 0.72497,-0.79513 0.40811,-0.17591 0.91809,-0.13578 1.33301,0.0234 0.3663,0.14053 0.71763,0.41865 0.88867,0.77174 0.14629,0.302 0.16797,0.69268 0.0468,1.0056 -0.13137,0.33926 -0.43817,0.62654 -0.77174,0.77174 -0.40052,0.17434 -0.89667,0.18921 -1.30962,0.0468 -0.36612,-0.12626 -0.72152,-0.39905 -0.88869,-0.74839 z"
         style="fill:#ffffff;fill-opacity:1;stroke:#000000;stroke-width:0.465;stroke-linecap:butt;stroke-linejoin:miter;stroke-miterlimit:4;stroke-dasharray:none;stroke-opacity:1" />
      <path
         sodipodi:nodetypes="ccscccscsscc"
         inkscape:connector-curvature="0"
         id="path4842"
         d="m 268.17991,213.21721 4.19781,1.39147 c 0,0 -1.13698,0.4791 -1.63702,0.77174 -0.47096,0.27562 -1.26287,0.91206 -1.26287,0.91206 l 0.1637,6.78196 -2.99342,-4.34981 c 0,0 -1.61344,1.55553 -2.55492,2.25091 -0.70329,0.51945 -2.30937,1.44409 -2.30937,1.44409 0,0 1.51011,-3.26242 2.32609,-4.89855 0.25302,-0.50734 0.25601,-1.00097 -0.12262,-1.37743 -0.97738,-0.97178 -2.39057,-2.33009 -2.39057,-2.33009 l 3.80024,-0.58466"
         style="fill:#ffffff;fill-opacity:1;stroke:#000000;stroke-width:0.465;stroke-linecap:butt;stroke-linejoin:miter;stroke-miterlimit:4;stroke-dasharray:none;stroke-opacity:1" />
      <path
         sodipodi:nodetypes="aaaaaaaaa"
         inkscape:connector-curvature="0"
         id="path4844"
         d="m 267.49002,213.9071 c -0.41491,0.18031 -0.93484,0.21101 -1.35639,0.0468 -0.32103,-0.12505 -0.59246,-0.41208 -0.73667,-0.72497 -0.11612,-0.25195 -0.14083,-0.56529 -0.0585,-0.83021 0.10207,-0.32843 0.33993,-0.64446 0.64312,-0.80682 0.36211,-0.19392 0.83482,-0.22484 1.22778,-0.10523 0.3395,0.10334 0.65611,0.35726 0.8302,0.6665 0.1755,0.31175 0.25528,0.72526 0.14033,1.06404 -0.1045,0.30797 -0.3916,0.56027 -0.68987,0.68989 z"
         style="fill:#ffffff;fill-opacity:1;stroke:#000000;stroke-width:0.465;stroke-linecap:butt;stroke-linejoin:miter;stroke-miterlimit:4;stroke-dasharray:none;stroke-opacity:1" />
    </g>
  </g>
</svg>
