<?xml version="1.0" encoding="UTF-8" standalone="no"?>
<svg
   xmlns:dc="http://purl.org/dc/elements/1.1/"
   xmlns:cc="http://creativecommons.org/ns#"
   xmlns:rdf="http://www.w3.org/1999/02/22-rdf-syntax-ns#"
   xmlns:svg="http://www.w3.org/2000/svg"
   xmlns="http://www.w3.org/2000/svg"
   xmlns:sodipodi="http://sodipodi.sourceforge.net/DTD/sodipodi-0.dtd"
   xmlns:inkscape="http://www.inkscape.org/namespaces/inkscape"
   width="36.287769mm"
   height="36.893185mm"
   viewBox="0 0 36.287769 36.893185"
   version="1.1"
   id="svg8"
   inkscape:version="0.92.0 r15299"
   sodipodi:docname="triz.svg">
  <metadata
     id="metadata19600">
    <rdf:RDF>
      <cc:Work
         rdf:about="">
        <dc:format>image/svg+xml</dc:format>
        <dc:type
           rdf:resource="http://purl.org/dc/dcmitype/StillImage" />
      </cc:Work>
    </rdf:RDF>
  </metadata>
  <defs
     id="defs19598" />
  <sodipodi:namedview
     pagecolor="#ffffff"
     bordercolor="#666666"
     borderopacity="1"
     objecttolerance="10"
     gridtolerance="10"
     guidetolerance="10"
     inkscape:pageopacity="0"
     inkscape:pageshadow="2"
     inkscape:window-width="640"
     inkscape:window-height="480"
     id="namedview19596"
     showgrid="false"
     inkscape:zoom="0.22137888"
     inkscape:cx="533.724"
     inkscape:cy="83.571415"
     inkscape:window-x="0"
     inkscape:window-y="0"
     inkscape:window-maximized="0"
     inkscape:current-layer="layer6" />
  <g
     inkscape:groupmode="layer"
     id="layer6"
     inkscape:label="triz"
     sodipodi:insensitive="true"
     transform="translate(-67.938646,-103.61946)">
    <path
       style="fill:#000000;fill-opacity:1;stroke:none;stroke-width:0.26458332px;stroke-linecap:butt;stroke-linejoin:miter;stroke-opacity:1"
       d="m 70.728794,140.4654 c 0,0 -2.888243,-3.03334 -2.787576,-7.74852 0.05862,-2.74576 1.187131,-5.61136 3.265778,-7.40632 4.876063,-4.21058 7.43515,-3.54526 10.820552,-6.57978 1.655598,-1.484 2.846942,-3.06009 3.06434,-4.95995 0.272366,-2.38023 -0.257655,-4.63981 -2.173362,-6.85082 -2.326473,-2.68509 -5.787762,-2.85845 -5.787762,-2.85845 0,0 4.89252,-0.8326 7.205172,-0.21261 2.470557,0.66232 4.857219,2.06669 6.567337,3.96875 1.615742,1.79709 2.64232,4.18904 3.071056,6.56734 0.381228,2.11477 -0.377975,6.70907 -0.377975,6.70907 0,0 2.325556,-2.1785 2.787573,-3.73251 0.913833,-3.0737 -0.425222,-5.74051 -0.425222,-5.74051 0,0 2.823354,1.79491 3.543526,6.6382 0.372178,2.50297 0.29652,3.65842 -0.141744,5.48066 -0.304691,1.26686 -1.630024,3.77976 -1.630024,3.77976 0,0 2.163419,-1.47049 2.952947,-2.43322 0.7291,-0.88905 1.26713,-1.8675 1.46465,-3.00019 0.21416,-1.22813 -0.47247,-3.80338 -0.47247,-3.80338 0,0 2.13127,2.25098 2.45685,4.79557 0.23751,1.85628 0.0276,3.83523 -0.66146,5.57515 -0.94677,2.39053 -2.43548,3.85219 -3.1183,6.00037 -0.597108,1.87853 -0.803207,5.85863 -0.803207,5.85863 z"
       id="path906"
       inkscape:connector-curvature="0"
       sodipodi:nodetypes="cssssscssscscsscsscssscc" />
  </g>
</svg>
