<?xml version="1.0" encoding="UTF-8" standalone="no"?>
<svg
   xmlns:dc="http://purl.org/dc/elements/1.1/"
   xmlns:cc="http://creativecommons.org/ns#"
   xmlns:rdf="http://www.w3.org/1999/02/22-rdf-syntax-ns#"
   xmlns:svg="http://www.w3.org/2000/svg"
   xmlns="http://www.w3.org/2000/svg"
   xmlns:sodipodi="http://sodipodi.sourceforge.net/DTD/sodipodi-0.dtd"
   xmlns:inkscape="http://www.inkscape.org/namespaces/inkscape"
   width="33.065342mm"
   height="35.369133mm"
   viewBox="0 0 33.065342 35.369133"
   version="1.1"
   id="svg8"
   inkscape:version="0.92.0 r15299"
   sodipodi:docname="troika-consulting.svg">
  <metadata
     id="metadata20158">
    <rdf:RDF>
      <cc:Work
         rdf:about="">
        <dc:format>image/svg+xml</dc:format>
        <dc:type
           rdf:resource="http://purl.org/dc/dcmitype/StillImage" />
      </cc:Work>
    </rdf:RDF>
  </metadata>
  <defs
     id="defs20156" />
  <sodipodi:namedview
     pagecolor="#ffffff"
     bordercolor="#666666"
     borderopacity="1"
     objecttolerance="10"
     gridtolerance="10"
     guidetolerance="10"
     inkscape:pageopacity="0"
     inkscape:pageshadow="2"
     inkscape:window-width="640"
     inkscape:window-height="480"
     id="namedview20154"
     showgrid="false"
     inkscape:zoom="0.22137888"
     inkscape:cx="589.21052"
     inkscape:cy="427.63074"
     inkscape:window-x="0"
     inkscape:window-y="0"
     inkscape:window-maximized="0"
     inkscape:current-layer="layer10" />
  <g
     inkscape:groupmode="layer"
     id="layer10"
     inkscape:label="troikaconsulting"
     sodipodi:insensitive="true"
     transform="translate(-53.257839,-196.17587)">
    <g
       id="g4652">
      <path
         inkscape:connector-curvature="0"
         id="path4640"
         d="m 66.99628,212.16275 -2.651141,-4.52646 -0.567949,0.0334 -0.868625,4.47676 -9.187391,2.27179 6.982418,2.43884 -3.274052,7.58377 6.781963,-5.74629 4.57699,2.47224 0.534541,-0.20045 -0.868627,-5.3788 z"
         style="fill:#000000;fill-opacity:1;stroke:#000000;stroke-width:0.26458332px;stroke-linecap:butt;stroke-linejoin:miter;stroke-opacity:1" />
      <path
         sodipodi:nodetypes="aaaaaaaaa"
         inkscape:connector-curvature="0"
         id="path4636"
         d="m 66.99628,212.16275 c 0.28975,-0.29548 0.744242,-0.46984 1.15755,-0.44884 0.450195,0.0229 0.892147,0.28948 1.204801,0.6142 0.325007,0.33755 0.535381,0.81036 0.590588,1.27568 0.05677,0.47847 0.01554,1.0396 -0.283484,1.41741 -0.317085,0.40064 -0.883844,0.66962 -1.393787,0.63783 -0.508185,-0.0317 -0.991218,-0.39781 -1.299294,-0.8032 -0.307597,-0.40476 -0.442442,-0.95657 -0.425221,-1.46466 0.01477,-0.4357 0.143617,-0.91715 0.448847,-1.22842 z"
         style="fill:#ffffff;fill-opacity:1;stroke:#000000;stroke-width:0.5;stroke-linecap:butt;stroke-linejoin:miter;stroke-miterlimit:4;stroke-dasharray:none;stroke-opacity:1" />
      <path
         sodipodi:nodetypes="caaaacacacssacc"
         inkscape:connector-curvature="0"
         id="path4642"
         d="m 65.481032,207.56947 c 0,0 1.968759,-0.80568 3.006784,-1.00226 0.832723,-0.1577 1.723796,0.098 2.53906,-0.13363 0.512963,-0.14573 1.055547,-0.36402 1.403164,-0.76841 0.803793,-0.93506 1.015407,-2.26791 1.26953,-3.4745 0.354187,-1.6817 0.334089,-5.14493 0.334089,-5.14493 0,0 1.526491,2.40996 2.104748,3.70836 0.415488,0.93292 0.968851,2.90656 0.968851,2.90656 0,0 2.63736,-0.9477 4.009044,-1.20272 1.438439,-0.26744 4.376537,-0.33409 4.376537,-0.33409 0,0 -4.195902,2.89336 -6.414469,5.17835 -0.395631,0.40748 -0.92579,0.71528 -0.73499,1.67043 0.390541,1.95505 0.907471,1.90634 1.23612,2.90656 0.346547,1.05469 0.768401,3.24065 0.768401,3.24065 z"
         style="fill:#ffffff;fill-opacity:1;stroke:#000000;stroke-width:0.5;stroke-linecap:butt;stroke-linejoin:miter;stroke-miterlimit:4;stroke-dasharray:none;stroke-opacity:1" />
      <path
         sodipodi:nodetypes="cccsscacccc"
         inkscape:connector-curvature="0"
         id="path4644"
         d="m 66.616928,222.03543 5.545844,-4.84426 6.681737,-2.03793 c 0,0 -1.44783,2.74751 -1.603616,4.07586 -0.04073,0.34731 -0.357378,0.83376 0.300677,1.43658 0.694239,0.63598 5.946747,4.67721 5.946747,4.67721 0,0 -1.817524,-0.0602 -2.706102,-0.23386 -1.73887,-0.33991 -5.078122,-1.57021 -5.078122,-1.57021 l -1.035669,7.11606 -3.708366,-8.31877 z"
         style="fill:#ffffff;fill-opacity:1;stroke:#000000;stroke-width:0.5;stroke-linecap:butt;stroke-linejoin:miter;stroke-miterlimit:4;stroke-dasharray:none;stroke-opacity:1" />
      <path
         sodipodi:nodetypes="aaaaaaaaa"
         inkscape:connector-curvature="0"
         id="path4638"
         d="m 70.657923,215.84802 c 0.272519,-0.37701 0.705993,-0.66776 1.157552,-0.77957 0.499709,-0.12374 1.096068,-0.10282 1.535527,0.16531 0.329998,0.20134 0.557221,0.59049 0.637836,0.96856 0.09152,0.42921 0.01318,0.92297 -0.212611,1.29929 -0.280364,0.46728 -0.776753,0.83757 -1.299295,0.99219 -0.492256,0.14566 -1.102931,0.15826 -1.535527,-0.11814 -0.380268,-0.24296 -0.60815,-0.73308 -0.661457,-1.18118 -0.05507,-0.4629 0.104886,-0.96865 0.377975,-1.34646 z"
         style="fill:#ffffff;fill-opacity:1;stroke:#000000;stroke-width:0.5;stroke-linecap:butt;stroke-linejoin:miter;stroke-miterlimit:4;stroke-dasharray:none;stroke-opacity:1" />
      <path
         sodipodi:nodetypes="aaaaaaaaa"
         inkscape:connector-curvature="0"
         id="path4634"
         d="m 70.705169,211.17056 c 0.05905,-0.49901 0.395734,-0.98161 0.803199,-1.27566 0.427441,-0.30847 1.011068,-0.43087 1.535531,-0.37798 0.494148,0.0498 0.995635,0.28636 1.346538,0.63783 0.32603,0.32656 0.568767,0.79112 0.590589,1.25205 0.02415,0.51006 -0.162466,1.07619 -0.519718,1.44104 -0.383674,0.39183 -0.987238,0.60139 -1.535527,0.59059 -0.617164,-0.0122 -1.282259,-0.2787 -1.700893,-0.73234 -0.366469,-0.39711 -0.583217,-0.99891 -0.519719,-1.53553 z"
         style="fill:#000000;fill-opacity:1;stroke:#000000;stroke-width:0.26458332px;stroke-linecap:butt;stroke-linejoin:miter;stroke-opacity:1" />
    </g>
  </g>
</svg>
