<?xml version="1.0" encoding="UTF-8" standalone="no"?>
<svg
   xmlns:dc="http://purl.org/dc/elements/1.1/"
   xmlns:cc="http://creativecommons.org/ns#"
   xmlns:rdf="http://www.w3.org/1999/02/22-rdf-syntax-ns#"
   xmlns:svg="http://www.w3.org/2000/svg"
   xmlns="http://www.w3.org/2000/svg"
   xmlns:sodipodi="http://sodipodi.sourceforge.net/DTD/sodipodi-0.dtd"
   xmlns:inkscape="http://www.inkscape.org/namespaces/inkscape"
   width="24.909794mm"
   height="24.197475mm"
   viewBox="0 0 24.909794 24.197476"
   version="1.1"
   id="svg8"
   inkscape:version="0.92.0 r15299"
   sodipodi:docname="user-experience-fishbowl.svg">
  <metadata
     id="metadata20712">
    <rdf:RDF>
      <cc:Work
         rdf:about="">
        <dc:format>image/svg+xml</dc:format>
        <dc:type
           rdf:resource="http://purl.org/dc/dcmitype/StillImage" />
      </cc:Work>
    </rdf:RDF>
  </metadata>
  <defs
     id="defs20710" />
  <sodipodi:namedview
     pagecolor="#ffffff"
     bordercolor="#666666"
     borderopacity="1"
     objecttolerance="10"
     gridtolerance="10"
     guidetolerance="10"
     inkscape:pageopacity="0"
     inkscape:pageshadow="2"
     inkscape:window-width="640"
     inkscape:window-height="480"
     id="namedview20708"
     showgrid="false"
     inkscape:zoom="0.24288425"
     inkscape:cx="45.882291"
     inkscape:cy="410.25048"
     inkscape:window-x="0"
     inkscape:window-y="0"
     inkscape:window-maximized="0"
     inkscape:current-layer="layer24" />
  <g
     inkscape:groupmode="layer"
     id="layer24"
     inkscape:label="userexperiencefishbowl"
     sodipodi:insensitive="true"
     transform="translate(-197.01343,-202.749)">
    <path
       style="fill:#000000;fill-opacity:1;stroke:none;stroke-width:0.26458332px;stroke-linecap:butt;stroke-linejoin:miter;stroke-opacity:1"
       d="m 202.86927,225.52421 c 0,0 2.80032,1.43767 7.0776,1.42214 4.00779,-0.0146 7.01313,-1.52537 7.01313,-1.52537 l -1.30805,-1.31891 c 0,0 3.73382,-2.46282 4.81211,-4.33255 1.14578,-1.98676 1.59542,-4.44446 1.4238,-6.73151 -0.20877,-2.78205 -2.93464,-7.83828 -2.93464,-7.83828 0,0 0.68438,-0.25563 0.89899,-0.57192 0.21461,-0.31629 0.1442,-0.66776 0.0496,-0.98133 -0.0911,-0.30187 -0.56224,-0.76068 -0.56224,-0.76068 0,0 -4.1029,1.87362 -9.75485,1.90972 -4.34604,0.0278 -9.73879,-2.04652 -9.73879,-2.04652 0,0 -0.46652,0.55459 -0.50544,0.89499 -0.0302,0.26433 0.0138,0.51073 0.22548,0.76566 0.21164,0.25494 1.0059,0.49408 1.0059,0.49408 0,0 -3.40924,4.29976 -3.54849,8.30649 -0.089,2.56138 0.40665,5.19902 1.98603,7.09864 1.28317,1.54336 5.03394,3.77668 5.03394,3.77668 z"
       id="path4771"
       inkscape:connector-curvature="0"
       sodipodi:nodetypes="csccaaczacscazcsscc" />
    <path
       style="fill:#ffffff;fill-opacity:1;stroke:none;stroke-width:0.26458332px;stroke-linecap:butt;stroke-linejoin:miter;stroke-opacity:1"
       d="m 201.95052,205.30103 c 0,0 4.23954,1.51625 7.96296,1.47331 3.7038,-0.0427 7.50694,-1.09914 7.50694,-1.09914 0,0 2.28076,3.94793 2.82971,6.057 0.56652,2.17654 0.11871,4.67757 -0.88867,6.68841 -0.86913,1.73487 -2.4706,3.11949 -4.16272,4.06918 -1.71139,0.96051 -3.74371,1.4418 -5.7062,1.44994 -1.70159,0.007 -3.43757,-0.45174 -4.95785,-1.21608 -1.95615,-0.98347 -3.80141,-2.3215 -5.00463,-4.30304 -1.11866,-1.84228 -1.32555,-4.5024 -0.93544,-6.73519 0.41379,-2.36835 3.3559,-6.38439 3.3559,-6.38439 z"
       id="path4769"
       inkscape:connector-curvature="0"
       sodipodi:nodetypes="cscsaaassac" />
    <path
       style="fill:#000000;fill-opacity:1;stroke:none;stroke-width:0.26458332px;stroke-linecap:butt;stroke-linejoin:miter;stroke-opacity:1"
       d="m 202.57161,214.01484 c 0.0518,-0.88105 2.69811,-1.56884 4.08451,-1.53789 1.3864,0.0309 3.27055,1.53573 3.55534,1.55442 0.28479,0.0187 0.54639,-0.65958 0.85162,-0.92604 0.30523,-0.26646 1.22205,-0.60367 1.31465,-0.52917 0.0926,0.0745 -0.23166,0.9582 -0.48783,1.28985 -0.25617,0.33165 -0.91777,0.69453 -0.91777,0.69453 0,0 0.63484,0.66209 0.77722,1.05006 0.14238,0.38797 0.28515,1.07823 0.14881,1.16582 -0.13634,0.0876 -0.82869,-0.25493 -1.09991,-0.59631 -0.27122,-0.34138 -0.31636,-1.08586 -0.63641,-1.0904 -0.32005,-0.005 -2.15577,0.85279 -3.53881,0.81028 -1.38303,-0.0425 -4.10324,-1.0041 -4.05142,-1.88515 z"
       id="path4773"
       inkscape:connector-curvature="0"
       sodipodi:nodetypes="zzzzzzczzzzzz" />
  </g>
</svg>
