<?xml version="1.0" encoding="UTF-8" standalone="no"?>
<svg
   xmlns:dc="http://purl.org/dc/elements/1.1/"
   xmlns:cc="http://creativecommons.org/ns#"
   xmlns:rdf="http://www.w3.org/1999/02/22-rdf-syntax-ns#"
   xmlns:svg="http://www.w3.org/2000/svg"
   xmlns="http://www.w3.org/2000/svg"
   xmlns:sodipodi="http://sodipodi.sourceforge.net/DTD/sodipodi-0.dtd"
   xmlns:inkscape="http://www.inkscape.org/namespaces/inkscape"
   width="34.085293mm"
   height="22.444294mm"
   viewBox="0 0 34.085292 22.444294"
   version="1.1"
   id="svg8"
   inkscape:version="0.92.0 r15299"
   sodipodi:docname="wicked-questions.svg">
  <metadata
     id="metadata22380">
    <rdf:RDF>
      <cc:Work
         rdf:about="">
        <dc:format>image/svg+xml</dc:format>
        <dc:type
           rdf:resource="http://purl.org/dc/dcmitype/StillImage" />
      </cc:Work>
    </rdf:RDF>
  </metadata>
  <defs
     id="defs22378" />
  <sodipodi:namedview
     pagecolor="#ffffff"
     bordercolor="#666666"
     borderopacity="1"
     objecttolerance="10"
     gridtolerance="10"
     guidetolerance="10"
     inkscape:pageopacity="0"
     inkscape:pageshadow="2"
     inkscape:window-width="640"
     inkscape:window-height="480"
     id="namedview22376"
     showgrid="false"
     inkscape:zoom="0.22137888"
     inkscape:cx="341.78269"
     inkscape:cy="-325.56312"
     inkscape:window-x="0"
     inkscape:window-y="0"
     inkscape:window-maximized="0"
     inkscape:current-layer="layer12" />
  <g
     inkscape:groupmode="layer"
     id="layer12"
     inkscape:label="wickedquestions"
     sodipodi:insensitive="true"
     transform="translate(-118.72312,-9.8181677)">
    <g
       id="g4716">
      <path
         sodipodi:nodetypes="caassascaaasssc"
         inkscape:connector-curvature="0"
         id="path4704"
         d="m 118.82626,24.757435 c 0,0 4.23079,3.900515 6.89807,4.677455 2.08752,0.608065 4.67769,0.965587 6.52009,-0.188989 2.16672,-1.357819 3.17571,-3.632586 3.54352,-6.80357 0.30649,-2.642199 0.43637,-5.071551 1.13393,-7.701265 0.40323,-1.520125 1.13445,-3.449179 2.59859,-4.204985 1.96327,-1.0134562 4.74819,-0.5961231 6.61458,0.425227 2.99624,1.639643 6.56734,6.425595 6.56734,6.425595 0,0 -4.64767,-4.000791 -7.51228,-4.771949 -1.52198,-0.409719 -3.32569,-0.536996 -4.7247,0.188988 -1.12676,0.584704 -1.79256,1.866914 -2.3151,3.023809 -0.81941,1.814159 -0.88558,3.395749 -1.15756,5.858632 -0.29566,2.677248 -0.48633,6.758909 -3.70888,9.071428 -2.41808,1.735227 -5.40719,1.842843 -8.17373,0.236231 -2.38952,-1.387663 -6.28387,-6.236607 -6.28387,-6.236607 z"
         style="fill:#000000;fill-opacity:1;stroke:#000000;stroke-width:0.26458332px;stroke-linecap:butt;stroke-linejoin:miter;stroke-opacity:1" />
      <circle
         r="2.494199"
         cy="23.170202"
         cx="128.64018"
         id="path4706"
         style="opacity:1;fill:none;fill-opacity:1;stroke:#000000;stroke-width:1.68700004;stroke-linecap:round;stroke-miterlimit:4;stroke-dasharray:none;stroke-opacity:1" />
      <circle
         r="3.1568954"
         cy="18.676735"
         cx="143.3567"
         id="path4708"
         style="opacity:1;fill:none;fill-opacity:1;stroke:#000000;stroke-width:1.23399997;stroke-linecap:round;stroke-miterlimit:4;stroke-dasharray:none;stroke-opacity:1" />
      <circle
         r="1.4866867"
         cy="18.676735"
         cx="143.3567"
         id="path4710"
         style="opacity:1;fill:#000000;fill-opacity:1;stroke:none;stroke-width:2.19652009;stroke-linecap:round;stroke-miterlimit:4;stroke-dasharray:none;stroke-opacity:1" />
    </g>
  </g>
</svg>
