<?xml version="1.0" encoding="UTF-8" standalone="no"?>
<svg
   xmlns:dc="http://purl.org/dc/elements/1.1/"
   xmlns:cc="http://creativecommons.org/ns#"
   xmlns:rdf="http://www.w3.org/1999/02/22-rdf-syntax-ns#"
   xmlns:svg="http://www.w3.org/2000/svg"
   xmlns="http://www.w3.org/2000/svg"
   xmlns:sodipodi="http://sodipodi.sourceforge.net/DTD/sodipodi-0.dtd"
   xmlns:inkscape="http://www.inkscape.org/namespaces/inkscape"
   width="74.695076mm"
   height="56.407093mm"
   viewBox="0 0 74.695075 56.407093"
   version="1.1"
   id="svg8"
   inkscape:version="0.92.0 r15299"
   sodipodi:docname="wise-crowds.svg">
  <metadata
     id="metadata22945">
    <rdf:RDF>
      <cc:Work
         rdf:about="">
        <dc:format>image/svg+xml</dc:format>
        <dc:type
           rdf:resource="http://purl.org/dc/dcmitype/StillImage" />
      </cc:Work>
    </rdf:RDF>
  </metadata>
  <defs
     id="defs22943" />
  <sodipodi:namedview
     pagecolor="#ffffff"
     bordercolor="#666666"
     borderopacity="1"
     objecttolerance="10"
     gridtolerance="10"
     guidetolerance="10"
     inkscape:pageopacity="0"
     inkscape:pageshadow="2"
     inkscape:window-width="640"
     inkscape:window-height="480"
     id="namedview22941"
     showgrid="false"
     inkscape:zoom="0.22137888"
     inkscape:cx="427.22388"
     inkscape:cy="444.33161"
     inkscape:window-x="0"
     inkscape:window-y="0"
     inkscape:window-maximized="0"
     inkscape:current-layer="layer22" />
  <g
     inkscape:groupmode="layer"
     id="layer22"
     inkscape:label="wisecrowds"
     style="display:inline"
     sodipodi:insensitive="true"
     transform="translate(-96.116803,-179.55668)">
    <g
       id="g4745">
      <path
         sodipodi:nodetypes="caaacaaaaaaaaccsaaaaaaaaccscsscsaaacccccaaaaaascczzczcsccaacaczcasaaczzczcaaaaccccaaaaccssccaaaacc"
         inkscape:connector-curvature="0"
         id="path4705"
         d="m 96.116803,187.45744 c 0,0 2.657938,1.46542 4.022407,2.12813 1.22743,0.59616 2.6983,0.78113 3.74177,1.66042 0.3009,0.25356 0.54364,0.60475 0.65481,0.98221 0.18814,0.63878 -0.0303,1.9975 -0.0303,1.9975 0,0 -2.20906,1.17125 -3.00193,2.10005 -0.85997,1.0074 -1.569876,2.25934 -1.738599,3.57309 -0.263291,2.05009 0.280309,4.23741 1.216079,6.08038 1.38881,2.73522 3.72379,4.99991 6.2207,6.78196 2.38119,1.69946 5.20661,2.79878 8.04481,3.50791 4.05105,1.01217 8.31583,1.14674 12.48817,0.98222 4.57428,-0.18037 9.0401,-1.4504 13.56393,-2.15152 2.88272,-0.44677 5.7423,-1.11384 8.65285,-1.30962 0.98012,-0.0659 2.94664,0.0468 2.94664,0.0468 l -3.46114,3.50792 c 0,0 -2.47605,-0.43365 -5.28526,0.56126 -1.64921,0.58409 -3.11894,1.54852 -3.88208,2.99342 -1.0065,1.90566 -0.97485,4.38483 -0.37418,6.45456 0.58849,2.02776 2.10212,3.75897 3.695,5.14493 1.54151,1.34126 3.44721,2.3419 5.42557,2.85311 2.79321,0.72177 5.84063,0.83081 8.65285,0.18709 2.54201,-0.58187 5.02926,-1.81183 6.96906,-3.55469 1.35743,-1.21961 2.47289,-2.83464 2.99342,-4.58367 0.56479,-1.89776 0.66667,-4.07566 0,-5.94007 -0.67886,-1.89849 -3.83532,-4.67721 -3.83532,-4.67721 l 0.88867,-2.24507 c 0,0 2.1649,-0.23768 3.22728,-0.46772 0.98374,-0.21301 2.89987,-0.8419 2.89987,-0.8419 0,0 -1.95302,-1.01085 -2.8531,-1.63702 -0.79966,-0.55631 -1.44205,-1.31941 -2.24506,-1.87089 -0.748,-0.5137 -2.37736,-1.32616 -2.37736,-1.32616 0,0 1.04381,-1.09855 0.69072,-2.39057 -0.27652,-1.01182 -0.96374,-1.50329 -1.70131,-1.95122 -0.62159,-0.37749 -1.39392,-0.5492 -2.12031,-0.514 -0.69729,0.0338 -1.43546,0.24872 -1.97813,0.68788 -0.63006,0.5099 -1.26001,2.0797 -1.26001,2.0797 l -4.72399,-1.21607 -1.44993,0.65481 2.3386,4.0224 0.98222,3.13374 c 0,0 -1.87082,-0.18573 -2.80633,-0.14032 -4.78559,0.23228 -9.47558,1.42776 -14.21874,2.10475 -3.28725,0.46919 -6.54918,1.28255 -9.86893,1.35639 -3.89765,0.0867 -7.89579,-0.0113 -11.64627,-1.07576 -2.52872,-0.71771 -4.97269,-1.9136 -7.06259,-3.50791 -2.30895,-1.76141 -4.48086,-3.91399 -5.79975,-6.50133 -0.92777,-1.82005 -1.63964,-3.97319 -1.30395,-5.9883 0.39314,-2.35995 3.02933,-3.99639 3.02933,-3.99639 l -1.16412,9.37665 c 0,0 0.9728,0.18391 1.73057,-0.32741 0.75777,-0.51132 1.25196,-1.7239 2.01121,-3.13373 0.75925,-1.40983 2.38538,-5.3788 2.38538,-5.3788 0,0 4.13409,4.74327 4.81939,5.25972 0.6853,0.51644 1.72871,0.44648 1.72871,0.44648 0,0 -0.75048,0.98634 -0.27212,2.61025 0.34221,1.16174 2.18978,3.00242 2.18978,3.00242 l -1.35639,5.42557 c 0,0 1.0856,-0.0243 1.54632,-0.27261 0.71252,-0.38409 1.15607,-1.13799 1.66677,-1.76599 0.40072,-0.49277 1.08995,-1.56286 1.08995,-1.56286 0,0 2.95638,1.04398 4.49004,1.33937 1.0761,0.20727 3.27414,0.29766 3.27414,0.29766 0,0 0.62667,0.39789 0.90036,0.36248 0.27369,-0.0354 0.54957,-0.40926 0.54957,-0.40926 0,0 3.78598,0.0429 5.65943,-0.18708 3.12163,-0.38316 6.31093,-0.79628 9.22548,-1.97814 2.51577,-1.02014 3.51074,-1.34063 4.24491,-2.88617 0.61777,-1.30049 0.23583,-2.99889 -0.37418,-4.30304 -0.57263,-1.22424 -2.87532,-2.85878 -2.87532,-2.85878 0,0 -1.08929,-7.50432 -1.18534,-8.53563 -0.0961,-1.03132 -0.0553,-1.63175 0.83671,-2.20543 0.89196,-0.57368 4.29971,-2.81719 4.29971,-2.81719 0,0 -1.59292,0.028 -2.94145,-0.13229 -1.34853,-0.16025 -5.05659,-1.13056 -5.05659,-1.13056 0,0 0.10875,-1.87178 -0.38836,-2.58901 -0.44169,-0.63728 -1.27596,-0.96258 -2.03293,-1.13055 -0.82397,-0.18285 -1.75043,-0.15457 -2.52569,0.17909 -0.75537,0.3251 -1.49824,0.9098 -1.81844,1.66726 -0.34648,0.8196 0.077,2.66837 0.077,2.66837 l -6.96905,1.35639 4.95785,3.88209 -7.29646,1.54348 c 0,0 -0.17039,-1.21423 -0.55891,-1.6427 -0.52953,-0.58397 -1.37193,-0.87658 -2.15387,-0.97654 -0.94438,-0.12073 -1.97741,0.0333 -2.81436,0.4871 -0.63369,0.3436 -1.20522,0.91477 -1.47166,1.58458 -0.24036,0.60422 -0.017,1.95073 -0.017,1.95073 l -4.49012,-0.14032 c 0,0 -0.64281,-1.58631 -0.77174,-3.13373 -0.0833,-0.99945 -0.1167,-1.78004 0.70158,-2.8765 2.24829,-3.01257 3.83532,-6.43116 3.83532,-6.43116 l -8.25529,3.1805 c 0,0 -0.45847,-1.6523 -1.07576,-2.17491 -0.53453,-0.45254 -1.31085,-0.61113 -2.01121,-0.60803 -1.02073,0.005 -2.11083,0.29409 -2.92325,0.91206 -0.56105,0.42675 -1.02738,1.08246 -1.14593,1.77733 -0.124,0.7269 0.5145,2.15153 0.5145,2.15153 z"
         style="fill:#000000;fill-opacity:1;stroke:none;stroke-width:0.26458332px;stroke-linecap:butt;stroke-linejoin:miter;stroke-opacity:1" />
      <path
         sodipodi:nodetypes="aaaaaaaaa"
         inkscape:connector-curvature="0"
         id="path4707"
         d="m 104.67611,184.08984 c -0.25325,-0.35377 -0.44097,-0.80355 -0.4141,-1.2378 0.0309,-0.49926 0.26562,-1.03101 0.64796,-1.35356 0.43802,-0.36952 1.08255,-0.51902 1.65357,-0.47056 0.38693,0.0328 0.78573,0.21928 1.0507,0.50316 0.41578,0.44544 0.69356,1.09012 0.67419,1.69915 -0.0166,0.52145 -0.26573,1.0836 -0.66851,1.4152 -0.44123,0.36325 -1.10212,0.53534 -1.66207,0.42095 -0.52626,-0.1075 -0.96909,-0.53979 -1.28174,-0.97654 z"
         style="fill:#ffffff;fill-opacity:1;stroke:none;stroke-width:0.26458332px;stroke-linecap:butt;stroke-linejoin:miter;stroke-opacity:1" />
      <path
         sodipodi:nodetypes="aaaaaaaaa"
         inkscape:connector-curvature="0"
         id="path4709"
         d="m 121.02298,189.25817 c 0.47101,-0.30544 1.13498,-0.30151 1.67695,-0.15519 0.4839,0.13065 0.94672,0.45582 1.2241,0.87331 0.30568,0.46006 0.46904,1.07411 0.36449,1.61648 -0.10292,0.5339 -0.44628,1.08525 -0.92458,1.34386 -0.535,0.28928 -1.26787,0.28824 -1.82411,0.0423 -0.50135,-0.22169 -0.85413,-0.74149 -1.07811,-1.24182 -0.1658,-0.37036 -0.23177,-0.8093 -0.15402,-1.20756 0.0932,-0.47724 0.3073,-1.0068 0.71528,-1.27136 z"
         style="fill:#ffffff;fill-opacity:1;stroke:none;stroke-width:0.26458332px;stroke-linecap:butt;stroke-linejoin:miter;stroke-opacity:1" />
      <path
         sodipodi:nodetypes="aaaaaaaaa"
         inkscape:connector-curvature="0"
         id="path4711"
         d="m 136.57473,182.94393 c -0.13072,-0.38579 -0.10331,-0.84101 0.0428,-1.22127 0.15542,-0.40465 0.44802,-0.80303 0.83622,-0.99592 0.4777,-0.23735 1.09256,-0.24954 1.59828,-0.0799 0.47242,0.1585 0.91296,0.51951 1.14592,0.96001 0.23994,0.4537 0.29493,1.03893 0.15288,1.53213 -0.14319,0.49713 -0.48937,0.99418 -0.95199,1.22576 -0.48633,0.24346 -1.13751,0.25688 -1.63134,0.029 -0.56823,-0.26219 -0.99188,-0.85716 -1.19272,-1.44986 z"
         style="fill:#ffffff;fill-opacity:1;stroke:none;stroke-width:0.26458332px;stroke-linecap:butt;stroke-linejoin:miter;stroke-opacity:1" />
      <path
         sodipodi:nodetypes="aaaaaaaaa"
         inkscape:connector-curvature="0"
         id="path4713"
         d="m 159.39069,204.57489 c 0.5163,-0.26396 1.20837,-0.20834 1.73942,0.0245 0.56055,0.2458 1.01723,0.77237 1.26285,1.333 0.23201,0.52958 0.30367,1.18339 0.11693,1.73057 -0.14804,0.43377 -0.47757,0.88304 -0.91205,1.02899 -0.52751,0.17721 -1.1484,-0.0611 -1.63703,-0.32741 -0.51863,-0.28264 -0.98136,-0.73782 -1.23379,-1.2718 -0.19391,-0.4102 -0.26536,-0.91279 -0.15343,-1.35249 0.11704,-0.45977 0.39467,-0.94942 0.8171,-1.16539 z"
         style="fill:#ffffff;fill-opacity:1;stroke:none;stroke-width:0.26458332px;stroke-linecap:butt;stroke-linejoin:miter;stroke-opacity:1" />
      <path
         sodipodi:nodetypes="cccsc"
         inkscape:connector-curvature="0"
         id="path4715"
         d="m 116.52884,200.59239 -0.83788,-3.35957 3.25066,1.8475 c 0,0 -0.68313,0.24614 -1.46481,0.72781 -0.31613,0.1948 -0.94797,0.78426 -0.94797,0.78426 z"
         style="fill:#ffffff;fill-opacity:1;stroke:none;stroke-width:0.26458332px;stroke-linecap:butt;stroke-linejoin:miter;stroke-opacity:1" />
      <path
         sodipodi:nodetypes="ccsc"
         inkscape:connector-curvature="0"
         id="path4717"
         d="m 118.3102,205.16071 1.14591,-5.26187 c 0,0 -1.99818,0.5539 -2.34096,1.95308 -0.48474,1.97862 1.19505,3.30879 1.19505,3.30879 z"
         style="fill:#ffffff;fill-opacity:1;stroke:none;stroke-width:0.26458332px;stroke-linecap:butt;stroke-linejoin:miter;stroke-opacity:1" />
      <path
         sodipodi:nodetypes="ccczc"
         inkscape:connector-curvature="0"
         id="path4720"
         d="m 121.58425,207.85011 2.15152,-3.69501 3.95225,5.30864 c 0,0 -2.41962,-0.37661 -3.43776,-0.65481 -1.01814,-0.2782 -2.66601,-0.95882 -2.66601,-0.95882 z"
         style="fill:#ffffff;fill-opacity:1;stroke:none;stroke-width:0.26458332px;stroke-linecap:butt;stroke-linejoin:miter;stroke-opacity:1" />
      <path
         inkscape:connector-curvature="0"
         id="path4722"
         d="m 132.17814,192.54391 1.64872,-1.96443 -0.52619,2.31522 z"
         style="fill:#ffffff;fill-opacity:1;stroke:none;stroke-width:0.26458332px;stroke-linecap:butt;stroke-linejoin:miter;stroke-opacity:1" />
      <path
         sodipodi:nodetypes="cccczc"
         inkscape:connector-curvature="0"
         id="path4724"
         d="m 128.91823,197.69335 2.39778,0.23151 1.68672,-3.95221 -1.7694,-0.23151 c 0,0 -1.15553,1.21669 -1.55325,1.89719 -0.39772,0.68051 -0.76185,2.05502 -0.76185,2.05502 z"
         style="fill:#ffffff;fill-opacity:1;stroke:none;stroke-width:0.26458332px;stroke-linecap:butt;stroke-linejoin:miter;stroke-opacity:1" />
      <path
         sodipodi:nodetypes="ccaaaaczccc"
         inkscape:connector-curvature="0"
         id="path4726"
         d="m 128.78594,198.73515 0.89296,6.35 c 0,0 2.48184,0.9374 3.78685,1.0418 1.31549,0.10524 2.7814,0.20976 3.93568,-0.42995 0.72435,-0.40145 1.46163,-1.12666 1.53789,-1.9513 0.082,-0.88629 -0.60862,-1.73759 -1.24023,-2.36472 -0.99893,-0.99182 -3.75378,-1.93476 -3.75378,-1.93476 0,0 -1.99722,1.86681 -2.76159,2.14974 -0.76437,0.28293 -1.38906,0.0661 -1.38906,0.0661 l 1.21684,-2.80718 z"
         style="fill:#ffffff;fill-opacity:1;stroke:none;stroke-width:0.26458332px;stroke-linecap:butt;stroke-linejoin:miter;stroke-opacity:1" />
      <path
         sodipodi:nodetypes="cczcccaaaaccaaaac"
         inkscape:connector-curvature="0"
         id="path4728"
         d="m 135.05325,198.47057 2.87734,-3.02617 c 0,0 1.52651,-0.15995 2.82775,1.90169 1.30124,2.06164 3.93885,5.67601 3.93885,5.67601 l 1.69322,-0.20328 -0.1089,-2.01661 c 0,0 1.33398,1.30451 1.53789,2.16627 0.20034,0.84663 0.0826,1.85372 -0.39688,2.57969 -0.63307,0.95852 -1.86007,1.39321 -2.92695,1.81901 -2.8384,1.13281 -5.94766,1.46619 -8.9793,1.85208 -1.75742,0.2237 -5.3082,0.26459 -5.3082,0.26459 l -0.19844,-2.9931 c 0,0 2.17071,0.46811 3.27422,0.49609 1.49523,0.0379 3.08907,0.14035 4.46485,-0.44649 1.14002,-0.48627 2.5182,-1.21419 2.82773,-2.41432 0.32498,-1.26003 -0.49469,-2.69399 -1.37253,-3.65455 -1.03614,-1.13378 -4.15065,-2.00091 -4.15065,-2.00091 z"
         style="fill:#ffffff;fill-opacity:1;stroke:none;stroke-width:0.26458332px;stroke-linecap:butt;stroke-linejoin:miter;stroke-opacity:1" />
      <path
         sodipodi:nodetypes="cccccaaaaaaaaasccscaaaaaaaassssaaaasaaasaaacc"
         inkscape:connector-curvature="0"
         id="path4730"
         d="m 153.20223,219.09881 3.34421,-1.54348 2.10475,11.03823 1.63703,-0.39756 3.06357,-9.82216 c 0,0 2.14348,2.22881 2.61924,3.64823 0.51297,1.53043 0.4818,3.26859 0.11694,4.84092 -0.38146,1.64387 -1.21806,3.22832 -2.33861,4.49013 -0.94613,1.0654 -2.23269,1.82237 -3.5313,2.40877 -1.46639,0.66216 -3.07148,1.09082 -4.67722,1.19268 -2.09299,0.13278 -4.26399,-0.0807 -6.24408,-0.77173 -1.70787,-0.596 -3.33325,-1.56904 -4.63045,-2.82972 -1.28076,-1.2447 -2.40439,-2.78121 -2.92326,-4.49013 -0.54586,-1.79779 -0.84512,-3.92447 -0.0702,-5.63605 0.61796,-1.3649 1.97281,-2.51494 3.41437,-2.92326 2.04127,-0.57818 3.32082,-0.0468 3.32082,-0.0468 l -3.08696,3.08696 c 0,0 2.2648,-0.35222 3.3676,-0.65481 0.98204,-0.26945 2.87649,-1.02898 2.87649,-1.02898 0,0 2.50419,2.44118 3.27405,3.97563 0.65878,1.31305 1.39265,2.85056 1.05237,4.27965 -0.19977,0.83898 -0.94959,1.51196 -1.6838,1.96443 -0.74058,0.45639 -1.66359,0.6165 -2.53345,0.62646 -0.78002,0.009 -1.61404,-0.1101 -2.28408,-0.50956 -0.81059,-0.48326 -1.53583,-1.25 -1.8563,-2.13762 -0.40405,-1.11912 -0.54133,-2.55325 0.079,-3.56858 0.41275,-0.67562 1.31217,-0.97692 2.08885,-1.13056 0.75115,-0.14859 1.70292,-0.15509 2.28435,0.24188 0.61129,0.41736 0.93925,1.0029 1.03778,1.54665 0.11577,0.63891 0.20726,1.10641 0.0789,1.73883 -0.12307,0.60662 1.19301,0.48592 1.19849,-0.10496 0.008,-0.86756 0.10956,-1.73673 -0.23515,-2.49915 -0.32181,-0.71176 -0.95353,-1.27742 -1.60662,-1.70595 -0.34967,-0.22944 -0.76517,-0.37474 -1.1803,-0.42551 -0.64476,-0.0789 -1.30479,0.0567 -1.93845,0.19961 -0.55426,0.12495 -0.8017,0.20608 -1.60643,0.56983 -0.70061,0.31668 -1.43394,1.13381 -1.69596,1.95603 -0.42204,1.32436 -0.20286,2.90026 0.40513,4.15022 0.42446,0.87263 1.23658,1.57768 2.10475,2.0112 0.98095,0.48983 2.15413,0.5677 3.24545,0.53565 2.01589,-0.0592 3.705,-0.70247 4.79937,-2.05569 0.83925,-1.03776 0.9223,-2.60274 0.77173,-3.92887 -0.14448,-1.27247 -0.85932,-2.44047 -1.56686,-3.50791 -0.70086,-1.05736 -2.59578,-2.78294 -2.59578,-2.78294 z"
         style="fill:#ffffff;fill-opacity:1;stroke:none;stroke-width:0.26458332px;stroke-linecap:butt;stroke-linejoin:miter;stroke-opacity:1" />
    </g>
  </g>
</svg>
